{
DisplayStrings = (
tone
);
copyright = "Copyright (c) 2012 by vernon adams. All rights reserved.";
customParameters = (
{
name = note;
value = "";
},
{
name = openTypeNameDescription;
value = "Copyright (c) 2011 by vernon adams. All rights reserved.";
},
{
name = openTypeOS2FamilyClass;
value = (
    8,
    5
);
},
{
name = openTypeOS2VendorID;
value = newt;
},
{
name = postscriptFamilyBlues;
value = (
);
},
{
name = postscriptFamilyOtherBlues;
value = (
);
},
{
name = styleName;
value = Book;
},
{
name = trademark;
value = "Mooli is a trademark of vernon adams.";
}
);
date = "2011-04-16 19:30:13 +0000";
designer = "vernon adams";
familyName = "Mooli";
fontMaster = (
{
alignmentZones = (
"{1490, 36}",
"{1456, 27}",
"{1438, 15}",
"{1026, 25}",
"{0, -26}",
"{-427, -37}"
);
ascender = 1638;
capHeight = 1456;
customParameters = (
{
name = openTypeHheaLineGap;
value = 0;
},
{
name = winAscent;
value = 0;
},
{
name = winDescent;
value = 0;
}
);
descender = "-410";
horizontalStems = (
20,
125,
137,
142,
148
);
id = "9FF46155-5700-4CC7-A83F-22EBDC7BC473";
verticalStems = (
165,
172
);
xHeight = 1026;
}
);
glyphs = (
{
glyphname = A;
layers = (
{
anchors = (
{
name = ogonek;
position = "{1282, 10}";
},
{
name = top;
position = "{713, 1456}";
}
);
layerId = "9FF46155-5700-4CC7-A83F-22EBDC7BC473";
name = Regular;
paths = (
{
closed = 1;
nodes = (
"13 0 LINE",
"199 0 LINE",
"355 397 LINE",
"1053 397 LINE",
"1216 0 LINE",
"1407 0 LINE",
"802 1456 LINE",
"617 1456 LINE"
);
},
{
closed = 1;
nodes = (
"410 545 LINE",
"655 1149 LINE",
"670 1191 OFFCURVE",
"692 1252 OFFCURVE",
"707 1298 CURVE",
"721 1252 OFFCURVE",
"742 1192 OFFCURVE",
"760 1150 CURVE",
"994 545 LINE"
);
}
);
width = 1425;
}
);
unicode = 0041;
},
{
glyphname = AE;
layers = (
{
anchors = (
{
name = top;
position = "{1014, 0}";
}
);
layerId = "9FF46155-5700-4CC7-A83F-22EBDC7BC473";
name = Regular;
paths = (
{
closed = 1;
nodes = (
"5 0 LINE",
"201 0 LINE",
"427 398 LINE",
"1073 398 LINE",
"1104 0 LINE",
"1901 0 LINE",
"1901 148 LINE",
"1257 148 LINE",
"1216 672 LINE",
"1837 672 LINE",
"1837 820 LINE",
"1197 820 LINE",
"1159 1308 LINE",
"1878 1308 LINE",
"1878 1456 LINE",
"836 1456 LINE"
);
},
{
closed = 1;
nodes = (
"506 546 LINE",
"944 1308 LINE",
"994 1308 LINE",
"1054 546 LINE"
);
}
);
width = 2028;
}
);
unicode = 00C6;
},
{
glyphname = B;
layers = (
{
layerId = "9FF46155-5700-4CC7-A83F-22EBDC7BC473";
name = Regular;
paths = (
{
closed = 1;
nodes = (
"200 0 LINE",
"650 0 LINE SMOOTH",
"997 0 OFFCURVE",
"1211 114 OFFCURVE",
"1211 403 CURVE SMOOTH",
"1211 625 OFFCURVE",
"1117 728 OFFCURVE",
"877 769 CURVE",
"1067 823 OFFCURVE",
"1142 918 OFFCURVE",
"1142 1105 CURVE SMOOTH",
"1142 1357 OFFCURVE",
"959 1456 OFFCURVE",
"584 1456 CURVE SMOOTH",
"200 1456 LINE"
);
},
{
closed = 1;
nodes = (
"372 148 LINE",
"372 680 LINE",
"598 680 LINE SMOOTH",
"907 680 OFFCURVE",
"1029 602 OFFCURVE",
"1029 406 CURVE SMOOTH",
"1029 221 OFFCURVE",
"912 148 OFFCURVE",
"644 148 CURVE SMOOTH"
);
},
{
closed = 1;
nodes = (
"372 828 LINE",
"372 1308 LINE",
"584 1308 LINE SMOOTH",
"857 1308 OFFCURVE",
"961 1243 OFFCURVE",
"961 1077 CURVE SMOOTH",
"961 898 OFFCURVE",
"850 828 OFFCURVE",
"568 828 CURVE SMOOTH"
);
}
);
width = 1340;
}
);
unicode = 0042;
},
{
glyphname = C;
layers = (
{
anchors = (
{
name = bottom;
position = "{846, 0}";
},
{
name = top;
position = "{805, 1456}";
}
);
layerId = "9FF46155-5700-4CC7-A83F-22EBDC7BC473";
name = Regular;
paths = (
{
closed = 1;
nodes = (
"116 287 OFFCURVE",
"379 -22 OFFCURVE",
"820 -22 CURVE SMOOTH",
"1021 -22 OFFCURVE",
"1180 31 OFFCURVE",
"1299 127 CURVE",
"1242 267 LINE",
"1141 179 OFFCURVE",
"1006 123 OFFCURVE",
"825 123 CURVE SMOOTH",
"469 123 OFFCURVE",
"299 382 OFFCURVE",
"299 725 CURVE SMOOTH",
"299 1076 OFFCURVE",
"487 1334 OFFCURVE",
"841 1334 CURVE SMOOTH",
"978 1334 OFFCURVE",
"1105 1283 OFFCURVE",
"1206 1206 CURVE",
"1285 1332 LINE",
"1175 1414 OFFCURVE",
"1042 1483 OFFCURVE",
"822 1483 CURVE SMOOTH",
"394 1483 OFFCURVE",
"116 1168 OFFCURVE",
"116 726 CURVE SMOOTH"
);
}
);
width = 1429;
}
);
unicode = 0043;
},
{
glyphname = D;
layers = (
{
anchors = (
{
name = center;
position = "{280, 773}";
},
{
name = top;
position = "{769, 1456}";
}
);
layerId = "9FF46155-5700-4CC7-A83F-22EBDC7BC473";
name = Regular;
paths = (
{
closed = 1;
nodes = (
"372 148 LINE",
"372 1308 LINE",
"536 1308 LINE SMOOTH",
"986 1308 OFFCURVE",
"1255 1170 OFFCURVE",
"1255 721 CURVE SMOOTH",
"1255 341 OFFCURVE",
"1018 148 OFFCURVE",
"633 148 CURVE SMOOTH"
);
},
{
closed = 1;
nodes = (
"200 0 LINE",
"617 0 LINE SMOOTH",
"1102 0 OFFCURVE",
"1437 241 OFFCURVE",
"1437 724 CURVE SMOOTH",
"1437 1273 OFFCURVE",
"1063 1456 OFFCURVE",
"515 1456 CURVE SMOOTH",
"200 1456 LINE"
);
}
);
width = 1553;
}
);
unicode = 0044;
},
{
glyphname = Eth;
layers = (
{
layerId = "9FF46155-5700-4CC7-A83F-22EBDC7BC473";
name = Regular;
paths = (
{
closed = 1;
nodes = (
"365 148 LINE",
"365 658 LINE",
"571 658 LINE",
"571 795 LINE",
"365 795 LINE",
"365 1308 LINE",
"529 1308 LINE SMOOTH",
"647 1308 OFFCURVE",
"750 1298 OFFCURVE",
"840 1278 CURVE SMOOTH",
"1107 1218 OFFCURVE",
"1248 1048 OFFCURVE",
"1248 721 CURVE SMOOTH",
"1248 638 OFFCURVE",
"1235 560 OFFCURVE",
"1210 490 CURVE SMOOTH",
"1131 268 OFFCURVE",
"929 148 OFFCURVE",
"626 148 CURVE SMOOTH"
);
},
{
closed = 1;
nodes = (
"193 0 LINE",
"610 0 LINE SMOOTH",
"739 0 OFFCURVE",
"854 17 OFFCURVE",
"956 51 CURVE SMOOTH",
"1234 144 OFFCURVE",
"1430 359 OFFCURVE",
"1430 724 CURVE SMOOTH",
"1430 1273 OFFCURVE",
"1056 1456 OFFCURVE",
"508 1456 CURVE SMOOTH",
"193 1456 LINE",
"193 795 LINE",
"-1 795 LINE",
"-1 658 LINE",
"193 658 LINE"
);
}
);
width = 1546;
}
);
unicode = 00D0;
},
{
glyphname = E;
layers = (
{
anchors = (
{
name = bottom;
position = "{682, 0}";
},
{
name = ogonek;
position = "{1091, 10}";
},
{
name = top;
position = "{669, 1456}";
}
);
layerId = "9FF46155-5700-4CC7-A83F-22EBDC7BC473";
name = Regular;
paths = (
{
closed = 1;
nodes = (
"200 0 LINE",
"1117 0 LINE",
"1117 148 LINE",
"372 148 LINE",
"372 672 LINE",
"1029 672 LINE",
"1029 820 LINE",
"372 820 LINE",
"372 1308 LINE",
"1067 1308 LINE",
"1067 1456 LINE",
"200 1456 LINE"
);
}
);
width = 1213;
}
);
unicode = 0045;
},
{
glyphname = F;
layers = (
{
layerId = "9FF46155-5700-4CC7-A83F-22EBDC7BC473";
name = Regular;
paths = (
{
closed = 1;
nodes = (
"200 0 LINE",
"372 0 LINE",
"372 667 LINE",
"1009 667 LINE",
"1009 815 LINE",
"372 815 LINE",
"372 1308 LINE",
"1043 1308 LINE",
"1043 1456 LINE",
"200 1456 LINE"
);
}
);
width = 1140;
}
);
unicode = 0046;
},
{
glyphname = G;
layers = (
{
anchors = (
{
name = bottom;
position = "{765, 0}";
},
{
name = top;
position = "{864, 1456}";
}
);
layerId = "9FF46155-5700-4CC7-A83F-22EBDC7BC473";
name = Regular;
paths = (
{
closed = 1;
nodes = (
"116 239 OFFCURVE",
"384 -22 OFFCURVE",
"849 -22 CURVE SMOOTH",
"1048 -22 OFFCURVE",
"1207 13 OFFCURVE",
"1352 81 CURVE",
"1352 757 LINE",
"819 757 LINE",
"819 608 LINE",
"1180 608 LINE",
"1180 171 LINE",
"1090 135 OFFCURVE",
"984 123 OFFCURVE",
"863 123 CURVE SMOOTH",
"492 123 OFFCURVE",
"294 344 OFFCURVE",
"294 714 CURVE SMOOTH",
"294 1069 OFFCURVE",
"499 1334 OFFCURVE",
"856 1334 CURVE SMOOTH",
"1028 1334 OFFCURVE",
"1163 1286 OFFCURVE",
"1255 1198 CURVE",
"1327 1315 LINE",
"1211 1431 OFFCURVE",
"1071 1483 OFFCURVE",
"860 1483 CURVE SMOOTH",
"396 1483 OFFCURVE",
"116 1165 OFFCURVE",
"116 701 CURVE SMOOTH"
);
}
);
width = 1530;
}
);
unicode = 0047;
},
{
glyphname = H;
layers = (
{
anchors = (
{
name = center;
position = "{773, 1164}";
},
{
name = top;
position = "{773, 1456}";
}
);
layerId = "9FF46155-5700-4CC7-A83F-22EBDC7BC473";
name = Regular;
paths = (
{
closed = 1;
nodes = (
"200 0 LINE",
"372 0 LINE",
"372 674 LINE",
"1174 674 LINE",
"1174 0 LINE",
"1345 0 LINE",
"1345 1456 LINE",
"1174 1456 LINE",
"1174 822 LINE",
"372 822 LINE",
"372 1456 LINE",
"200 1456 LINE"
);
}
);
width = 1545;
}
);
unicode = 0048;
},
{
glyphname = I;
layers = (
{
anchors = (
{
name = ogonek;
position = "{333, 10}";
},
{
name = top;
position = "{296, 1456}";
}
);
layerId = "9FF46155-5700-4CC7-A83F-22EBDC7BC473";
name = Regular;
paths = (
{
closed = 1;
nodes = (
"210 0 LINE",
"382 0 LINE",
"382 1456 LINE",
"210 1456 LINE"
);
}
);
width = 591;
}
);
unicode = 0049;
},
{
glyphname = J;
layers = (
{
anchors = (
{
name = top;
position = "{610, 1456}";
}
);
layerId = "9FF46155-5700-4CC7-A83F-22EBDC7BC473";
name = Regular;
paths = (
{
closed = 1;
nodes = (
"131 -169 OFFCURVE",
"250 -212 OFFCURVE",
"352 -212 CURVE SMOOTH",
"618 -212 OFFCURVE",
"755 -39 OFFCURVE",
"755 296 CURVE SMOOTH",
"755 1314 LINE",
"1027 1314 LINE",
"1027 1456 LINE",
"164 1456 LINE",
"164 1314 LINE",
"583 1314 LINE",
"583 294 LINE SMOOTH",
"583 68 OFFCURVE",
"499 -49 OFFCURVE",
"336 -49 CURVE SMOOTH",
"279 -49 OFFCURVE",
"189 -26 OFFCURVE",
"93 22 CURVE",
"41 -114 LINE"
);
}
);
width = 939;
}
);
unicode = 004A;
},
{
glyphname = K;
layers = (
{
anchors = (
{
name = bottom;
position = "{641, 0}";
},
{
name = top;
position = "{641, 1456}";
}
);
layerId = "9FF46155-5700-4CC7-A83F-22EBDC7BC473";
name = Regular;
paths = (
{
closed = 1;
nodes = (
"200 0 LINE",
"372 0 LINE",
"372 725 LINE",
"1050 0 LINE",
"1286 0 LINE",
"543 778 LINE",
"1232 1456 LINE",
"1016 1456 LINE",
"372 796 LINE",
"372 1456 LINE",
"200 1456 LINE"
);
}
);
width = 1284;
}
);
unicode = 004B;
},
{
glyphname = L;
layers = (
{
anchors = (
{
name = bottom;
position = "{617, 0}";
},
{
name = center;
position = "{294, 817}";
},
{
name = top;
position = "{558, 1456}";
}
);
layerId = "9FF46155-5700-4CC7-A83F-22EBDC7BC473";
name = Regular;
paths = (
{
closed = 1;
nodes = (
"200 0 LINE",
"1071 0 LINE",
"1071 148 LINE",
"372 148 LINE",
"372 1456 LINE",
"200 1456 LINE"
);
}
);
width = 1118;
}
);
unicode = 004C;
},
{
glyphname = Lslash;
layers = (
{
layerId = "9FF46155-5700-4CC7-A83F-22EBDC7BC473";
name = Regular;
paths = (
{
closed = 1;
nodes = (
"202 0 LINE",
"1073 0 LINE",
"1073 148 LINE",
"374 148 LINE",
"374 712 LINE",
"659 890 LINE",
"659 1027 LINE",
"374 849 LINE",
"374 1456 LINE",
"202 1456 LINE",
"202 742 LINE",
"15 626 LINE",
"15 489 LINE",
"202 605 LINE"
);
}
);
width = 1120;
}
);
unicode = 0141;
},
{
glyphname = M;
layers = (
{
anchors = (
{
name = top;
position = "{1016, 1456}";
}
);
layerId = "9FF46155-5700-4CC7-A83F-22EBDC7BC473";
name = Regular;
paths = (
{
closed = 1;
nodes = (
"200 0 LINE",
"370 0 LINE",
"370 1268 LINE",
"430 1108 LINE",
"934 0 LINE",
"1060 0 LINE",
"1560 1096 LINE",
"1628 1251 LINE",
"1628 0 LINE",
"1796 0 LINE",
"1796 1456 LINE",
"1562 1456 LINE",
"1084 419 LINE",
"999 212 LINE",
"913 416 LINE",
"438 1456 LINE",
"200 1456 LINE"
);
}
);
width = 1996;
}
);
unicode = 004D;
},
{
glyphname = N;
layers = (
{
anchors = (
{
name = bottom;
position = "{801, 0}";
},
{
name = top;
position = "{801, 1456}";
}
);
layerId = "9FF46155-5700-4CC7-A83F-22EBDC7BC473";
name = Regular;
paths = (
{
closed = 1;
nodes = (
"200 0 LINE",
"372 0 LINE",
"372 1237 LINE",
"444 1113 LINE",
"1194 0 LINE",
"1402 0 LINE",
"1402 1456 LINE",
"1231 1456 LINE",
"1231 215 LINE",
"1153 342 LINE",
"406 1456 LINE",
"200 1456 LINE"
);
}
);
width = 1602;
}
);
unicode = 004E;
},
{
glyphname = O;
layers = (
{
anchors = (
{
name = top;
position = "{831, 0}";
}
);
layerId = "9FF46155-5700-4CC7-A83F-22EBDC7BC473";
name = Regular;
paths = (
{
closed = 1;
nodes = (
"360 -25 OFFCURVE",
"116 336 OFFCURVE",
"116 728 CURVE SMOOTH",
"116 1122 OFFCURVE",
"360 1483 OFFCURVE",
"834 1483 CURVE SMOOTH",
"1308 1483 OFFCURVE",
"1552 1122 OFFCURVE",
"1552 728 CURVE SMOOTH",
"1552 336 OFFCURVE",
"1308 -25 OFFCURVE",
"834 -25 CURVE SMOOTH"
);
},
{
closed = 1;
nodes = (
"556 1334 OFFCURVE",
"300 1128 OFFCURVE",
"300 729 CURVE SMOOTH",
"300 330 OFFCURVE",
"556 124 OFFCURVE",
"834 124 CURVE SMOOTH",
"1112 124 OFFCURVE",
"1368 330 OFFCURVE",
"1368 729 CURVE SMOOTH",
"1368 1128 OFFCURVE",
"1112 1334 OFFCURVE",
"834 1334 CURVE SMOOTH"
);
}
);
width = 1662;
}
);
unicode = 004F;
},
{
glyphname = Oslash;
layers = (
{
anchors = (
{
name = top;
position = "{832, 1456}";
}
);
components = (
{
name = O;
transform = "{1, 0, 0, 1, 0, 0}";
}
);
layerId = "9FF46155-5700-4CC7-A83F-22EBDC7BC473";
name = Regular;
paths = (
{
closed = 1;
nodes = (
"521 -165 LINE",
"1262 1581 LINE",
"1137 1625 LINE",
"400 -121 LINE"
);
}
);
width = 1663;
}
);
unicode = 00D8;
},
{
glyphname = OE;
layers = (
{
anchors = (
{
name = top;
position = "{1050, 0}";
}
);
layerId = "9FF46155-5700-4CC7-A83F-22EBDC7BC473";
name = Regular;
paths = (
{
closed = 1;
nodes = (
"114 287.812 OFFCURVE",
"351.547 -23 OFFCURVE",
"829 -23 CURVE SMOOTH",
"970 -23 OFFCURVE",
"1070 32 OFFCURVE",
"1151 105 CURVE",
"1151 0 LINE",
"1984 0 LINE",
"1984 148 LINE",
"1323 148 LINE",
"1323 672 LINE",
"1916 672 LINE",
"1916 820 LINE",
"1323 820 LINE",
"1323 1308 LINE",
"1954 1308 LINE",
"1954 1456 LINE",
"1151 1456 LINE",
"1151 1381 LINE",
"1069 1439 OFFCURVE",
"968 1483 OFFCURVE",
"837 1483 CURVE SMOOTH",
"400.947 1483 OFFCURVE",
"114 1208.31 OFFCURVE",
"114 729 CURVE SMOOTH"
);
},
{
closed = 1;
nodes = (
"1075 186 OFFCURVE",
"973 125 OFFCURVE",
"827 125 CURVE SMOOTH",
"492.335 125 OFFCURVE",
"298 356.1 OFFCURVE",
"298 725 CURVE SMOOTH",
"298 1081.83 OFFCURVE",
"466.915 1335 OFFCURVE",
"830 1335 CURVE SMOOTH",
"972 1335 OFFCURVE",
"1072 1288 OFFCURVE",
"1151 1219 CURVE",
"1151 265 LINE"
);
}
);
width = 2099;
}
);
unicode = 0152;
},
{
glyphname = P;
layers = (
{
layerId = "9FF46155-5700-4CC7-A83F-22EBDC7BC473";
name = Regular;
paths = (
{
closed = 1;
nodes = (
"200 0 LINE",
"372 0 LINE",
"372 587 LINE",
"614 587 LINE SMOOTH",
"999 587 OFFCURVE",
"1197 734 OFFCURVE",
"1197 1020 CURVE SMOOTH",
"1197 1316 OFFCURVE",
"1021 1456 OFFCURVE",
"589 1456 CURVE SMOOTH",
"200 1456 LINE"
);
},
{
closed = 1;
nodes = (
"372 736 LINE",
"372 1308 LINE",
"613 1308 LINE SMOOTH",
"904 1308 OFFCURVE",
"1013 1215 OFFCURVE",
"1013 1018 CURVE SMOOTH",
"1013 832 OFFCURVE",
"884 736 OFFCURVE",
"633 736 CURVE SMOOTH"
);
}
);
width = 1271;
}
);
unicode = 0050;
},
{
glyphname = Thorn;
layers = (
{
layerId = "9FF46155-5700-4CC7-A83F-22EBDC7BC473";
name = Regular;
paths = (
{
closed = 1;
nodes = (
"203 0 LINE",
"375 0 LINE",
"375 443 LINE",
"597 443 LINE SMOOTH",
"764 443 OFFCURVE",
"913 480 OFFCURVE",
"1018 546 CURVE SMOOTH",
"1121 611 OFFCURVE",
"1200 714 OFFCURVE",
"1200 876 CURVE SMOOTH",
"1200 1231 OFFCURVE",
"899 1312 OFFCURVE",
"544 1312 CURVE SMOOTH",
"375 1312 LINE",
"375 1456 LINE",
"203 1456 LINE"
);
},
{
closed = 1;
nodes = (
"375 592 LINE",
"375 1164 LINE",
"588 1164 LINE SMOOTH",
"828 1164 OFFCURVE",
"1016 1114 OFFCURVE",
"1016 874 CURVE SMOOTH",
"1016 825 OFFCURVE",
"1007 782 OFFCURVE",
"988 747 CURVE SMOOTH",
"930 639 OFFCURVE",
"802 592 OFFCURVE",
"636 592 CURVE SMOOTH"
);
}
);
width = 1274;
}
);
unicode = 00DE;
},
{
glyphname = Q;
layers = (
{
layerId = "9FF46155-5700-4CC7-A83F-22EBDC7BC473";
name = Regular;
paths = (
{
closed = 1;
nodes = (
"1007 -176 OFFCURVE",
"1116 -305 OFFCURVE",
"1233 -422 CURVE",
"1345 -304 LINE",
"1247 -213 OFFCURVE",
"1159 -110 OFFCURVE",
"1096 20 CURVE",
"1359 124 OFFCURVE",
"1540 374 OFFCURVE",
"1540 736 CURVE SMOOTH",
"1540 1183 OFFCURVE",
"1282 1483 OFFCURVE",
"834 1483 CURVE SMOOTH",
"389 1483 OFFCURVE",
"116 1183 OFFCURVE",
"116 736 CURVE SMOOTH",
"116 282 OFFCURVE",
"373 -22 OFFCURVE",
"826 -22 CURVE SMOOTH",
"864 -22 OFFCURVE",
"900 -19 OFFCURVE",
"931 -13 CURVE"
);
},
{
closed = 1;
nodes = (
"1352 382 OFFCURVE",
"1182 123 OFFCURVE",
"827 123 CURVE SMOOTH",
"481 123 OFFCURVE",
"295 389 OFFCURVE",
"295 736 CURVE SMOOTH",
"295 1081 OFFCURVE",
"481 1334 OFFCURVE",
"827 1334 CURVE SMOOTH",
"1178 1334 OFFCURVE",
"1352 1087 OFFCURVE",
"1352 736 CURVE SMOOTH"
);
}
);
width = 1661;
}
);
unicode = 0051;
},
{
glyphname = R;
layers = (
{
anchors = (
{
name = bottom;
position = "{685, 0}";
},
{
name = top;
position = "{685, 1456}";
}
);
layerId = "9FF46155-5700-4CC7-A83F-22EBDC7BC473";
name = Regular;
paths = (
{
closed = 1;
nodes = (
"200 0 LINE",
"372 0 LINE",
"372 652 LINE",
"642 652 LINE SMOOTH",
"838 652 OFFCURVE",
"888 564 OFFCURVE",
"941 419 CURVE SMOOTH",
"1094 0 LINE",
"1282 0 LINE",
"1119 410 LINE SMOOTH",
"1065 546 OFFCURVE",
"1020 670 OFFCURVE",
"884 715 CURVE",
"1050 758 OFFCURVE",
"1194 867 OFFCURVE",
"1194 1074 CURVE SMOOTH",
"1194 1410 OFFCURVE",
"891 1456 OFFCURVE",
"556 1456 CURVE SMOOTH",
"200 1456 LINE"
);
},
{
closed = 1;
nodes = (
"372 799 LINE",
"372 1308 LINE",
"649 1308 LINE SMOOTH",
"852 1308 OFFCURVE",
"1012 1261 OFFCURVE",
"1012 1058 CURVE SMOOTH",
"1012 859 OFFCURVE",
"835 799 OFFCURVE",
"638 799 CURVE SMOOTH"
);
}
);
width = 1372;
}
);
unicode = 0052;
},
{
glyphname = S;
layers = (
{
anchors = (
{
name = bottom;
position = "{622, 0}";
},
{
name = top;
position = "{640, 1456}";
}
);
layerId = "9FF46155-5700-4CC7-A83F-22EBDC7BC473";
name = Regular;
paths = (
{
closed = 1;
nodes = (
"280 35 OFFCURVE",
"486 -22 OFFCURVE",
"664 -22 CURVE SMOOTH",
"990 -22 OFFCURVE",
"1135 166 OFFCURVE",
"1135 395 CURVE SMOOTH",
"1135 578 OFFCURVE",
"1052 709 OFFCURVE",
"676 817 CURVE SMOOTH",
"370 905 OFFCURVE",
"318 983 OFFCURVE",
"324 1120 CURVE SMOOTH",
"330 1262 OFFCURVE",
"441 1334 OFFCURVE",
"656 1334 CURVE SMOOTH",
"780 1334 OFFCURVE",
"921 1288 OFFCURVE",
"1033 1218 CURVE",
"1085 1359 LINE",
"930 1456 OFFCURVE",
"773 1483 OFFCURVE",
"636 1483 CURVE SMOOTH",
"344 1483 OFFCURVE",
"145 1339 OFFCURVE",
"141 1109 CURVE SMOOTH",
"137 902 OFFCURVE",
"224 769 OFFCURVE",
"566 671 CURVE SMOOTH",
"911 572 OFFCURVE",
"951 500 OFFCURVE",
"951 401 CURVE SMOOTH",
"951 230 OFFCURVE",
"855 123 OFFCURVE",
"649 123 CURVE SMOOTH",
"503 123 OFFCURVE",
"305 187 OFFCURVE",
"174 289 CURVE",
"146 123 LINE"
);
}
);
width = 1244;
}
);
unicode = 0053;
},
{
glyphname = T;
layers = (
{
anchors = (
{
name = bottom;
position = "{587, 0}";
},
{
name = center;
position = "{587, 811}";
},
{
name = top;
position = "{587, 1456}";
}
);
layerId = "9FF46155-5700-4CC7-A83F-22EBDC7BC473";
name = Regular;
paths = (
{
closed = 1;
nodes = (
"501 0 LINE",
"673 0 LINE",
"673 1308 LINE",
"1145 1308 LINE",
"1145 1456 LINE",
"32 1456 LINE",
"32 1308 LINE",
"501 1308 LINE"
);
}
);
width = 1174;
}
);
unicode = 0054;
},
{
glyphname = U;
layers = (
{
anchors = (
{
name = ogonek;
position = "{848, 10}";
},
{
name = top;
position = "{766, 1456}";
}
);
layerId = "9FF46155-5700-4CC7-A83F-22EBDC7BC473";
name = Regular;
paths = (
{
closed = 1;
nodes = (
"191 157 OFFCURVE",
"392 -22 OFFCURVE",
"776 -22 CURVE SMOOTH",
"1138 -22 OFFCURVE",
"1334 191 OFFCURVE",
"1336 551 CURVE",
"1336 1456 LINE",
"1165 1456 LINE",
"1165 539 LINE SMOOTH",
"1165 279 OFFCURVE",
"1026 123 OFFCURVE",
"774 123 CURVE SMOOTH",
"502 123 OFFCURVE",
"363 260 OFFCURVE",
"363 546 CURVE SMOOTH",
"363 1456 LINE",
"191 1456 LINE",
"191 541 LINE SMOOTH"
);
}
);
width = 1532;
}
);
unicode = 0055;
},
{
glyphname = V;
layers = (
{
layerId = "9FF46155-5700-4CC7-A83F-22EBDC7BC473";
name = Regular;
paths = (
{
closed = 1;
nodes = (
"570 1 LINE",
"759 1 LINE",
"1324 1456 LINE",
"1145 1456 LINE",
"718 306 LINE",
"670 166 LINE",
"624 307 LINE",
"201 1456 LINE",
"9 1456 LINE"
);
}
);
width = 1336;
}
);
unicode = 0056;
},
{
glyphname = W;
layers = (
{
anchors = (
{
name = top;
position = "{1052, 1456}";
}
);
layerId = "9FF46155-5700-4CC7-A83F-22EBDC7BC473";
name = Regular;
paths = (
{
closed = 1;
nodes = (
"1445 0 LINE",
"1657 0 LINE",
"2080 1456 LINE",
"1900 1456 LINE",
"1595 349 LINE",
"1553 190 LINE",
"1507 345 LINE",
"1148 1456 LINE",
"967 1456 LINE",
"605 349 LINE",
"555 189 LINE",
"517 349 LINE",
"207 1456 LINE",
"21 1456 LINE",
"444 1 LINE",
"657 1 LINE",
"1052 1247 LINE"
);
}
);
width = 2103;
}
);
unicode = 0057;
},
{
glyphname = X;
layers = (
{
layerId = "9FF46155-5700-4CC7-A83F-22EBDC7BC473";
name = Regular;
paths = (
{
closed = 1;
nodes = (
"11 0 LINE",
"215 0 LINE",
"646 630 LINE",
"1072 0 LINE",
"1285 0 LINE",
"764 742 LINE",
"1275 1456 LINE",
"1079 1456 LINE",
"662 854 LINE",
"263 1456 LINE",
"47 1456 LINE",
"548 741 LINE"
);
}
);
width = 1304;
}
);
unicode = 0058;
},
{
glyphname = Y;
layers = (
{
anchors = (
{
name = top;
position = "{633, 1456}";
}
);
layerId = "9FF46155-5700-4CC7-A83F-22EBDC7BC473";
name = Regular;
paths = (
{
closed = 1;
nodes = (
"543 0 LINE",
"715 0 LINE",
"715 585 LINE",
"1258 1456 LINE",
"1067 1456 LINE",
"632 727 LINE",
"201 1456 LINE",
"10 1456 LINE",
"543 582 LINE"
);
}
);
width = 1266;
}
);
unicode = 0059;
},
{
glyphname = Z;
layers = (
{
anchors = (
{
name = top;
position = "{671, 1456}";
}
);
layerId = "9FF46155-5700-4CC7-A83F-22EBDC7BC473";
name = Regular;
paths = (
{
closed = 1;
nodes = (
"58 0 LINE",
"1146 0 LINE",
"1146 148 LINE",
"286 148 LINE",
"1154 1368 LINE",
"1154 1456 LINE",
"90 1456 LINE",
"90 1308 LINE",
"922 1308 LINE",
"58 92 LINE"
);
}
);
width = 1222;
}
);
unicode = 005A;
},
{
glyphname = a;
layers = (
{
anchors = (
{
name = ogonek;
position = "{1090, 23}";
},
{
name = top;
position = "{643, 1026}";
}
);
layerId = "9FF46155-5700-4CC7-A83F-22EBDC7BC473";
name = Regular;
paths = (
{
closed = 1;
nodes = (
"114 161 OFFCURVE",
"278 -22 OFFCURVE",
"519 -22 CURVE SMOOTH",
"641 -22 OFFCURVE",
"788 13 OFFCURVE",
"881 166 CURVE",
"908 46 OFFCURVE",
"1026 -4 OFFCURVE",
"1113 -4 CURVE",
"1147 139 LINE",
"1095 139 OFFCURVE",
"1022 170 OFFCURVE",
"1022 286 CURVE SMOOTH",
"1022 962 LINE",
"918 1024 OFFCURVE",
"795 1048 OFFCURVE",
"671 1048 CURVE SMOOTH",
"339 1048 OFFCURVE",
"114 806 OFFCURVE",
"114 438 CURVE SMOOTH"
);
},
{
closed = 1;
nodes = (
"858 226 OFFCURVE",
"702 116 OFFCURVE",
"544 116 CURVE SMOOTH",
"388 116 OFFCURVE",
"284 249 OFFCURVE",
"284 448 CURVE SMOOTH",
"284 725 OFFCURVE",
"438 907 OFFCURVE",
"668 907 CURVE SMOOTH",
"724 907 OFFCURVE",
"803 899 OFFCURVE",
"858 872 CURVE",
"858 403 LINE SMOOTH"
);
}
);
width = 1218;
}
);
unicode = 0061;
},
{
glyphname = ae;
layers = (
{
anchors = (
{
name = top;
position = "{904, 0}";
}
);
layerId = "9FF46155-5700-4CC7-A83F-22EBDC7BC473";
name = Regular;
paths = (
{
closed = 1;
nodes = (
"81 92 OFFCURVE",
"222 -22 OFFCURVE",
"441 -22 CURVE SMOOTH",
"661 -22 OFFCURVE",
"785 95 OFFCURVE",
"853 230 CURVE",
"898 80 OFFCURVE",
"1044 -22 OFFCURVE",
"1232 -22 CURVE SMOOTH",
"1446 -22 OFFCURVE",
"1582 65 OFFCURVE",
"1664 206 CURVE",
"1577 292 LINE",
"1511 193 OFFCURVE",
"1397 115 OFFCURVE",
"1242 115 CURVE SMOOTH",
"1029 115 OFFCURVE",
"941 253 OFFCURVE",
"941 463 CURVE SMOOTH",
"941 468 OFFCURVE",
"942 485 OFFCURVE",
"942 489 CURVE",
"1697 489 LINE",
"1697 524 LINE SMOOTH",
"1697 845 OFFCURVE",
"1543 1048 OFFCURVE",
"1251 1048 CURVE SMOOTH",
"1084 1048 OFFCURVE",
"933 941 OFFCURVE",
"877 806 CURVE",
"835 956 OFFCURVE",
"716.028 1048 OFFCURVE",
"550 1048 CURVE SMOOTH",
"353 1048 OFFCURVE",
"217 985 OFFCURVE",
"148 856 CURVE",
"238 763 LINE",
"298 864 OFFCURVE",
"391 907 OFFCURVE",
"540 907 CURVE SMOOTH",
"706 907 OFFCURVE",
"771 793 OFFCURVE",
"771 628 CURVE SMOOTH",
"771 605 LINE",
"443 605 OFFCURVE",
"81 611 OFFCURVE",
"81 282 CURVE SMOOTH"
);
},
{
closed = 1;
nodes = (
"773 272 OFFCURVE",
"684 115 OFFCURVE",
"464 115 CURVE SMOOTH",
"337 115 OFFCURVE",
"250 163 OFFCURVE",
"250 290 CURVE SMOOTH",
"250 461.258 OFFCURVE",
"441.619 480.741 OFFCURVE",
"627 486 CURVE",
"773 489 LINE"
);
},
{
closed = 1;
nodes = (
"943 606 LINE",
"954.616 760.876 OFFCURVE",
"1054.51 907 OFFCURVE",
"1250 907 CURVE SMOOTH",
"1440 907 OFFCURVE",
"1517 780 OFFCURVE",
"1534 606 CURVE"
);
}
);
width = 1807;
}
);
unicode = 00E6;
},
{
glyphname = b;
layers = (
{
layerId = "9FF46155-5700-4CC7-A83F-22EBDC7BC473";
name = Regular;
paths = (
{
closed = 1;
nodes = (
"152 71 OFFCURVE",
"369 -22 OFFCURVE",
"612 -22 CURVE SMOOTH",
"929 -22 OFFCURVE",
"1120 215 OFFCURVE",
"1120 545 CURVE SMOOTH",
"1120 849 OFFCURVE",
"979 1048 OFFCURVE",
"685 1048 CURVE SMOOTH",
"557 1048 OFFCURVE",
"397 1000 OFFCURVE",
"317 851 CURVE",
"317 1525 LINE",
"152 1495 LINE",
"152 71 LINE"
);
},
{
closed = 1;
nodes = (
"950 319 OFFCURVE",
"848 116 OFFCURVE",
"615 116 CURVE SMOOTH",
"461 116 OFFCURVE",
"317 156 OFFCURVE",
"317 156 CURVE",
"317 515 LINE SMOOTH",
"317 736 OFFCURVE",
"458 907 OFFCURVE",
"680 907 CURVE SMOOTH",
"884 907 OFFCURVE",
"950 756 OFFCURVE",
"950 550 CURVE SMOOTH"
);
}
);
width = 1210;
}
);
unicode = 0062;
},
{
glyphname = c;
lastChange = "2013-01-24 19:01:57 -0800";
layers = (
{
anchors = (
{
name = bottom;
position = "{646, 0}";
},
{
name = top;
position = "{611, 1026}";
}
);
guideLines = (
{
angle = 0;
position = "{1062, 907}";
},
{
angle = 0;
position = "{826, 116}";
}
);
layerId = "9FF46155-5700-4CC7-A83F-22EBDC7BC473";
name = Regular;
paths = (
{
closed = 1;
nodes = (
"90 157 OFFCURVE",
"353 -22 OFFCURVE",
"634 -22 CURVE SMOOTH",
"774 -22 OFFCURVE",
"918 22 OFFCURVE",
"1037 112 CURVE",
"976 238 LINE",
"888 160 OFFCURVE",
"768 119 OFFCURVE",
"651 119 CURVE SMOOTH",
"450 119 OFFCURVE",
"260 241 OFFCURVE",
"260 508 CURVE SMOOTH",
"260 766 OFFCURVE",
"455 906 OFFCURVE",
"656 906 CURVE SMOOTH",
"757 906 OFFCURVE",
"860 871 OFFCURVE",
"941 799 CURVE",
"1004 912 LINE",
"901 1005 OFFCURVE",
"770 1049 OFFCURVE",
"640 1049 CURVE SMOOTH",
"364 1049 OFFCURVE",
"90 852 OFFCURVE",
"90 503 CURVE SMOOTH"
);
}
);
width = 1019;
}
);
unicode = 0063;
},
{
glyphname = d;
layers = (
{
anchors = (
{
name = center;
position = "{985, 1294}";
}
);
layerId = "9FF46155-5700-4CC7-A83F-22EBDC7BC473";
name = Regular;
paths = (
{
closed = 1;
nodes = (
"90 186 OFFCURVE",
"278 -22 OFFCURVE",
"561 -22 CURVE SMOOTH",
"722 -22 OFFCURVE",
"859 52 OFFCURVE",
"919 177 CURVE",
"923 111 OFFCURVE",
"959 32 OFFCURVE",
"997 -13 CURVE",
"1159 10 LINE",
"1114 76 OFFCURVE",
"1071 162 OFFCURVE",
"1071 390 CURVE SMOOTH",
"1071 1526 LINE",
"906 1506 LINE",
"906 917 LINE",
"796 1011 OFFCURVE",
"693 1048 OFFCURVE",
"561 1048 CURVE SMOOTH",
"252 1048 OFFCURVE",
"90 810 OFFCURVE",
"90 501 CURVE SMOOTH"
);
},
{
closed = 1;
nodes = (
"907 296 OFFCURVE",
"818 116 OFFCURVE",
"579 116 CURVE SMOOTH",
"391 116 OFFCURVE",
"260 274 OFFCURVE",
"260 507 CURVE SMOOTH",
"260 732 OFFCURVE",
"359 907 OFFCURVE",
"585 907 CURVE SMOOTH",
"704 907 OFFCURVE",
"832 844 OFFCURVE",
"907 744 CURVE",
"907 534 LINE"
);
}
);
width = 1226;
}
);
unicode = 0064;
},
{
glyphname = eth;
layers = (
{
layerId = "9FF46155-5700-4CC7-A83F-22EBDC7BC473";
name = Regular;
paths = (
{
closed = 1;
nodes = (
"189 93 OFFCURVE",
"347 -23 OFFCURVE",
"581 -23 CURVE SMOOTH",
"662 -23 OFFCURVE",
"734 -8 OFFCURVE",
"798 22 CURVE SMOOTH",
"1006 121 OFFCURVE",
"1093 361 OFFCURVE",
"1093 672 CURVE SMOOTH",
"1093 805 OFFCURVE",
"1075 921 OFFCURVE",
"1045 1026 CURVE",
"1190 1026 LINE",
"1190 1163 LINE",
"993 1163 LINE",
"920 1315 OFFCURVE",
"812 1428 OFFCURVE",
"653 1490 CURVE",
"574 1406 LINE",
"684 1344 OFFCURVE",
"766 1271 OFFCURVE",
"826 1163 CURVE",
"620 1163 LINE",
"620 1026 LINE",
"882 1026 LINE",
"906 937 OFFCURVE",
"917 847 OFFCURVE",
"918 733 CURVE",
"918 723 LINE",
"846 838 OFFCURVE",
"725 897 OFFCURVE",
"545 897 CURVE SMOOTH",
"475 897 OFFCURVE",
"412 886 OFFCURVE",
"356 864 CURVE SMOOTH",
"199 802 OFFCURVE",
"88 662 OFFCURVE",
"88 446 CURVE SMOOTH",
"88 380 OFFCURVE",
"99 318 OFFCURVE",
"122 261 CURVE SMOOTH"
);
},
{
closed = 1;
nodes = (
"903 290 OFFCURVE",
"798 118 OFFCURVE",
"573 118 CURVE SMOOTH",
"526 118 OFFCURVE",
"484 126 OFFCURVE",
"446 142 CURVE SMOOTH",
"339 188 OFFCURVE",
"264 291 OFFCURVE",
"264 441 CURVE SMOOTH",
"264 638 OFFCURVE",
"373 757 OFFCURVE",
"572 757 CURVE SMOOTH",
"742 757 OFFCURVE",
"859 664 OFFCURVE",
"903 536 CURVE",
"903 512 LINE SMOOTH"
);
}
);
width = 1190;
}
);
unicode = 00F0;
},
{
glyphname = e;
layers = (
{
anchors = (
{
name = bottom;
position = "{621, 0}";
},
{
name = ogonek;
position = "{776, 46}";
},
{
name = top;
position = "{562, 1026}";
}
);
layerId = "9FF46155-5700-4CC7-A83F-22EBDC7BC473";
name = Regular;
paths = (
{
closed = 1;
nodes = (
"90 187 OFFCURVE",
"293 -22 OFFCURVE",
"597 -22 CURVE SMOOTH",
"757 -22 OFFCURVE",
"909 43 OFFCURVE",
"1009 146 CURVE",
"926 252 LINE",
"859 176 OFFCURVE",
"736 116 OFFCURVE",
"597 116 CURVE SMOOTH",
"449 116 OFFCURVE",
"325 219 OFFCURVE",
"285 371 CURVE",
"651 425 OFFCURVE",
"942 506 OFFCURVE",
"942 751 CURVE SMOOTH",
"942 918 OFFCURVE",
"804 1048 OFFCURVE",
"588 1048 CURVE SMOOTH",
"259 1048 OFFCURVE",
"90 797 OFFCURVE",
"90 516 CURVE SMOOTH"
);
},
{
closed = 1;
nodes = (
"779 594 OFFCURVE",
"559 534 OFFCURVE",
"273 490 CURVE",
"271 506 OFFCURVE",
"270 525 OFFCURVE",
"270 539 CURVE SMOOTH",
"270 786 OFFCURVE",
"423 907 OFFCURVE",
"589 907 CURVE SMOOTH",
"710 907 OFFCURVE",
"779 846 OFFCURVE",
"779 755 CURVE SMOOTH"
);
}
);
width = 1070;
}
);
unicode = 0065;
},
{
glyphname = f;
layers = (
{
layerId = "9FF46155-5700-4CC7-A83F-22EBDC7BC473";
name = Regular;
paths = (
{
closed = 1;
nodes = (
"91 -449 LINE",
"330 -418 OFFCURVE",
"417 -261 OFFCURVE",
"417 -11 CURVE SMOOTH",
"417 919 LINE",
"665 919 LINE",
"665 1026 LINE",
"417 1026 LINE",
"417 1193 LINE SMOOTH",
"417 1344 OFFCURVE",
"467 1409 OFFCURVE",
"584 1409 CURVE SMOOTH",
"620 1409 OFFCURVE",
"658 1401 OFFCURVE",
"695 1392 CURVE",
"719 1499 LINE",
"655 1521 OFFCURVE",
"595 1532 OFFCURVE",
"541 1532 CURVE SMOOTH",
"339 1532 OFFCURVE",
"253 1423 OFFCURVE",
"253 1170 CURVE SMOOTH",
"253 1026 LINE",
"51 1026 LINE",
"51 919 LINE",
"253 919 LINE",
"253 -34 LINE SMOOTH",
"253 -194 OFFCURVE",
"190 -299 OFFCURVE",
"70 -328 CURVE"
);
}
);
width = 699;
}
);
unicode = 0066;
},
{
glyphname = g;
layers = (
{
anchors = (
{
name = top;
position = "{639, 1026}";
}
);
layerId = "9FF46155-5700-4CC7-A83F-22EBDC7BC473";
name = Regular;
paths = (
{
closed = 1;
nodes = (
"290 -440 OFFCURVE",
"424 -464 OFFCURVE",
"517 -464 CURVE SMOOTH",
"866 -464 OFFCURVE",
"1016 -294 OFFCURVE",
"1016 104 CURVE SMOOTH",
"1016 954 LINE",
"912 1016 OFFCURVE",
"788 1048 OFFCURVE",
"664 1048 CURVE SMOOTH",
"327 1048 OFFCURVE",
"97 800 OFFCURVE",
"97 422 CURVE SMOOTH",
"97 155 OFFCURVE",
"262 -22 OFFCURVE",
"503 -22 CURVE SMOOTH",
"625 -22 OFFCURVE",
"764 38 OFFCURVE",
"851 129 CURVE",
"851 6 LINE SMOOTH",
"851 -227 OFFCURVE",
"747 -327 OFFCURVE",
"503 -327 CURVE SMOOTH",
"414 -327 OFFCURVE",
"292 -296 OFFCURVE",
"200 -250 CURVE",
"181 -403 LINE"
);
},
{
closed = 1;
nodes = (
"760 185 OFFCURVE",
"633 116 OFFCURVE",
"535 116 CURVE SMOOTH",
"372 116 OFFCURVE",
"267 243 OFFCURVE",
"267 431 CURVE SMOOTH",
"267 718 OFFCURVE",
"423 907 OFFCURVE",
"662 907 CURVE SMOOTH",
"718 907 OFFCURVE",
"798 899 OFFCURVE",
"852 872 CURVE",
"852 287 LINE"
);
}
);
width = 1143;
}
);
unicode = 0067;
},
{
glyphname = h;
layers = (
{
anchors = (
{
name = center;
position = "{228, 1200}";
},
{
name = top;
position = "{617, 1467}";
}
);
layerId = "9FF46155-5700-4CC7-A83F-22EBDC7BC473";
name = Regular;
paths = (
{
closed = 1;
nodes = (
"866 103 OFFCURVE",
"944 -22 OFFCURVE",
"1141 -25 CURVE",
"1167 106 LINE",
"1063 127 OFFCURVE",
"1030 209 OFFCURVE",
"1031 357 CURVE",
"1033 565 LINE SMOOTH",
"1036 856 OFFCURVE",
"939 1048 OFFCURVE",
"666 1048 CURVE SMOOTH",
"516 1048 OFFCURVE",
"384 984 OFFCURVE",
"315 868 CURVE",
"316 567 LINE",
"316 772 OFFCURVE",
"480 908 OFFCURVE",
"628 908 CURVE SMOOTH",
"839 908 OFFCURVE",
"868 767 OFFCURVE",
"868 562 CURVE",
"866 352 LINE",
"866 346 LINE SMOOTH"
);
},
{
closed = 1;
nodes = (
"152 0 LINE",
"316 0 LINE",
"316 1526 LINE",
"152 1506 LINE"
);
}
);
width = 1224;
}
);
unicode = 0068;
},
{
glyphname = i;
lastChange = "2013-01-24 19:08:58 -0800";
layers = (
{
layerId = "9FF46155-5700-4CC7-A83F-22EBDC7BC473";
name = Regular;
paths = (
{
closed = 1;
nodes = (
"167 -19 OFFCURVE",
"420 -67 OFFCURVE",
"652 28 CURVE",
"622 145 LINE",
"486 96 OFFCURVE",
"331 74 OFFCURVE",
"331 267 CURVE SMOOTH",
"331 1026 LINE",
"167 1026 LINE",
"167 262 LINE SMOOTH"
);
},
{
closed = 1;
nodes = (
"144 1279 OFFCURVE",
"197 1245 OFFCURVE",
"251 1245 CURVE SMOOTH",
"305 1245 OFFCURVE",
"359 1278 OFFCURVE",
"359 1344 CURVE SMOOTH",
"359 1410 OFFCURVE",
"306 1444 OFFCURVE",
"252 1444 CURVE SMOOTH",
"198 1444 OFFCURVE",
"144 1411 OFFCURVE",
"144 1345 CURVE SMOOTH"
);
}
);
width = 603;
}
);
unicode = 0069;
},
{
glyphname = dotlessi;
layers = (
{
anchors = (
{
name = ogonek;
position = "{453, 10}";
},
{
name = top;
position = "{252, 1026}";
}
);
layerId = "9FF46155-5700-4CC7-A83F-22EBDC7BC473";
name = Regular;
paths = (
{
closed = 1;
nodes = (
"167 67 OFFCURVE",
"292 -5 OFFCURVE",
"434 -5 CURVE SMOOTH",
"481 -5 OFFCURVE",
"550 10 OFFCURVE",
"600 30 CURVE",
"580 141 LINE",
"545 128 OFFCURVE",
"487 118 OFFCURVE",
"457 118 CURVE SMOOTH",
"389 118 OFFCURVE",
"332 143 OFFCURVE",
"332 283 CURVE",
"332 1026 LINE",
"167 1026 LINE",
"167 278 LINE SMOOTH"
);
}
);
width = 503;
}
);
unicode = 0131;
},
{
glyphname = j;
layers = (
{
layerId = "9FF46155-5700-4CC7-A83F-22EBDC7BC473";
name = Regular;
paths = (
{
closed = 1;
nodes = (
"-47 -454 OFFCURVE",
"11 -465 OFFCURVE",
"64 -465 CURVE SMOOTH",
"253 -465 OFFCURVE",
"371 -332 OFFCURVE",
"371 4 CURVE SMOOTH",
"371 1026 LINE",
"207 1026 LINE",
"207 -2 LINE SMOOTH",
"207 -254 OFFCURVE",
"133 -330 OFFCURVE",
"21 -330 CURVE SMOOTH",
"-13 -330 OFFCURVE",
"-51 -323 OFFCURVE",
"-91 -312 CURVE",
"-110 -435 LINE"
);
},
{
closed = 1;
nodes = (
"183 1279 OFFCURVE",
"236 1245 OFFCURVE",
"290 1245 CURVE SMOOTH",
"344 1245 OFFCURVE",
"398 1278 OFFCURVE",
"398 1344 CURVE SMOOTH",
"398 1410 OFFCURVE",
"345 1444 OFFCURVE",
"291 1444 CURVE SMOOTH",
"237 1444 OFFCURVE",
"183 1411 OFFCURVE",
"183 1345 CURVE SMOOTH"
);
}
);
width = 539;
}
);
unicode = 006A;
},
{
glyphname = uni0237;
layers = (
{
anchors = (
{
name = top;
position = "{252, 1026}";
}
);
layerId = "9FF46155-5700-4CC7-A83F-22EBDC7BC473";
name = Regular;
paths = (
{
closed = 1;
nodes = (
"-63 -425 OFFCURVE",
"-23 -429 OFFCURVE",
"21 -429 CURVE SMOOTH",
"67 -429 OFFCURVE",
"106 -422 OFFCURVE",
"140 -407 CURVE SMOOTH",
"296 -339 OFFCURVE",
"340 -150 OFFCURVE",
"340 73 CURVE SMOOTH",
"340 1026 LINE",
"175 1026 LINE",
"175 31 LINE SMOOTH",
"175 -146 OFFCURVE",
"138 -283 OFFCURVE",
"-18 -283 CURVE SMOOTH",
"-48 -283 OFFCURVE",
"-72 -278 OFFCURVE",
"-102 -273 CURVE",
"-101 -416 LINE"
);
}
);
width = 503;
}
);
unicode = 0237;
},
{
glyphname = k;
lastChange = "2013-01-24 18:59:25 -0800";
layers = (
{
anchors = (
{
name = bottom;
position = "{587, 0}";
}
);
layerId = "9FF46155-5700-4CC7-A83F-22EBDC7BC473";
name = Regular;
paths = (
{
closed = 1;
nodes = (
"848 55 OFFCURVE",
"960 -16 OFFCURVE",
"1064 -35 CURVE",
"1153 89 LINE",
"1050 88 OFFCURVE",
"962 158 OFFCURVE",
"891 270 CURVE SMOOTH",
"694 580 LINE",
"981 976 LINE",
"832 1026 LINE",
"316 308 LINE",
"316 1526 LINE",
"152 1496 LINE",
"152 60 LINE",
"152 -26 OFFCURVE",
"243 -39 OFFCURVE",
"297 27 CURVE",
"602 445 LINE",
"763 189 LINE SMOOTH"
);
}
);
width = 1107;
}
);
unicode = 006B;
},
{
glyphname = kgreenlandic;
layers = (
{
layerId = "9FF46155-5700-4CC7-A83F-22EBDC7BC473";
name = Regular;
paths = (
{
closed = 1;
nodes = (
"178 0 LINE",
"343 0 LINE",
"343 471 LINE",
"853 0 LINE",
"1072 0 LINE",
"881 174 OFFCURVE",
"695 338 OFFCURVE",
"504 512 CURVE",
"1034 1026 LINE",
"809 1026 LINE",
"343 557 LINE",
"343 1026 LINE",
"178 1026 LINE"
);
}
);
width = 1082;
}
);
unicode = 0138;
},
{
glyphname = l;
lastChange = "2013-01-24 19:07:41 -0800";
layers = (
{
anchors = (
{
name = bottom;
position = "{414, 0}";
},
{
name = top;
position = "{410, 1456}";
},
{
name = topright;
position = "{579, 960}";
}
);
layerId = "9FF46155-5700-4CC7-A83F-22EBDC7BC473";
name = Regular;
paths = (
{
closed = 1;
nodes = (
"168 -9 OFFCURVE",
"467 -82 OFFCURVE",
"720 35 CURVE",
"695 152 LINE",
"519 77 OFFCURVE",
"332 84 OFFCURVE",
"332 292 CURVE SMOOTH",
"332 1526 LINE",
"168 1496 LINE",
"168 300 LINE SMOOTH"
);
}
);
width = 686;
}
);
unicode = 006C;
},
{
glyphname = lslash;
layers = (
{
layerId = "9FF46155-5700-4CC7-A83F-22EBDC7BC473";
name = Regular;
paths = (
{
closed = 1;
nodes = (
"168 0 LINE",
"333 0 LINE",
"333 788 LINE",
"504 890 LINE",
"504 1027 LINE",
"333 925 LINE",
"333 1492 LINE",
"168 1492 LINE",
"168 826 LINE",
"0 726 LINE",
"0 589 LINE",
"168 689 LINE"
);
}
);
width = 503;
}
);
unicode = 0142;
},
{
glyphname = m;
layers = (
{
layerId = "9FF46155-5700-4CC7-A83F-22EBDC7BC473";
name = Regular;
paths = (
{
closed = 1;
nodes = (
"1600 103 OFFCURVE",
"1678 -19 OFFCURVE",
"1875 -22 CURVE",
"1901 109 LINE",
"1797 130 OFFCURVE",
"1764 209 OFFCURVE",
"1765 357 CURVE",
"1767 565 LINE SMOOTH",
"1770 856 OFFCURVE",
"1673 1048 OFFCURVE",
"1400 1048 CURVE SMOOTH",
"1250 1048 OFFCURVE",
"1098 983 OFFCURVE",
"988 805 CURVE",
"1051 567 LINE",
"1051 772 OFFCURVE",
"1214 907 OFFCURVE",
"1362 907 CURVE SMOOTH",
"1573 907 OFFCURVE",
"1602 767 OFFCURVE",
"1602 562 CURVE",
"1600 352 LINE",
"1600 346 LINE SMOOTH"
);
},
{
closed = 1;
nodes = (
"889 0 LINE",
"889 0 OFFCURVE",
"1053 0 OFFCURVE",
"1053 0 CURVE",
"1055 565 LINE SMOOTH",
"1056 856 OFFCURVE",
"961 1048 OFFCURVE",
"688 1048 CURVE SMOOTH",
"538 1048 OFFCURVE",
"397 982 OFFCURVE",
"328 866 CURVE",
"339 532 LINE",
"339 811 OFFCURVE",
"512 907 OFFCURVE",
"650 907 CURVE SMOOTH",
"861 907 OFFCURVE",
"889 767 OFFCURVE",
"889 562 CURVE SMOOTH"
);
},
{
closed = 1;
nodes = (
"176 0 LINE",
"340 0 LINE",
"340 652 LINE",
"328 865 LINE",
"328 902 OFFCURVE",
"307 1001 OFFCURVE",
"296 1026 CURVE",
"141 994 LINE",
"161 923 OFFCURVE",
"176 824 OFFCURVE",
"176 699 CURVE"
);
}
);
width = 1958;
}
);
unicode = 006D;
},
{
glyphname = n;
lastChange = "2013-01-24 19:17:27 -0800";
layers = (
{
anchors = (
{
name = bottom;
position = "{627, 0}";
},
{
name = top;
position = "{674, 1026}";
}
);
layerId = "9FF46155-5700-4CC7-A83F-22EBDC7BC473";
name = Regular;
paths = (
{
closed = 1;
nodes = (
"888 89 OFFCURVE",
"991 -24 OFFCURVE",
"1213 -19 CURVE",
"1229 110 LINE",
"1085 111 OFFCURVE",
"1052 195 OFFCURVE",
"1053 343 CURVE",
"1055 565 LINE SMOOTH",
"1058 856 OFFCURVE",
"972 1048 OFFCURVE",
"699 1048 CURVE SMOOTH",
"549 1048 OFFCURVE",
"390 988 OFFCURVE",
"321 842 CURVE",
"339 532 LINE",
"339 811 OFFCURVE",
"532 907 OFFCURVE",
"670 907 CURVE SMOOTH",
"881 907 OFFCURVE",
"890 767 OFFCURVE",
"890 562 CURVE",
"888 338 LINE",
"888 332 LINE SMOOTH"
);
},
{
closed = 1;
nodes = (
"176 0 LINE",
"340 0 LINE",
"340 652 LINE",
"328 812 LINE",
"328 917 OFFCURVE",
"292 987 OFFCURVE",
"266 1026 CURVE",
"111 974 LINE",
"141 923 OFFCURVE",
"176 824 OFFCURVE",
"176 699 CURVE SMOOTH"
);
}
);
width = 1246;
}
);
unicode = 006E;
},
{
glyphname = o;
layers = (
{
anchors = (
{
name = top;
position = "{619, 1026}";
}
);
layerId = "9FF46155-5700-4CC7-A83F-22EBDC7BC473";
name = Regular;
paths = (
{
closed = 1;
nodes = (
"970 297 OFFCURVE",
"859 116 OFFCURVE",
"620 116 CURVE SMOOTH",
"420 116 OFFCURVE",
"260 242 OFFCURVE",
"260 509 CURVE SMOOTH",
"260 727 OFFCURVE",
"375 907 OFFCURVE",
"619 907 CURVE SMOOTH",
"815 907 OFFCURVE",
"970 782 OFFCURVE",
"970 511 CURVE SMOOTH"
);
},
{
closed = 1;
nodes = (
"90 212 OFFCURVE",
"262 -22 OFFCURVE",
"620 -22 CURVE SMOOTH",
"905 -22 OFFCURVE",
"1140 142 OFFCURVE",
"1140 513 CURVE SMOOTH",
"1140 814 OFFCURVE",
"973 1048 OFFCURVE",
"619 1048 CURVE SMOOTH",
"331 1048 OFFCURVE",
"90 885 OFFCURVE",
"90 511 CURVE SMOOTH"
);
}
);
width = 1230;
}
);
unicode = 006F;
},
{
glyphname = oslash;
layers = (
{
anchors = (
{
name = top;
position = "{619, 0}";
}
);
components = (
{
name = o;
transform = "{1, 0, 0, 1, 0, 0}";
}
);
layerId = "9FF46155-5700-4CC7-A83F-22EBDC7BC473";
name = Regular;
paths = (
{
closed = 1;
nodes = (
"346 -261 LINE",
"987 1245 LINE",
"884 1277 LINE",
"247 -229 LINE"
);
}
);
width = 1238;
}
);
unicode = 00F8;
},
{
glyphname = oe;
layers = (
{
anchors = (
{
name = top;
position = "{985, 0}";
}
);
layerId = "9FF46155-5700-4CC7-A83F-22EBDC7BC473";
name = Regular;
paths = (
{
closed = 1;
nodes = (
"195 110 OFFCURVE",
"354 -28 OFFCURVE",
"610 -28 CURVE SMOOTH",
"821 -28 OFFCURVE",
"961 57 OFFCURVE",
"1022 209 CURVE",
"1082 62 OFFCURVE",
"1213 -28 OFFCURVE",
"1410 -28 CURVE SMOOTH",
"1616 -28 OFFCURVE",
"1757 63 OFFCURVE",
"1836 206 CURVE",
"1748 292 LINE",
"1685 192 OFFCURVE",
"1574 109 OFFCURVE",
"1421 109 CURVE SMOOTH",
"1371 109 OFFCURVE",
"1328 118 OFFCURVE",
"1290 135 CURVE SMOOTH",
"1181 185 OFFCURVE",
"1117 296 OFFCURVE",
"1113 450 CURVE",
"1113 470 LINE",
"1868 472 LINE",
"1868 525 LINE SMOOTH",
"1868 835 OFFCURVE",
"1726 1053 OFFCURVE",
"1417 1053 CURVE SMOOTH",
"1216 1053 OFFCURVE",
"1095 963 OFFCURVE",
"1027 821 CURVE",
"952 964 OFFCURVE",
"830 1053 OFFCURVE",
"620 1053 CURVE SMOOTH",
"536 1053 OFFCURVE",
"462 1039 OFFCURVE",
"396 1010 CURVE SMOOTH",
"217 932 OFFCURVE",
"92 761 OFFCURVE",
"92 509 CURVE SMOOTH",
"92 435 OFFCURVE",
"104 365 OFFCURVE",
"127 300 CURVE SMOOTH"
);
},
{
closed = 1;
nodes = (
"945 287 OFFCURVE",
"845 109 OFFCURVE",
"620 109 CURVE SMOOTH",
"559 109 OFFCURVE",
"506 120 OFFCURVE",
"462 141 CURVE SMOOTH",
"338 200 OFFCURVE",
"265 327 OFFCURVE",
"265 507 CURVE SMOOTH",
"265 562 OFFCURVE",
"273 614 OFFCURVE",
"288 663 CURVE SMOOTH",
"330 802 OFFCURVE",
"433 917 OFFCURVE",
"612 917 CURVE SMOOTH",
"846 917 OFFCURVE",
"945 745 OFFCURVE",
"945 511 CURVE SMOOTH"
);
},
{
closed = 1;
nodes = (
"1113 609 LINE",
"1116 649 OFFCURVE",
"1125 688 OFFCURVE",
"1140 725 CURVE SMOOTH",
"1183 830 OFFCURVE",
"1277 917 OFFCURVE",
"1423 917 CURVE SMOOTH",
"1607 917 OFFCURVE",
"1695 793 OFFCURVE",
"1695 609 CURVE"
);
}
);
width = 1970;
}
);
unicode = 0153;
},
{
glyphname = p;
lastChange = "2013-01-24 19:02:47 -0800";
layers = (
{
layerId = "9FF46155-5700-4CC7-A83F-22EBDC7BC473";
name = Regular;
paths = (
{
closed = 1;
nodes = (
"167 -457 LINE",
"331 -439 LINE",
"331 95 LINE",
"407 21 OFFCURVE",
"547 -22 OFFCURVE",
"688 -22 CURVE SMOOTH",
"982 -22 OFFCURVE",
"1155 182 OFFCURVE",
"1155 527 CURVE SMOOTH",
"1155 854 OFFCURVE",
"985 1048 OFFCURVE",
"698 1048 CURVE SMOOTH",
"535 1048 OFFCURVE",
"384 971 OFFCURVE",
"311 840 CURVE",
"303 919 OFFCURVE",
"267 988 OFFCURVE",
"215 1026 CURVE",
"86 958 LINE",
"137 903 OFFCURVE",
"167 814 OFFCURVE",
"167 718 CURVE SMOOTH"
);
},
{
closed = 1;
nodes = (
"985 266 OFFCURVE",
"866 116 OFFCURVE",
"664 116 CURVE SMOOTH",
"530 116 OFFCURVE",
"399 172 OFFCURVE",
"330 268 CURVE",
"330 434 LINE",
"330 731 OFFCURVE",
"471 907 OFFCURVE",
"689 907 CURVE SMOOTH",
"875 907 OFFCURVE",
"985 764 OFFCURVE",
"985 521 CURVE SMOOTH"
);
}
);
width = 1233;
}
);
unicode = 0070;
},
{
glyphname = thorn;
layers = (
{
layerId = "9FF46155-5700-4CC7-A83F-22EBDC7BC473";
name = Regular;
paths = (
{
closed = 1;
nodes = (
"158 -427 LINE",
"323 -427 LINE",
"323 135 LINE",
"409 30 OFFCURVE",
"524 -23 OFFCURVE",
"668 -23 CURVE SMOOTH",
"747 -23 OFFCURVE",
"815 -8 OFFCURVE",
"874 22 CURVE SMOOTH",
"1037 106 OFFCURVE",
"1139 284 OFFCURVE",
"1139 527 CURVE SMOOTH",
"1139 598 OFFCURVE",
"1129 664 OFFCURVE",
"1110 728 CURVE SMOOTH",
"1054 916 OFFCURVE",
"912 1051 OFFCURVE",
"668 1051 CURVE SMOOTH",
"507 1051 OFFCURVE",
"399 982 OFFCURVE",
"325 882 CURVE",
"325 1455 LINE",
"158 1455 LINE"
);
},
{
closed = 1;
nodes = (
"963 296 OFFCURVE",
"870 109 OFFCURVE",
"644 109 CURVE SMOOTH",
"592 109 OFFCURVE",
"546 119 OFFCURVE",
"506 138 CURVE SMOOTH",
"389 195 OFFCURVE",
"323 321 OFFCURVE",
"323 494 CURVE SMOOTH",
"323 732 OFFCURVE",
"411 917 OFFCURVE",
"650 917 CURVE SMOOTH",
"875 917 OFFCURVE",
"963 745 OFFCURVE",
"963 521 CURVE SMOOTH"
);
}
);
width = 1239;
}
);
unicode = 00FE;
},
{
glyphname = q;
layers = (
{
layerId = "9FF46155-5700-4CC7-A83F-22EBDC7BC473";
name = Regular;
paths = (
{
closed = 1;
nodes = (
"1021 -539 LINE",
"1070 -515 OFFCURVE",
"1358 -363 OFFCURVE",
"1395 -343 CURVE",
"1323 -221 LINE",
"1323 -221 OFFCURVE",
"1111 -335 OFFCURVE",
"1071 -355 CURVE",
"1071 813 LINE SMOOTH",
"1071 916 OFFCURVE",
"1084 992 OFFCURVE",
"1089 1026 CURVE",
"922 1026 LINE",
"907 888 LINE",
"850 985 OFFCURVE",
"769 1048 OFFCURVE",
"581 1048 CURVE SMOOTH",
"271 1048 OFFCURVE",
"90 815 OFFCURVE",
"90 506 CURVE SMOOTH",
"90 203 OFFCURVE",
"265 -22 OFFCURVE",
"569 -22 CURVE SMOOTH",
"711 -22 OFFCURVE",
"829 33 OFFCURVE",
"907 128 CURVE",
"907 -426 LINE"
);
},
{
closed = 1;
nodes = (
"856 212 OFFCURVE",
"720 116 OFFCURVE",
"586 116 CURVE SMOOTH",
"363 116 OFFCURVE",
"260 284 OFFCURVE",
"260 507 CURVE SMOOTH",
"260 736 OFFCURVE",
"358 907 OFFCURVE",
"587 907 CURVE SMOOTH",
"802 907 OFFCURVE",
"907 759 OFFCURVE",
"907 543 CURVE",
"907 302 LINE"
);
}
);
width = 1235;
}
);
unicode = 0071;
},
{
glyphname = r;
layers = (
{
anchors = (
{
name = bottom;
position = "{398, 0}";
},
{
name = top;
position = "{488, 1026}";
}
);
layerId = "9FF46155-5700-4CC7-A83F-22EBDC7BC473";
name = Regular;
paths = (
{
closed = 1;
nodes = (
"182 0 LINE",
"346 0 LINE",
"346 568 LINE SMOOTH",
"346 803 OFFCURVE",
"470 907 OFFCURVE",
"616 907 CURVE SMOOTH",
"701 907 OFFCURVE",
"744 889 OFFCURVE",
"761 883 CURVE",
"775 1028 LINE",
"739 1038 OFFCURVE",
"704 1048 OFFCURVE",
"621 1048 CURVE SMOOTH",
"493 1048 OFFCURVE",
"394 968 OFFCURVE",
"346 871 CURVE",
"320 1026 LINE",
"156 1001 LINE",
"162 955 OFFCURVE",
"182 861 OFFCURVE",
"182 779 CURVE SMOOTH"
);
}
);
width = 795;
}
);
unicode = 0072;
},
{
glyphname = s;
layers = (
{
anchors = (
{
name = bottom;
position = "{455, 0}";
},
{
name = top;
position = "{455, 1026}";
}
);
layerId = "9FF46155-5700-4CC7-A83F-22EBDC7BC473";
name = Regular;
paths = (
{
closed = 1;
nodes = (
"183 16 OFFCURVE",
"314 -22 OFFCURVE",
"456 -22 CURVE SMOOTH",
"585 -22 OFFCURVE",
"811 17 OFFCURVE",
"811 284 CURVE SMOOTH",
"811 445 OFFCURVE",
"724 520 OFFCURVE",
"501 596 CURVE SMOOTH",
"330 654 OFFCURVE",
"272 691 OFFCURVE",
"272 774 CURVE SMOOTH",
"272 862 OFFCURVE",
"334 907 OFFCURVE",
"450 907 CURVE SMOOTH",
"590 907 OFFCURVE",
"673 861 OFFCURVE",
"731 832 CURVE",
"775 967 LINE",
"702 1008 OFFCURVE",
"577 1048 OFFCURVE",
"451 1048 CURVE SMOOTH",
"240 1048 OFFCURVE",
"108 946 OFFCURVE",
"108 771 CURVE SMOOTH",
"108 612 OFFCURVE",
"193 532 OFFCURVE",
"409 463 CURVE SMOOTH",
"601 402 OFFCURVE",
"652 361 OFFCURVE",
"652 268 CURVE SMOOTH",
"652 126 OFFCURVE",
"551 116 OFFCURVE",
"444 116 CURVE SMOOTH",
"320 116 OFFCURVE",
"199 160 OFFCURVE",
"128 222 CURVE",
"108 71 LINE"
);
}
);
width = 907;
}
);
unicode = 0073;
},
{
glyphname = germandbls;
layers = (
{
layerId = "9FF46155-5700-4CC7-A83F-22EBDC7BC473";
name = Regular;
paths = (
{
closed = 1;
nodes = (
"543 47 OFFCURVE",
"648 -23 OFFCURVE",
"792 -23 CURVE SMOOTH",
"841 -23 OFFCURVE",
"888 -14 OFFCURVE",
"934 3 CURVE SMOOTH",
"1064 52 OFFCURVE",
"1173 164 OFFCURVE",
"1173 341 CURVE SMOOTH",
"1173 407 OFFCURVE",
"1160 464 OFFCURVE",
"1133 514 CURVE SMOOTH",
"1054 661 OFFCURVE",
"896 747 OFFCURVE",
"722 798 CURVE SMOOTH",
"703 804 OFFCURVE",
"693 810 OFFCURVE",
"693 816 CURVE SMOOTH",
"693 827 OFFCURVE",
"710 834 OFFCURVE",
"719 838 CURVE SMOOTH",
"788 868 OFFCURVE",
"852 916 OFFCURVE",
"903 968 CURVE SMOOTH",
"955 1020 OFFCURVE",
"1011 1093 OFFCURVE",
"1011 1192 CURVE SMOOTH",
"1011 1236 OFFCURVE",
"1002 1277 OFFCURVE",
"984 1316 CURVE SMOOTH",
"925 1440 OFFCURVE",
"788 1511 OFFCURVE",
"604 1511 CURVE SMOOTH",
"535 1511 OFFCURVE",
"474 1501 OFFCURVE",
"420 1480 CURVE SMOOTH",
"267 1420 OFFCURVE",
"174 1282 OFFCURVE",
"174 1071 CURVE SMOOTH",
"176 0 LINE",
"341 0 LINE",
"341 101 OFFCURVE",
"340 217 OFFCURVE",
"340 326 CURVE SMOOTH",
"340 450 OFFCURVE",
"338 587 OFFCURVE",
"338 711 CURVE SMOOTH",
"338 820 OFFCURVE",
"337 937 OFFCURVE",
"337 1038 CURVE SMOOTH",
"337 1228 OFFCURVE",
"413 1382 OFFCURVE",
"603 1382 CURVE SMOOTH",
"731 1382 OFFCURVE",
"823 1318 OFFCURVE",
"823 1191 CURVE SMOOTH",
"823 1157 OFFCURVE",
"817 1125 OFFCURVE",
"804 1095 CURVE SMOOTH",
"763 1001 OFFCURVE",
"681 934 OFFCURVE",
"588 892 CURVE",
"572 756 LINE",
"672 699 OFFCURVE",
"777 641 OFFCURVE",
"858 570 CURVE SMOOTH",
"924 512 OFFCURVE",
"986 437 OFFCURVE",
"986 322 CURVE SMOOTH",
"986 197 OFFCURVE",
"911 109 OFFCURVE",
"788 109 CURVE SMOOTH",
"679 109 OFFCURVE",
"597 173 OFFCURVE",
"536 243 CURVE",
"471 138 LINE"
);
}
);
width = 1257;
}
);
unicode = 00DF;
},
{
glyphname = t;
lastChange = "2013-01-24 19:15:35 -0800";
layers = (
{
anchors = (
{
name = bottom;
position = "{554, 0}";
},
{
name = center;
position = "{318, 644}";
}
);
layerId = "9FF46155-5700-4CC7-A83F-22EBDC7BC473";
name = Regular;
paths = (
{
closed = 1;
nodes = (
"228 84 OFFCURVE",
"328 -8 OFFCURVE",
"560 -8 CURVE SMOOTH",
"617 -8 OFFCURVE",
"728 13 OFFCURVE",
"791 35 CURVE",
"772 158 LINE",
"725 140 OFFCURVE",
"625 119 OFFCURVE",
"579 119 CURVE SMOOTH",
"449 119 OFFCURVE",
"392 173 OFFCURVE",
"392 298 CURVE SMOOTH",
"392 919 LINE",
"729 919 LINE",
"729 1026 LINE",
"392 1026 LINE",
"392 1345 LINE",
"233 1298 LINE",
"233 1026 LINE",
"25 1026 LINE",
"25 919 LINE",
"228 919 LINE",
"228 300 LINE SMOOTH"
);
}
);
width = 821;
}
);
unicode = 0074;
},
{
glyphname = u;
layers = (
{
anchors = (
{
name = ogonek;
position = "{1090, 10}";
},
{
name = top;
position = "{605, 1026}";
}
);
layerId = "9FF46155-5700-4CC7-A83F-22EBDC7BC473";
name = Regular;
paths = (
{
closed = 1;
nodes = (
"142 80 OFFCURVE",
"333 -22 OFFCURVE",
"527 -22 CURVE SMOOTH",
"685 -22 OFFCURVE",
"809 40 OFFCURVE",
"886 164 CURVE",
"913 53 OFFCURVE",
"1021 -4 OFFCURVE",
"1118 -4 CURVE",
"1153 139 LINE",
"1101 139 OFFCURVE",
"1019 170 OFFCURVE",
"1019 286 CURVE SMOOTH",
"1019 1026 LINE",
"855 1026 LINE",
"855 427 LINE SMOOTH",
"855 231 OFFCURVE",
"717 116 OFFCURVE",
"552 116 CURVE SMOOTH",
"431 116 OFFCURVE",
"310 169 OFFCURVE",
"315 365 CURVE SMOOTH",
"321 595 LINE SMOOTH",
"330 911 OFFCURVE",
"282 1026 OFFCURVE",
"282 1026 CURVE",
"117 1000 LINE",
"117 1000 OFFCURVE",
"165 871 OFFCURVE",
"156 582 CURVE SMOOTH",
"150 365 LINE SMOOTH"
);
}
);
width = 1201;
}
);
unicode = 0075;
},
{
glyphname = v;
layers = (
{
layerId = "9FF46155-5700-4CC7-A83F-22EBDC7BC473";
name = Regular;
paths = (
{
closed = 1;
nodes = (
"443 0 LINE",
"611 0 LINE",
"1044 1026 LINE",
"867 1026 LINE",
"591 336 LINE",
"579 309 OFFCURVE",
"565.679 263.801 OFFCURVE",
"535 163 CURVE",
"519 217 OFFCURVE",
"496 290 OFFCURVE",
"477 336 CURVE SMOOTH",
"196 1026 LINE",
"14 1026 LINE"
);
}
);
width = 1063;
}
);
unicode = 0076;
},
{
glyphname = w;
layers = (
{
anchors = (
{
name = top;
position = "{857, 1026}";
}
);
layerId = "9FF46155-5700-4CC7-A83F-22EBDC7BC473";
name = Regular;
paths = (
{
closed = 1;
nodes = (
"390 0 LINE",
"552 0 LINE",
"852 831 LINE",
"1133 0 LINE",
"1293 0 LINE",
"1661 1026 LINE",
"1492 1026 LINE",
"1252 287 LINE",
"1240 255 OFFCURVE",
"1231 219 OFFCURVE",
"1218 189 CURVE",
"1208 219 OFFCURVE",
"1199 258 OFFCURVE",
"1189 286 CURVE SMOOTH",
"941 1026 LINE",
"775 1026 LINE",
"510 276 LINE",
"498 249 OFFCURVE",
"489 214 OFFCURVE",
"479 186 CURVE",
"469 217 OFFCURVE",
"460 255 OFFCURVE",
"450 284 CURVE SMOOTH",
"201 1026 LINE",
"25 1026 LINE"
);
}
);
width = 1695;
}
);
unicode = 0077;
},
{
glyphname = x;
layers = (
{
layerId = "9FF46155-5700-4CC7-A83F-22EBDC7BC473";
name = Regular;
paths = (
{
closed = 1;
nodes = (
"48 0 LINE",
"238 0 LINE",
"542 408 LINE",
"838 0 LINE",
"1039 0 LINE",
"648 518 LINE",
"1026 1026 LINE",
"847 1026 LINE",
"558 626 LINE",
"270 1026 LINE",
"67 1026 LINE",
"448 514 LINE"
);
}
);
width = 1087;
}
);
unicode = 0078;
},
{
glyphname = y;
layers = (
{
anchors = (
{
name = top;
position = "{573, 1026}";
}
);
layerId = "9FF46155-5700-4CC7-A83F-22EBDC7BC473";
name = Regular;
paths = (
{
closed = 1;
nodes = (
"290 -436 OFFCURVE",
"428 -464 OFFCURVE",
"534 -464 CURVE SMOOTH",
"798 -464 OFFCURVE",
"1033 -286 OFFCURVE",
"1033 67 CURVE",
"1033 1026 LINE",
"869 1026 LINE",
"869 496 LINE SMOOTH",
"869 308 OFFCURVE",
"756 116 OFFCURVE",
"568 116 CURVE SMOOTH",
"431 116 OFFCURVE",
"318 216 OFFCURVE",
"318 398 CURVE SMOOTH",
"321 644 LINE SMOOTH",
"321 923 OFFCURVE",
"282 1026 OFFCURVE",
"282 1026 CURVE",
"117 1000 LINE",
"117 1000 OFFCURVE",
"156 884 OFFCURVE",
"156 627 CURVE SMOOTH",
"153 399 LINE SMOOTH",
"145 172 OFFCURVE",
"286 -22 OFFCURVE",
"543 -22 CURVE SMOOTH",
"646 -22 OFFCURVE",
"799 23 OFFCURVE",
"869 145 CURVE",
"869 46 LINE SMOOTH",
"869 -159 OFFCURVE",
"739 -327 OFFCURVE",
"520 -327 CURVE SMOOTH",
"440 -327 OFFCURVE",
"317 -300 OFFCURVE",
"217 -250 CURVE",
"198 -403 LINE"
);
}
);
width = 1186;
}
);
unicode = 0079;
},
{
glyphname = z;
layers = (
{
anchors = (
{
name = top;
position = "{498, 0}";
}
);
layerId = "9FF46155-5700-4CC7-A83F-22EBDC7BC473";
name = Regular;
paths = (
{
closed = 1;
nodes = (
"80 0 LINE",
"920 0 LINE",
"920 134 LINE",
"305 134 LINE",
"903 939 LINE",
"903 1026 LINE",
"106 1026 LINE",
"106 891 LINE",
"680 891 LINE",
"80 89 LINE"
);
}
);
width = 979;
}
);
unicode = 007A;
},
{
glyphname = uniFB01;
layers = (
{
layerId = "9FF46155-5700-4CC7-A83F-22EBDC7BC473";
name = Regular;
paths = (
{
closed = 1;
nodes = (
"246 0 LINE",
"411 0 LINE",
"411 919 LINE",
"869 919 LINE",
"869 0 LINE",
"1034 0 LINE",
"1034 1026 LINE",
"411 1026 LINE",
"412 1162 LINE SMOOTH",
"412 1297 OFFCURVE",
"438 1379 OFFCURVE",
"573 1379 CURVE SMOOTH",
"610 1379 OFFCURVE",
"657 1374 OFFCURVE",
"683 1364 CURVE",
"681 1493 LINE",
"637 1503 OFFCURVE",
"600 1514 OFFCURVE",
"545 1514 CURVE SMOOTH",
"322 1514 OFFCURVE",
"251 1358 OFFCURVE",
"248 1138 CURVE SMOOTH",
"246 1026 LINE",
"45 1026 LINE",
"45 919 LINE",
"246 919 LINE"
);
},
{
closed = 1;
nodes = (
"877 1307 LINE",
"1030 1307 LINE",
"1030 1462 LINE",
"877 1462 LINE"
);
}
);
width = 1205;
}
);
unicode = FB01;
},
{
glyphname = J.alt;
layers = (
{
anchors = (
{
name = top;
position = "{470, 0}";
}
);
layerId = "9FF46155-5700-4CC7-A83F-22EBDC7BC473";
name = Regular;
paths = (
{
closed = 1;
nodes = (
"131 21 OFFCURVE",
"208 -23 OFFCURVE",
"321 -23 CURVE SMOOTH",
"388 -23 OFFCURVE",
"448 -12 OFFCURVE",
"502 11 CURVE SMOOTH",
"671 82 OFFCURVE",
"755 256 OFFCURVE",
"755 499 CURVE SMOOTH",
"755 1456 LINE",
"583 1456 LINE",
"583 488 LINE SMOOTH",
"583 296 OFFCURVE",
"517 125 OFFCURVE",
"326 125 CURVE SMOOTH",
"237 125 OFFCURVE",
"176 156 OFFCURVE",
"122 197 CURVE",
"71 81 LINE"
);
}
);
width = 939;
}
);
},
{
glyphname = a.alt;
layers = (
{
anchors = (
{
name = ogonek;
position = "{1077, 23}";
},
{
name = top;
position = "{630, 1014}";
}
);
layerId = "9FF46155-5700-4CC7-A83F-22EBDC7BC473";
name = Regular;
paths = (
{
closed = 1;
nodes = (
"88 192 OFFCURVE",
"281 -23 OFFCURVE",
"553 -23 CURVE SMOOTH",
"675 -23 OFFCURVE",
"832 13 OFFCURVE",
"925 166 CURVE",
"952 46 OFFCURVE",
"1070 -4 OFFCURVE",
"1157 -4 CURVE",
"1191 139 LINE",
"1139 139 OFFCURVE",
"1066 170 OFFCURVE",
"1066 286 CURVE SMOOTH",
"1066 519 LINE SMOOTH",
"1066 928 OFFCURVE",
"864 1052 OFFCURVE",
"614 1052 CURVE SMOOTH",
"284 1052 OFFCURVE",
"88 844 OFFCURVE",
"88 494 CURVE SMOOTH"
);
},
{
closed = 1;
nodes = (
"902 272 OFFCURVE",
"828 117 OFFCURVE",
"572 117 CURVE SMOOTH",
"387 117 OFFCURVE",
"255 278 OFFCURVE",
"255 504 CURVE SMOOTH",
"255 761 OFFCURVE",
"390 913 OFFCURVE",
"617 913 CURVE SMOOTH",
"798 913 OFFCURVE",
"902 814 OFFCURVE",
"902 524 CURVE SMOOTH"
);
}
);
width = 1219;
}
);
},
{
glyphname = e.alt;
layers = (
{
anchors = (
{
name = bottom;
position = "{537, 0}";
},
{
name = ogonek;
position = "{966, 10}";
},
{
name = top;
position = "{537, 0}";
}
);
layerId = "9FF46155-5700-4CC7-A83F-22EBDC7BC473";
name = Regular;
paths = (
{
closed = 1;
nodes = (
"94 176 OFFCURVE",
"325 -19 OFFCURVE",
"589 -19 CURVE SMOOTH",
"758 -19 OFFCURVE",
"895 46 OFFCURVE",
"1013 170 CURVE",
"930 276 LINE",
"856 187 OFFCURVE",
"735 123 OFFCURVE",
"596 123 CURVE SMOOTH",
"462 123 OFFCURVE",
"334 192 OFFCURVE",
"289 371 CURVE",
"655 425 OFFCURVE",
"946 506 OFFCURVE",
"946 751 CURVE SMOOTH",
"946 918 OFFCURVE",
"808 1056 OFFCURVE",
"592 1056 CURVE SMOOTH",
"269 1056 OFFCURVE",
"94 805 OFFCURVE",
"94 516 CURVE SMOOTH"
);
},
{
closed = 1;
nodes = (
"783 594 OFFCURVE",
"563 534 OFFCURVE",
"277 490 CURVE",
"275 507 OFFCURVE",
"274 523 OFFCURVE",
"274 539 CURVE SMOOTH",
"274 735 OFFCURVE",
"392 913 OFFCURVE",
"593 913 CURVE SMOOTH",
"714 913 OFFCURVE",
"783 846 OFFCURVE",
"783 755 CURVE SMOOTH"
);
}
);
width = 1073;
}
);
},
{
glyphname = k.alt;
layers = (
{
anchors = (
{
name = bottom;
position = "{541, 0}";
}
);
layerId = "9FF46155-5700-4CC7-A83F-22EBDC7BC473";
name = Regular;
paths = (
{
closed = 1;
nodes = (
"178 0 LINE",
"303 0 LINE",
"534 343 OFFCURVE",
"766 684 OFFCURVE",
"998 1026 CURVE",
"819 1026 LINE",
"343 308 LINE",
"343 1526 LINE",
"178 1526 LINE"
);
},
{
closed = 1;
nodes = (
"885 0 LINE",
"1066 0 LINE",
"693 583 LINE",
"578 485 LINE"
);
}
);
width = 1082;
}
);
},
{
glyphname = n.alt;
layers = (
{
anchors = (
{
name = bottom;
position = "{632, 0}";
},
{
name = top;
position = "{632, 0}";
}
);
layerId = "9FF46155-5700-4CC7-A83F-22EBDC7BC473";
name = Regular;
paths = (
{
closed = 1;
nodes = (
"881 62 OFFCURVE",
"908 -2 OFFCURVE",
"1096 -24 CURVE",
"1132 102 LINE",
"1057 117 OFFCURVE",
"1046 142 OFFCURVE",
"1046 255 CURVE SMOOTH",
"1046 270 LINE SMOOTH",
"1048 567 LINE SMOOTH",
"1048 577 LINE SMOOTH",
"1048 867 OFFCURVE",
"960 1051 OFFCURVE",
"667 1051 CURVE SMOOTH",
"499 1051 OFFCURVE",
"416 988 OFFCURVE",
"343 884 CURVE",
"321 1026 LINE",
"154 1026 LINE",
"160 977 OFFCURVE",
"180 784 OFFCURVE",
"180 699 CURVE SMOOTH",
"180 0 LINE",
"345 0 LINE",
"345 652 LINE SMOOTH",
"345 799 OFFCURVE",
"485 911 OFFCURVE",
"639 911 CURVE SMOOTH",
"850 911 OFFCURVE",
"883 790 OFFCURVE",
"883 585 CURVE SMOOTH",
"883 572 LINE SMOOTH",
"881 265 LINE SMOOTH",
"881 248 LINE SMOOTH"
);
}
);
width = 1263;
}
);
},
{
glyphname = s.alt;
layers = (
{
anchors = (
{
name = bottom;
position = "{501, 0}";
},
{
name = top;
position = "{501, 0}";
}
);
layerId = "9FF46155-5700-4CC7-A83F-22EBDC7BC473";
name = Regular;
paths = (
{
closed = 1;
nodes = (
"220 25 OFFCURVE",
"396 -26 OFFCURVE",
"552 -26 CURVE SMOOTH",
"739 -26 OFFCURVE",
"902 52 OFFCURVE",
"902 284 CURVE SMOOTH",
"902 492 OFFCURVE",
"710 547 OFFCURVE",
"550 596 CURVE SMOOTH",
"455 625 OFFCURVE",
"285 653 OFFCURVE",
"285 774 CURVE SMOOTH",
"285 881 OFFCURVE",
"382 917 OFFCURVE",
"493 917 CURVE SMOOTH",
"606 917 OFFCURVE",
"732 880 OFFCURVE",
"787 844 CURVE",
"834 966 LINE",
"736 1025 OFFCURVE",
"612 1056 OFFCURVE",
"494 1056 CURVE SMOOTH",
"294 1056 OFFCURVE",
"114 967 OFFCURVE",
"114 771 CURVE SMOOTH",
"114 570 OFFCURVE",
"283 512 OFFCURVE",
"448 463 CURVE SMOOTH",
"555 431 OFFCURVE",
"739 404 OFFCURVE",
"739 272 CURVE SMOOTH",
"739 150 OFFCURVE",
"644 112 OFFCURVE",
"529 112 CURVE SMOOTH",
"396 112 OFFCURVE",
"236 170 OFFCURVE",
"161 227 CURVE",
"114 90 LINE"
);
}
);
width = 1001;
}
);
},
{
glyphname = u.alt;
layers = (
{
anchors = (
{
name = ogonek;
position = "{1093, 10}";
},
{
name = top;
position = "{608, 0}";
}
);
layerId = "9FF46155-5700-4CC7-A83F-22EBDC7BC473";
name = Regular;
paths = (
{
closed = 1;
nodes = (
"159 94 OFFCURVE",
"336 -24 OFFCURVE",
"530 -24 CURVE SMOOTH",
"688 -24 OFFCURVE",
"807 38 OFFCURVE",
"889 155 CURVE",
"916 44 OFFCURVE",
"1014 -4 OFFCURVE",
"1111 -4 CURVE",
"1146 139 LINE",
"1094 139 OFFCURVE",
"1022 170 OFFCURVE",
"1022 286 CURVE SMOOTH",
"1022 1026 LINE",
"857 1026 LINE",
"857 418 LINE SMOOTH",
"857 222 OFFCURVE",
"699 118 OFFCURVE",
"555 118 CURVE SMOOTH",
"434 118 OFFCURVE",
"324 183 OFFCURVE",
"324 379 CURVE SMOOTH",
"324 595 LINE",
"324 911 OFFCURVE",
"285 1026 OFFCURVE",
"285 1026 CURVE",
"120 1026 LINE",
"120 1026 OFFCURVE",
"159 871 OFFCURVE",
"159 582 CURVE",
"159 379 LINE SMOOTH"
);
}
);
width = 1215;
}
);
},
{
glyphname = Delta;
layers = (
{
layerId = "9FF46155-5700-4CC7-A83F-22EBDC7BC473";
name = Regular;
paths = (
{
closed = 1;
nodes = (
"40 0 LINE",
"1263 0 LINE",
"1263 80 LINE",
"743 1429 LINE",
"561 1429 LINE",
"40 80 LINE"
);
},
{
closed = 1;
nodes = (
"269 162 LINE",
"615 1111 LINE",
"647 1218 LINE",
"681 1111 LINE",
"1033 162 LINE"
);
}
);
width = 1314;
}
);
unicode = 0394;
},
{
glyphname = uni03A9;
layers = (
{
anchors = (
{
name = topleft;
position = "{20, 0}";
}
);
layerId = "9FF46155-5700-4CC7-A83F-22EBDC7BC473";
name = Regular;
paths = (
{
closed = 1;
nodes = (
"104 0 LINE",
"645 0 LINE",
"642 121 LINE",
"590 155 OFFCURVE",
"543 195 OFFCURVE",
"500 240 CURVE SMOOTH",
"386 361 OFFCURVE",
"293 531 OFFCURVE",
"293 759 CURVE SMOOTH",
"293 840 OFFCURVE",
"305 914 OFFCURVE",
"330 982 CURVE SMOOTH",
"399 1168 OFFCURVE",
"555 1309 OFFCURVE",
"804 1309 CURVE SMOOTH",
"887 1309 OFFCURVE",
"960 1294 OFFCURVE",
"1022 1264 CURVE SMOOTH",
"1194 1181 OFFCURVE",
"1303 1004 OFFCURVE",
"1303 754 CURVE SMOOTH",
"1303 687 OFFCURVE",
"1294 622 OFFCURVE",
"1276 560 CURVE SMOOTH",
"1221 367 OFFCURVE",
"1099 221 OFFCURVE",
"949 121 CURVE",
"953 0 LINE",
"1474 0 LINE",
"1483 138 LINE",
"1155 137 LINE",
"1242 206 OFFCURVE",
"1323 296 OFFCURVE",
"1381 398 CURVE SMOOTH",
"1437 498 OFFCURVE",
"1481 621 OFFCURVE",
"1481 772 CURVE SMOOTH",
"1481 980 OFFCURVE",
"1406 1143 OFFCURVE",
"1300 1254 CURVE SMOOTH",
"1191 1368 OFFCURVE",
"1026 1449 OFFCURVE",
"809 1449 CURVE SMOOTH",
"596 1449 OFFCURVE",
"426 1374 OFFCURVE",
"312 1266 CURVE SMOOTH",
"196 1157 OFFCURVE",
"114 994 OFFCURVE",
"114 776 CURVE SMOOTH",
"114 707 OFFCURVE",
"122 640 OFFCURVE",
"138 578 CURVE SMOOTH",
"186 385 OFFCURVE",
"295 240 OFFCURVE",
"435 137 CURVE",
"93 138 LINE"
);
}
);
width = 1603;
}
);
unicode = 03A9;
},
{
glyphname = pi;
layers = (
{
layerId = "9FF46155-5700-4CC7-A83F-22EBDC7BC473";
name = Regular;
paths = (
{
closed = 1;
nodes = (
"851 104 OFFCURVE",
"888 -8 OFFCURVE",
"1061 -8 CURVE SMOOTH",
"1108 -8 OFFCURVE",
"1153 -2 OFFCURVE",
"1198 6 CURVE",
"1188 35 OFFCURVE",
"1185 65 OFFCURVE",
"1185 100 CURVE SMOOTH",
"1185 110 OFFCURVE",
"1185 120 OFFCURVE",
"1186 130 CURVE SMOOTH",
"1188 160 LINE",
"1159 151 OFFCURVE",
"1133 147 OFFCURVE",
"1108 147 CURVE SMOOTH",
"1024 147 OFFCURVE",
"1010 206 OFFCURVE",
"1010 288 CURVE SMOOTH",
"1010 907 LINE",
"1214 907 LINE",
"1214 1040 LINE",
"369 1040 LINE SMOOTH",
"227 1040 OFFCURVE",
"96 1037 OFFCURVE",
"17 977 CURVE",
"34 846 LINE",
"111 887 OFFCURVE",
"194 904 OFFCURVE",
"311 907 CURVE",
"306 739 OFFCURVE",
"296 567 OFFCURVE",
"276 411 CURVE SMOOTH",
"257 263 OFFCURVE",
"232 105 OFFCURVE",
"172 0 CURVE",
"341 0 LINE",
"353 21 OFFCURVE",
"364 51 OFFCURVE",
"374 88 CURVE SMOOTH",
"439 335 OFFCURVE",
"458 619 OFFCURVE",
"480 907 CURVE",
"851 907 LINE",
"851 279 LINE SMOOTH"
);
}
);
width = 1288;
}
);
unicode = 03C0;
},
{
glyphname = uni03BC;
layers = (
{
layerId = "9FF46155-5700-4CC7-A83F-22EBDC7BC473";
name = Regular;
paths = (
{
closed = 1;
nodes = (
"157 -202 LINE",
"322 -202 LINE",
"322 31 LINE",
"379 -3 OFFCURVE",
"449 -23 OFFCURVE",
"540 -23 CURVE SMOOTH",
"688 -23 OFFCURVE",
"801 30 OFFCURVE",
"878 135 CURVE",
"881 0 LINE",
"1051 0 LINE",
"1044 84 OFFCURVE",
"1043 156 OFFCURVE",
"1043 246 CURVE SMOOTH",
"1043 1026 LINE",
"878 1026 LINE",
"878 436 LINE SMOOTH",
"878 392 OFFCURVE",
"871 350 OFFCURVE",
"858 310 CURVE SMOOTH",
"820 196 OFFCURVE",
"729 109 OFFCURVE",
"578 109 CURVE SMOOTH",
"396 109 OFFCURVE",
"322 214 OFFCURVE",
"322 399 CURVE SMOOTH",
"322 1026 LINE",
"157 1026 LINE"
);
}
);
width = 1217;
}
);
unicode = 03BC;
},
{
glyphname = ordfeminine;
layers = (
{
layerId = "9FF46155-5700-4CC7-A83F-22EBDC7BC473";
name = Regular;
paths = (
{
closed = 1;
nodes = (
"122 814 OFFCURVE",
"205 768 OFFCURVE",
"317 768 CURVE SMOOTH",
"417 768 OFFCURVE",
"492 805 OFFCURVE",
"537 860 CURVE",
"543 786 LINE",
"674 786 LINE",
"669 846 OFFCURVE",
"667 870 OFFCURVE",
"667 914 CURVE SMOOTH",
"669 1235 LINE",
"669 1400 OFFCURVE",
"558 1477 OFFCURVE",
"394 1477 CURVE SMOOTH",
"262 1477 OFFCURVE",
"162 1436 OFFCURVE",
"111 1350 CURVE",
"178 1275 LINE",
"222 1340 OFFCURVE",
"289 1369 OFFCURVE",
"388 1369 CURVE SMOOTH",
"498 1369 OFFCURVE",
"536 1329 OFFCURVE",
"536 1219 CURVE SMOOTH",
"536 1211 LINE",
"462 1201 OFFCURVE",
"383 1202 OFFCURVE",
"309 1192 CURVE",
"189 1174 OFFCURVE",
"66 1112 OFFCURVE",
"66 975 CURVE SMOOTH",
"66 944 OFFCURVE",
"72 916 OFFCURVE",
"85 890 CURVE SMOOTH"
);
},
{
closed = 1;
nodes = (
"530 962 OFFCURVE",
"468 871 OFFCURVE",
"338 871 CURVE SMOOTH",
"260 871 OFFCURVE",
"202 899 OFFCURVE",
"202 977 CURVE SMOOTH",
"202 1115 OFFCURVE",
"424 1088 OFFCURVE",
"536 1110 CURVE",
"536 1085 LINE"
);
}
);
width = 745;
}
);
unicode = 00AA;
},
{
glyphname = ordmasculine;
layers = (
{
layerId = "9FF46155-5700-4CC7-A83F-22EBDC7BC473";
name = Regular;
paths = (
{
closed = 1;
nodes = (
"53 901 OFFCURVE",
"191 767 OFFCURVE",
"416 767 CURVE SMOOTH",
"474 767 OFFCURVE",
"526 776 OFFCURVE",
"570 795 CURVE SMOOTH",
"690 845 OFFCURVE",
"774 954 OFFCURVE",
"774 1121 CURVE SMOOTH",
"774 1171 OFFCURVE",
"766 1217 OFFCURVE",
"751 1260 CURVE SMOOTH",
"705 1390 OFFCURVE",
"591 1476 OFFCURVE",
"415 1476 CURVE SMOOTH",
"357 1476 OFFCURVE",
"306 1466 OFFCURVE",
"261 1448 CURVE SMOOTH",
"140 1398 OFFCURVE",
"53 1291 OFFCURVE",
"53 1124 CURVE SMOOTH"
);
},
{
closed = 1;
nodes = (
"636 979 OFFCURVE",
"557 875 OFFCURVE",
"416 875 CURVE SMOOTH",
"269 875 OFFCURVE",
"193 977 OFFCURVE",
"193 1123 CURVE SMOOTH",
"193 1264 OFFCURVE",
"271 1369 OFFCURVE",
"413 1369 CURVE SMOOTH",
"558 1369 OFFCURVE",
"636 1264 OFFCURVE",
"636 1119 CURVE SMOOTH"
);
}
);
width = 824;
}
);
unicode = 00BA;
},
{
glyphname = zero;
layers = (
{
layerId = "9FF46155-5700-4CC7-A83F-22EBDC7BC473";
name = Regular;
paths = (
{
closed = 1;
nodes = (
"931 440 OFFCURVE",
"868 119 OFFCURVE",
"607 119 CURVE SMOOTH",
"323 119 OFFCURVE",
"282 423 OFFCURVE",
"282 710 CURVE SMOOTH",
"282 984 OFFCURVE",
"341 1312 OFFCURVE",
"607 1312 CURVE SMOOTH",
"890 1312 OFFCURVE",
"931 996 OFFCURVE",
"931 710 CURVE SMOOTH"
);
},
{
closed = 1;
nodes = (
"104 319 OFFCURVE",
"219 -23 OFFCURVE",
"607 -23 CURVE SMOOTH",
"986 -23 OFFCURVE",
"1115 325 OFFCURVE",
"1115 710 CURVE SMOOTH",
"1115 1117 OFFCURVE",
"1012 1453 OFFCURVE",
"607 1453 CURVE SMOOTH",
"222 1453 OFFCURVE",
"104 1103 OFFCURVE",
"104 710 CURVE SMOOTH"
);
}
);
width = 1219;
}
);
unicode = 0030;
},
{
glyphname = one;
layers = (
{
layerId = "9FF46155-5700-4CC7-A83F-22EBDC7BC473";
name = Regular;
paths = (
{
closed = 1;
nodes = (
"552 0 LINE",
"724 0 LINE",
"724 1438 LINE",
"559 1436 LINE",
"491 1385 OFFCURVE",
"369 1312 OFFCURVE",
"253 1259 CURVE",
"294 1128 LINE",
"400 1172 OFFCURVE",
"486 1220 OFFCURVE",
"552 1270 CURVE"
);
}
);
width = 1190;
}
);
unicode = 0031;
},
{
glyphname = two;
layers = (
{
layerId = "9FF46155-5700-4CC7-A83F-22EBDC7BC473";
name = Regular;
paths = (
{
closed = 1;
nodes = (
"99 0 LINE",
"1035 0 LINE",
"1035 145 LINE",
"305 145 LINE",
"407 239 OFFCURVE",
"521 341 OFFCURVE",
"623 442 CURVE SMOOTH",
"772.717 589.593 OFFCURVE",
"1032 805.914 OFFCURVE",
"1032 1078 CURVE SMOOTH",
"1032 1323.48 OFFCURVE",
"832.312 1448 OFFCURVE",
"584 1448 CURVE SMOOTH",
"357 1448 OFFCURVE",
"195 1342 OFFCURVE",
"133 1175 CURVE",
"230 1078 LINE",
"285 1204 OFFCURVE",
"395 1307 OFFCURVE",
"573 1307 CURVE SMOOTH",
"731 1307 OFFCURVE",
"857 1228 OFFCURVE",
"857 1071 CURVE SMOOTH",
"857 884.578 OFFCURVE",
"687.127 725.786 OFFCURVE",
"583 616 CURVE SMOOTH",
"432 456 OFFCURVE",
"255 297 OFFCURVE",
"98 147 CURVE"
);
}
);
width = 1248;
}
);
unicode = 0032;
},
{
glyphname = three;
layers = (
{
layerId = "9FF46155-5700-4CC7-A83F-22EBDC7BC473";
name = Regular;
paths = (
{
closed = 1;
nodes = (
"144.796 55.3751 OFFCURVE",
"313.717 -23 OFFCURVE",
"519 -23 CURVE SMOOTH",
"796.415 -23 OFFCURVE",
"1049 115.232 OFFCURVE",
"1049 391 CURVE SMOOTH",
"1049 604.363 OFFCURVE",
"900.457 709.607 OFFCURVE",
"721 746 CURVE",
"876 790 OFFCURVE",
"1010 889 OFFCURVE",
"1010 1086 CURVE SMOOTH",
"1010 1327.32 OFFCURVE",
"793.08 1449 OFFCURVE",
"550 1449 CURVE SMOOTH",
"345 1449 OFFCURVE",
"181 1364 OFFCURVE",
"121 1217 CURVE",
"219 1128 LINE",
"283 1236 OFFCURVE",
"384 1306 OFFCURVE",
"544 1306 CURVE SMOOTH",
"703 1306 OFFCURVE",
"826 1243 OFFCURVE",
"826 1085 CURVE SMOOTH",
"826 869 OFFCURVE",
"664 813 OFFCURVE",
"446 813 CURVE SMOOTH",
"383 813 LINE",
"385 670 LINE",
"462 672 LINE SMOOTH",
"685.925 677.816 OFFCURVE",
"871 615 OFFCURVE",
"871 394 CURVE SMOOTH",
"871 210.225 OFFCURVE",
"713.803 119 OFFCURVE",
"528 119 CURVE SMOOTH",
"357 119 OFFCURVE",
"239 199 OFFCURVE",
"191 324 CURVE",
"108 223 LINE"
);
}
);
width = 1190;
}
);
unicode = 0033;
},
{
glyphname = four;
layers = (
{
layerId = "9FF46155-5700-4CC7-A83F-22EBDC7BC473";
name = Regular;
paths = (
{
closed = 1;
nodes = (
"726 0 LINE",
"898 0 LINE",
"898 351 LINE",
"1112 351 LINE",
"1112 483 LINE",
"898 483 LINE",
"898 1420 LINE",
"690 1420 LINE",
"25 475 LINE",
"25 351 LINE",
"726 351 LINE"
);
},
{
closed = 1;
nodes = (
"196 483 LINE",
"638 1146 LINE",
"726 1292 LINE",
"726 483 LINE"
);
}
);
width = 1189;
}
);
unicode = 0034;
},
{
glyphname = five;
layers = (
{
layerId = "9FF46155-5700-4CC7-A83F-22EBDC7BC473";
name = Regular;
paths = (
{
closed = 1;
nodes = (
"223 55 OFFCURVE",
"357 -23 OFFCURVE",
"548 -23 CURVE SMOOTH",
"629 -23 OFFCURVE",
"702 -10 OFFCURVE",
"766 14 CURVE SMOOTH",
"936 78 OFFCURVE",
"1068 220 OFFCURVE",
"1068 449 CURVE SMOOTH",
"1068 514 OFFCURVE",
"1058 574 OFFCURVE",
"1036 630 CURVE SMOOTH",
"972 793 OFFCURVE",
"824 905 OFFCURVE",
"599 905 CURVE SMOOTH",
"496 905 OFFCURVE",
"421 879 OFFCURVE",
"352 839 CURVE",
"366 1280 LINE",
"994 1280 LINE",
"994 1425 LINE",
"203 1425 LINE",
"203 652 LINE",
"379 658 LINE",
"419 718 OFFCURVE",
"495 758 OFFCURVE",
"593 758 CURVE SMOOTH",
"641 758 OFFCURVE",
"684 750 OFFCURVE",
"721 734 CURVE SMOOTH",
"823 690 OFFCURVE",
"891 595 OFFCURVE",
"891 452 CURVE SMOOTH",
"891 407 OFFCURVE",
"883 364 OFFCURVE",
"868 324 CURVE SMOOTH",
"823 202 OFFCURVE",
"713 119 OFFCURVE",
"546 119 CURVE SMOOTH",
"396 119 OFFCURVE",
"295 190 OFFCURVE",
"228 289 CURVE",
"147 173 LINE"
);
}
);
width = 1190;
}
);
unicode = 0035;
},
{
glyphname = six;
layers = (
{
layerId = "9FF46155-5700-4CC7-A83F-22EBDC7BC473";
name = Regular;
paths = (
{
closed = 1;
nodes = (
"146 240 OFFCURVE",
"286 -22 OFFCURVE",
"641 -22 CURVE SMOOTH",
"930 -22 OFFCURVE",
"1144 177 OFFCURVE",
"1144 466 CURVE SMOOTH",
"1144 737 OFFCURVE",
"973 957 OFFCURVE",
"665 957 CURVE SMOOTH",
"555 957 OFFCURVE",
"366 901 OFFCURVE",
"301 779 CURVE",
"361 1052 OFFCURVE",
"559 1291 OFFCURVE",
"910 1338 CURVE",
"874 1484 LINE",
"262 1391 OFFCURVE",
"99 890 OFFCURVE",
"127 501 CURVE SMOOTH"
);
},
{
closed = 1;
nodes = (
"977 256 OFFCURVE",
"853 127 OFFCURVE",
"639 127 CURVE SMOOTH",
"404 127 OFFCURVE",
"294 292 OFFCURVE",
"294 469 CURVE SMOOTH",
"294 670 OFFCURVE",
"432 820 OFFCURVE",
"645 821 CURVE SMOOTH",
"899 822 OFFCURVE",
"977 634 OFFCURVE",
"977 461 CURVE SMOOTH"
);
}
);
width = 1248;
}
);
unicode = 0036;
},
{
glyphname = seven;
layers = (
{
layerId = "9FF46155-5700-4CC7-A83F-22EBDC7BC473";
name = Regular;
paths = (
{
closed = 1;
nodes = (
"315 0 LINE",
"501 0 LINE",
"1087 1329 LINE",
"1087 1420 LINE",
"117 1420 LINE",
"117 1275 LINE",
"895 1275 LINE"
);
}
);
width = 1196;
}
);
unicode = 0037;
},
{
glyphname = eight;
layers = (
{
layerId = "9FF46155-5700-4CC7-A83F-22EBDC7BC473";
name = Regular;
paths = (
{
closed = 1;
nodes = (
"222 62 OFFCURVE",
"385 -23 OFFCURVE",
"598 -23 CURVE SMOOTH",
"737 -23 OFFCURVE",
"859 17 OFFCURVE",
"943 78 CURVE SMOOTH",
"1026 138 OFFCURVE",
"1092 230 OFFCURVE",
"1092 367 CURVE SMOOTH",
"1092 580 OFFCURVE",
"955 694 OFFCURVE",
"776 747 CURVE",
"934 796 OFFCURVE",
"1057 898 OFFCURVE",
"1057 1091 CURVE SMOOTH",
"1057 1148 OFFCURVE",
"1045 1199 OFFCURVE",
"1021 1244 CURVE SMOOTH",
"951 1376 OFFCURVE",
"799 1453 OFFCURVE",
"598 1453 CURVE SMOOTH",
"534 1453 OFFCURVE",
"475 1444 OFFCURVE",
"419 1428 CURVE SMOOTH",
"270 1384 OFFCURVE",
"139 1280 OFFCURVE",
"139 1091 CURVE SMOOTH",
"139 898 OFFCURVE",
"262 796 OFFCURVE",
"420 747 CURVE",
"241 694 OFFCURVE",
"104 580 OFFCURVE",
"104 367 CURVE SMOOTH",
"104 304 OFFCURVE",
"118 248 OFFCURVE",
"145 200 CURVE SMOOTH"
);
},
{
closed = 1;
nodes = (
"844 172 OFFCURVE",
"740 119 OFFCURVE",
"598 119 CURVE SMOOTH",
"418 119 OFFCURVE",
"281 201 OFFCURVE",
"281 380 CURVE SMOOTH",
"281 421 OFFCURVE",
"289 457 OFFCURVE",
"305 489 CURVE SMOOTH",
"356 592 OFFCURVE",
"468 647 OFFCURVE",
"598 673 CURVE",
"755 641 OFFCURVE",
"915 567 OFFCURVE",
"915 380 CURVE SMOOTH",
"915 337 OFFCURVE",
"907 300 OFFCURVE",
"891 268 CURVE SMOOTH"
);
},
{
closed = 1;
nodes = (
"885 917 OFFCURVE",
"755 849 OFFCURVE",
"598 820 CURVE",
"441 849 OFFCURVE",
"311 917 OFFCURVE",
"311 1086 CURVE SMOOTH",
"311 1123 OFFCURVE",
"319 1156 OFFCURVE",
"334 1185 CURVE SMOOTH",
"378 1268 OFFCURVE",
"473 1317 OFFCURVE",
"598 1317 CURVE SMOOTH",
"754 1317 OFFCURVE",
"885 1242 OFFCURVE",
"885 1086 CURVE SMOOTH"
);
}
);
width = 1196;
}
);
unicode = 0038;
},
{
glyphname = nine;
layers = (
{
layerId = "9FF46155-5700-4CC7-A83F-22EBDC7BC473";
name = Regular;
paths = (
{
closed = 1;
nodes = (
"527 -76 LINE",
"995 598 LINE SMOOTH",
"1086 729 OFFCURVE",
"1134 865 OFFCURVE",
"1134 991 CURVE SMOOTH",
"1134 1243 OFFCURVE",
"975 1483 OFFCURVE",
"620 1483 CURVE SMOOTH",
"331 1483 OFFCURVE",
"117 1282 OFFCURVE",
"117 995 CURVE SMOOTH",
"117 724 OFFCURVE",
"299 515 OFFCURVE",
"607 515 CURVE SMOOTH",
"717 515 OFFCURVE",
"792 569 OFFCURVE",
"800 575 CURVE",
"391 0 LINE"
);
},
{
closed = 1;
nodes = (
"967 791 OFFCURVE",
"855 651 OFFCURVE",
"627 651 CURVE SMOOTH",
"373 651 OFFCURVE",
"289 821 OFFCURVE",
"289 994 CURVE SMOOTH",
"289 1205 OFFCURVE",
"418 1334 OFFCURVE",
"632 1334 CURVE SMOOTH",
"867 1334 OFFCURVE",
"967 1202 OFFCURVE",
"967 992 CURVE SMOOTH"
);
}
);
width = 1248;
}
);
unicode = 0039;
},
{
glyphname = nine.alt;
layers = (
{
layerId = "9FF46155-5700-4CC7-A83F-22EBDC7BC473";
name = Regular;
paths = (
{
closed = 1;
nodes = (
"251 34 OFFCURVE",
"362 -23 OFFCURVE",
"514 -23 CURVE SMOOTH",
"607 -23 OFFCURVE",
"689 -4 OFFCURVE",
"761 34 CURVE SMOOTH",
"984 152 OFFCURVE",
"1093 416 OFFCURVE",
"1093 758 CURVE SMOOTH",
"1093 870 OFFCURVE",
"1082 970 OFFCURVE",
"1059 1056 CURVE SMOOTH",
"1000 1282 OFFCURVE",
"859 1453 OFFCURVE",
"581 1453 CURVE SMOOTH",
"506 1453 OFFCURVE",
"437 1441 OFFCURVE",
"376 1417 CURVE SMOOTH",
"211 1352 OFFCURVE",
"88 1208 OFFCURVE",
"88 984 CURVE SMOOTH",
"88 918 OFFCURVE",
"99 857 OFFCURVE",
"120 802 CURVE SMOOTH",
"182 642 OFFCURVE",
"326 533 OFFCURVE",
"545 533 CURVE SMOOTH",
"725 533 OFFCURVE",
"846 592 OFFCURVE",
"918 707 CURVE",
"918 683 LINE",
"915 527 OFFCURVE",
"877 386 OFFCURVE",
"813 288 CURVE SMOOTH",
"754 196 OFFCURVE",
"659 119 OFFCURVE",
"517 119 CURVE SMOOTH",
"401 119 OFFCURVE",
"308 157 OFFCURVE",
"237 234 CURVE",
"183 121 LINE"
);
},
{
closed = 1;
nodes = (
"829 744 OFFCURVE",
"722 673 OFFCURVE",
"572 673 CURVE SMOOTH",
"373 673 OFFCURVE",
"264 792 OFFCURVE",
"264 989 CURVE SMOOTH",
"264 1035 OFFCURVE",
"271 1078 OFFCURVE",
"286 1117 CURVE SMOOTH",
"327 1228 OFFCURVE",
"423 1312 OFFCURVE",
"573 1312 CURVE SMOOTH",
"626 1312 OFFCURVE",
"673 1302 OFFCURVE",
"714 1283 CURVE SMOOTH",
"821 1232 OFFCURVE",
"906 1125 OFFCURVE",
"906 971 CURVE SMOOTH",
"906 925 OFFCURVE",
"897 884 OFFCURVE",
"879 847 CURVE SMOOTH"
);
}
);
width = 1190;
}
);
},
{
glyphname = fraction;
layers = (
{
layerId = "9FF46155-5700-4CC7-A83F-22EBDC7BC473";
name = Regular;
paths = (
{
closed = 1;
nodes = (
"-337 0 LINE",
"-186 0 LINE",
"717 1436 LINE",
"568 1436 LINE"
);
}
);
width = 368;
}
);
unicode = 2044;
},
{
glyphname = uni00B9;
layers = (
{
layerId = "9FF46155-5700-4CC7-A83F-22EBDC7BC473";
name = Regular;
paths = (
{
closed = 1;
nodes = (
"270 604 LINE",
"635 604 LINE",
"635 720 LINE",
"513 720 LINE",
"513 1427 LINE",
"408 1412 LINE",
"356 1381 OFFCURVE",
"307 1354 OFFCURVE",
"240 1333 CURVE",
"239 1203 LINE",
"289 1222 OFFCURVE",
"347 1248 OFFCURVE",
"391 1271 CURVE",
"391 1168 LINE SMOOTH",
"391 1116 OFFCURVE",
"392 1067 OFFCURVE",
"392 1008 CURVE SMOOTH",
"392 723 LINE",
"270 723 LINE"
);
}
);
width = 1190;
}
);
unicode = 00B9;
},
{
glyphname = uni00B2;
layers = (
{
layerId = "9FF46155-5700-4CC7-A83F-22EBDC7BC473";
name = Regular;
paths = (
{
closed = 1;
nodes = (
"283 604 LINE",
"829 604 LINE",
"829 722 LINE",
"465 722 LINE",
"557 802 OFFCURVE",
"650 879 OFFCURVE",
"724 968 CURVE SMOOTH",
"778 1033 OFFCURVE",
"830 1108 OFFCURVE",
"830 1213 CURVE SMOOTH",
"830 1248 OFFCURVE",
"823 1279 OFFCURVE",
"810 1307 CURVE SMOOTH",
"771 1388 OFFCURVE",
"685 1440 OFFCURVE",
"567 1440 CURVE SMOOTH",
"429 1440 OFFCURVE",
"334 1370 OFFCURVE",
"291 1270 CURVE",
"376 1192 LINE",
"409 1262 OFFCURVE",
"466 1323 OFFCURVE",
"561 1323 CURVE SMOOTH",
"640 1323 OFFCURVE",
"701 1286 OFFCURVE",
"701 1211 CURVE SMOOTH",
"701 1183 OFFCURVE",
"691 1152 OFFCURVE",
"670 1118 CURVE SMOOTH",
"649 1084 OFFCURVE",
"621 1047 OFFCURVE",
"584 1006 CURVE SMOOTH",
"495 908 OFFCURVE",
"389 812 OFFCURVE",
"283 715 CURVE"
);
}
);
width = 1190;
}
);
unicode = 00B2;
},
{
glyphname = uni00B3;
layers = (
{
layerId = "9FF46155-5700-4CC7-A83F-22EBDC7BC473";
name = Regular;
paths = (
{
closed = 1;
nodes = (
"292 626 OFFCURVE",
"374 586 OFFCURVE",
"481 586 CURVE SMOOTH",
"521 586 OFFCURVE",
"560 592 OFFCURVE",
"596 603 CURVE SMOOTH",
"694 634 OFFCURVE",
"780 708 OFFCURVE",
"780 834 CURVE SMOOTH",
"780 937 OFFCURVE",
"726 999 OFFCURVE",
"652 1032 CURVE",
"714 1065 OFFCURVE",
"759 1124 OFFCURVE",
"759 1213 CURVE SMOOTH",
"759 1250 OFFCURVE",
"751 1282 OFFCURVE",
"736 1310 CURVE SMOOTH",
"694 1388 OFFCURVE",
"606 1441 OFFCURVE",
"487 1441 CURVE SMOOTH",
"383 1441 OFFCURVE",
"290 1394 OFFCURVE",
"235 1340 CURVE",
"293 1244 LINE",
"342 1284 OFFCURVE",
"403 1322 OFFCURVE",
"485 1322 CURVE SMOOTH",
"566 1322 OFFCURVE",
"626 1291 OFFCURVE",
"626 1210 CURVE SMOOTH",
"626 1110 OFFCURVE",
"530 1089 OFFCURVE",
"429 1089 CURVE SMOOTH",
"380 1089 LINE",
"380 970 LINE",
"406 970 LINE SMOOTH",
"415 970 OFFCURVE",
"429 971 OFFCURVE",
"436 971 CURVE SMOOTH",
"549 971 OFFCURVE",
"651 948 OFFCURVE",
"651 837 CURVE SMOOTH",
"651 745 OFFCURVE",
"570 701 OFFCURVE",
"476 701 CURVE SMOOTH",
"411 701 OFFCURVE",
"351 727 OFFCURVE",
"295 779 CURVE",
"235 683 LINE"
);
}
);
width = 1190;
}
);
unicode = 00B3;
},
{
glyphname = uni2074;
layers = (
{
layerId = "9FF46155-5700-4CC7-A83F-22EBDC7BC473";
name = Regular;
paths = (
{
closed = 1;
nodes = (
"356 615 LINE",
"476 615 LINE",
"476 803 LINE",
"597 803 LINE",
"587 910 LINE",
"478 910 LINE",
"478 1412 LINE",
"344 1412 LINE",
"-22 894 LINE",
"-22 803 LINE",
"356 803 LINE"
);
},
{
closed = 1;
nodes = (
"117 910 LINE",
"356 1244 LINE",
"356 910 LINE"
);
}
);
width = 897;
}
);
unicode = 2074;
},
{
glyphname = asterisk;
layers = (
{
layerId = "9FF46155-5700-4CC7-A83F-22EBDC7BC473";
name = Regular;
paths = (
{
closed = 1;
nodes = (
"692 737 LINE",
"818 810 LINE",
"617 1061 LINE",
"880 1149 LINE",
"816 1274 LINE",
"581 1153 LINE",
"581 1451 LINE",
"439 1451 LINE",
"452 1351 OFFCURVE",
"467 1248 OFFCURVE",
"480 1148 CURVE",
"196 1271 LINE",
"175 1136 LINE",
"448 1058 LINE",
"257 820 LINE",
"381 745 LINE",
"534 1003 LINE"
);
}
);
width = 1065;
}
);
unicode = 002A;
},
{
glyphname = backslash;
layers = (
{
layerId = "9FF46155-5700-4CC7-A83F-22EBDC7BC473";
name = Regular;
paths = (
{
closed = 1;
nodes = (
"617 -119 LINE",
"783 -119 LINE",
"98 1451 LINE",
"-70 1451 LINE"
);
}
);
width = 706;
}
);
unicode = 005C;
},
{
glyphname = bullet;
layers = (
{
layerId = "9FF46155-5700-4CC7-A83F-22EBDC7BC473";
name = Regular;
paths = (
{
closed = 1;
nodes = (
"232 469 OFFCURVE",
"340 385 OFFCURVE",
"493 385 CURVE SMOOTH",
"594 385 OFFCURVE",
"677 426 OFFCURVE",
"732 478 CURVE SMOOTH",
"786 528 OFFCURVE",
"833 604 OFFCURVE",
"833 701 CURVE SMOOTH",
"833 743 OFFCURVE",
"824 782 OFFCURVE",
"806 820 CURVE SMOOTH",
"757 925 OFFCURVE",
"650 1010 OFFCURVE",
"498 1010 CURVE SMOOTH",
"453 1010 OFFCURVE",
"409 1002 OFFCURVE",
"368 985 CURVE SMOOTH",
"259 941 OFFCURVE",
"157 842 OFFCURVE",
"157 694 CURVE SMOOTH",
"157 652 OFFCURVE",
"166 612 OFFCURVE",
"183 575 CURVE SMOOTH"
);
}
);
width = 989;
}
);
unicode = 2022;
},
{
glyphname = colon;
layers = (
{
layerId = "9FF46155-5700-4CC7-A83F-22EBDC7BC473";
name = Regular;
paths = (
{
closed = 1;
nodes = (
"159 -11 LINE",
"376 -11 LINE",
"376 199 LINE",
"159 199 LINE"
);
},
{
closed = 1;
nodes = (
"159 841 LINE",
"376 841 LINE",
"376 1051 LINE",
"159 1051 LINE"
);
}
);
width = 540;
}
);
unicode = 003A;
},
{
glyphname = comma;
layers = (
{
layerId = "9FF46155-5700-4CC7-A83F-22EBDC7BC473";
name = Regular;
paths = (
{
closed = 1;
nodes = (
"78 -256 LINE",
"209 -256 LINE",
"372 207 LINE",
"185 207 LINE"
);
}
);
width = 540;
}
);
unicode = 002C;
},
{
glyphname = ellipsis;
layers = (
{
layerId = "9FF46155-5700-4CC7-A83F-22EBDC7BC473";
name = Regular;
paths = (
{
closed = 1;
nodes = (
"159 -11 LINE",
"376 -11 LINE",
"376 199 LINE",
"159 199 LINE"
);
},
{
closed = 1;
nodes = (
"699 -11 LINE",
"916 -11 LINE",
"916 199 LINE",
"699 199 LINE"
);
},
{
closed = 1;
nodes = (
"1239 -11 LINE",
"1456 -11 LINE",
"1456 199 LINE",
"1239 199 LINE"
);
}
);
width = 1620;
}
);
unicode = 2026;
},
{
glyphname = exclam;
layers = (
{
layerId = "9FF46155-5700-4CC7-A83F-22EBDC7BC473";
name = Regular;
paths = (
{
closed = 1;
nodes = (
"239 46 OFFCURVE",
"279 -6 OFFCURVE",
"352 -6 CURVE SMOOTH",
"409 -6 OFFCURVE",
"466 35 OFFCURVE",
"466 105 CURVE SMOOTH",
"466 165 OFFCURVE",
"426 217 OFFCURVE",
"353 217 CURVE SMOOTH",
"296 217 OFFCURVE",
"239 176 OFFCURVE",
"239 106 CURVE SMOOTH"
);
},
{
closed = 1;
nodes = (
"305 373 LINE",
"391 373 LINE",
"441 1451 LINE",
"254 1451 LINE"
);
}
);
width = 737;
}
);
unicode = 0021;
},
{
glyphname = exclamdown;
layers = (
{
layerId = "9FF46155-5700-4CC7-A83F-22EBDC7BC473";
name = Regular;
paths = (
{
closed = 1;
nodes = (
"260 -384 LINE",
"426 -384 LINE",
"426 694 LINE",
"260 694 LINE"
);
},
{
closed = 1;
nodes = (
"260 884 LINE",
"474 884 LINE",
"474 1090 LINE",
"260 1090 LINE"
);
}
);
width = 737;
}
);
unicode = 00A1;
},
{
glyphname = numbersign;
layers = (
{
layerId = "9FF46155-5700-4CC7-A83F-22EBDC7BC473";
name = Regular;
paths = (
{
closed = 1;
nodes = (
"210 60 LINE",
"356 60 LINE",
"438 485 LINE",
"699 485 LINE",
"619 60 LINE",
"764 60 LINE",
"847 485 LINE",
"1107 485 LINE",
"1121 611 LINE",
"869 611 LINE",
"920 886 LINE",
"1170 886 LINE",
"1184 1010 LINE",
"943 1010 LINE",
"1021 1420 LINE",
"875 1420 LINE",
"799 1010 LINE",
"538 1010 LINE",
"615 1420 LINE",
"469 1420 LINE",
"390 1010 LINE",
"120 1010 LINE",
"107 886 LINE",
"368 886 LINE",
"351 793 OFFCURVE",
"334 705 OFFCURVE",
"318 611 CURVE",
"53 611 LINE",
"42 485 LINE",
"294 485 LINE"
);
},
{
closed = 1;
nodes = (
"460 611 LINE",
"514 886 LINE",
"775 886 LINE",
"724 611 LINE"
);
}
);
width = 1242;
}
);
unicode = 0023;
},
{
glyphname = period;
layers = (
{
layerId = "9FF46155-5700-4CC7-A83F-22EBDC7BC473";
name = Regular;
paths = (
{
closed = 1;
nodes = (
"144 49 OFFCURVE",
"182 0 OFFCURVE",
"251 0 CURVE SMOOTH",
"305 0 OFFCURVE",
"359 39 OFFCURVE",
"359 105 CURVE SMOOTH",
"359 162 OFFCURVE",
"321 211 OFFCURVE",
"252 211 CURVE SMOOTH",
"198 211 OFFCURVE",
"144 172 OFFCURVE",
"144 106 CURVE SMOOTH"
);
}
);
width = 540;
}
);
unicode = 002E;
},
{
glyphname = periodcentered;
layers = (
{
anchors = (
{
name = _top;
position = "{-32, 837}";
}
);
layerId = "9FF46155-5700-4CC7-A83F-22EBDC7BC473";
name = Regular;
paths = (
{
closed = 1;
nodes = (
"76 513 LINE",
"293 513 LINE",
"293 723 LINE",
"76 723 LINE"
);
}
);
width = 444;
}
);
unicode = 00B7;
},
{
glyphname = question;
layers = (
{
layerId = "9FF46155-5700-4CC7-A83F-22EBDC7BC473";
name = Regular;
paths = (
{
closed = 1;
nodes = (
"346 480 OFFCURVE",
"351 416 OFFCURVE",
"356 368 CURVE",
"520 368 LINE",
"511 418 LINE SMOOTH",
"506 444 OFFCURVE",
"503 482 OFFCURVE",
"503 513 CURVE SMOOTH",
"503 544 OFFCURVE",
"512 576 OFFCURVE",
"532 607 CURVE SMOOTH",
"601 717 OFFCURVE",
"714 802 OFFCURVE",
"796 902 CURVE SMOOTH",
"845 962 OFFCURVE",
"899 1034 OFFCURVE",
"899 1133 CURVE SMOOTH",
"899 1191 OFFCURVE",
"888 1241 OFFCURVE",
"866 1284 CURVE SMOOTH",
"800 1411 OFFCURVE",
"656 1478 OFFCURVE",
"464 1478 CURVE SMOOTH",
"358 1478 OFFCURVE",
"263 1452 OFFCURVE",
"183 1413 CURVE",
"183 1267 LINE",
"254 1307 OFFCURVE",
"340 1336 OFFCURVE",
"444 1336 CURVE SMOOTH",
"597 1336 OFFCURVE",
"730 1278 OFFCURVE",
"730 1125 CURVE SMOOTH",
"730 1085 OFFCURVE",
"721 1048 OFFCURVE",
"702 1014 CURVE SMOOTH",
"640 904 OFFCURVE",
"530 830 OFFCURVE",
"446 739 CURVE SMOOTH",
"398 687 OFFCURVE",
"346 622 OFFCURVE",
"346 530 CURVE SMOOTH"
);
},
{
closed = 1;
nodes = (
"329 -11 LINE",
"546 -11 LINE",
"546 199 LINE",
"329 199 LINE"
);
}
);
width = 1032;
}
);
unicode = 003F;
},
{
glyphname = quotedbl;
layers = (
{
layerId = "9FF46155-5700-4CC7-A83F-22EBDC7BC473";
name = Regular;
paths = (
{
closed = 1;
nodes = (
"150 989 LINE",
"281 989 LINE",
"281 1451 LINE",
"114 1451 LINE"
);
},
{
closed = 1;
nodes = (
"439 989 LINE",
"569 989 LINE",
"569 1451 LINE",
"403 1451 LINE"
);
}
);
width = 720;
}
);
unicode = 0022;
},
{
glyphname = quotesingle;
layers = (
{
layerId = "9FF46155-5700-4CC7-A83F-22EBDC7BC473";
name = Regular;
paths = (
{
closed = 1;
nodes = (
"212 989 LINE",
"342 989 LINE",
"342 1451 LINE",
"176 1451 LINE"
);
}
);
width = 554;
}
);
unicode = 0027;
},
{
glyphname = semicolon;
layers = (
{
layerId = "9FF46155-5700-4CC7-A83F-22EBDC7BC473";
name = Regular;
paths = (
{
closed = 1;
nodes = (
"100 -256 LINE",
"231 -256 LINE",
"394 207 LINE",
"206 207 LINE"
);
},
{
closed = 1;
nodes = (
"159 841 LINE",
"376 841 LINE",
"376 1051 LINE",
"206 1051 LINE"
);
}
);
width = 540;
}
);
unicode = 003B;
},
{
glyphname = slash;
layers = (
{
layerId = "9FF46155-5700-4CC7-A83F-22EBDC7BC473";
name = Regular;
paths = (
{
closed = 1;
nodes = (
"-47 -215 LINE",
"116 -215 LINE",
"757 1451 LINE",
"590 1451 LINE"
);
}
);
width = 717;
}
);
unicode = 002F;
},
{
glyphname = underscore;
layers = (
{
layerId = "9FF46155-5700-4CC7-A83F-22EBDC7BC473";
name = Regular;
paths = (
{
closed = 1;
nodes = (
"-5 -273 LINE",
"998 -273 LINE",
"998 -145 LINE",
"-5 -145 LINE"
);
}
);
width = 998;
}
);
unicode = 005F;
},
{
glyphname = braceleft;
layers = (
{
layerId = "9FF46155-5700-4CC7-A83F-22EBDC7BC473";
name = Regular;
paths = (
{
closed = 1;
nodes = (
"243 -183 OFFCURVE",
"380 -251 OFFCURVE",
"566 -259 CURVE",
"566 -133 LINE",
"535 -133 OFFCURVE",
"509 -129 OFFCURVE",
"488 -122 CURVE SMOOTH",
"411 -95 OFFCURVE",
"403 -2 OFFCURVE",
"403 107 CURVE SMOOTH",
"403 172 OFFCURVE",
"405 261 OFFCURVE",
"405 325 CURVE SMOOTH",
"405 455 OFFCURVE",
"360 552 OFFCURVE",
"268 595 CURVE",
"351 640 OFFCURVE",
"408 737 OFFCURVE",
"408 868 CURVE SMOOTH",
"409 1157 LINE SMOOTH",
"409 1273 OFFCURVE",
"454 1322 OFFCURVE",
"566 1325 CURVE",
"566 1451 LINE",
"350 1451 OFFCURVE",
"243 1356 OFFCURVE",
"243 1143 CURVE",
"244 1101 OFFCURVE",
"245 1058 OFFCURVE",
"245 1016 CURVE SMOOTH",
"245 974 OFFCURVE",
"246 932 OFFCURVE",
"247 890 CURVE",
"247 759 OFFCURVE",
"206 667 OFFCURVE",
"86 656 CURVE",
"86 534 LINE",
"222 520 OFFCURVE",
"244 422 OFFCURVE",
"244 274 CURVE SMOOTH",
"243 11 LINE SMOOTH"
);
}
);
width = 627;
}
);
unicode = 007B;
},
{
glyphname = braceright;
layers = (
{
layerId = "9FF46155-5700-4CC7-A83F-22EBDC7BC473";
name = Regular;
paths = (
{
closed = 1;
nodes = (
"66 -259 LINE",
"252 -251 OFFCURVE",
"389 -183 OFFCURVE",
"389 11 CURVE SMOOTH",
"388 274 LINE SMOOTH",
"388 305 OFFCURVE",
"388 334 OFFCURVE",
"390 364 CURVE SMOOTH",
"396 466 OFFCURVE",
"445 524 OFFCURVE",
"546 534 CURVE",
"547 656 LINE",
"427 667 OFFCURVE",
"385 759 OFFCURVE",
"385 890 CURVE",
"386 932 OFFCURVE",
"387 974 OFFCURVE",
"387 1016 CURVE SMOOTH",
"387 1058 OFFCURVE",
"388 1101 OFFCURVE",
"389 1143 CURVE",
"389 1356 OFFCURVE",
"281 1451 OFFCURVE",
"66 1451 CURVE",
"66 1325 LINE",
"178 1322 OFFCURVE",
"223 1273 OFFCURVE",
"223 1157 CURVE SMOOTH",
"224 868 LINE SMOOTH",
"224 736 OFFCURVE",
"279 639 OFFCURVE",
"364 595 CURVE",
"272 552 OFFCURVE",
"227 455 OFFCURVE",
"227 325 CURVE SMOOTH",
"227 260 OFFCURVE",
"229 172 OFFCURVE",
"229 107 CURVE SMOOTH",
"229 60 OFFCURVE",
"226 21 OFFCURVE",
"221 -10 CURVE SMOOTH",
"206 -96 OFFCURVE",
"166 -133 OFFCURVE",
"66 -133 CURVE"
);
}
);
width = 627;
}
);
unicode = 007D;
},
{
glyphname = bracketleft;
layers = (
{
layerId = "9FF46155-5700-4CC7-A83F-22EBDC7BC473";
name = Regular;
paths = (
{
closed = 1;
nodes = (
"191 -259 LINE",
"548 -259 LINE",
"548 -137 LINE",
"354 -137 LINE",
"354 1329 LINE",
"547 1329 LINE",
"547 1451 LINE",
"191 1451 LINE"
);
}
);
width = 628;
}
);
unicode = 005B;
},
{
glyphname = bracketright;
layers = (
{
layerId = "9FF46155-5700-4CC7-A83F-22EBDC7BC473";
name = Regular;
paths = (
{
closed = 1;
nodes = (
"87 -259 LINE",
"442 -259 LINE",
"442 1451 LINE",
"78 1451 LINE",
"88 1329 LINE",
"278 1329 LINE",
"278 -137 LINE",
"87 -137 LINE"
);
}
);
width = 628;
}
);
unicode = 005D;
},
{
glyphname = parenleft;
layers = (
{
layerId = "9FF46155-5700-4CC7-A83F-22EBDC7BC473";
name = Regular;
paths = (
{
closed = 1;
nodes = (
"222 120 OFFCURVE",
"319 -84 OFFCURVE",
"433 -259 CURVE",
"579 -259 LINE",
"539 -196 OFFCURVE",
"502 -130 OFFCURVE",
"470 -60 CURVE SMOOTH",
"386 121 OFFCURVE",
"316 336 OFFCURVE",
"316 590 CURVE SMOOTH",
"316 944 OFFCURVE",
"429 1214 OFFCURVE",
"578 1451 CURVE",
"430 1451 LINE",
"388 1385 OFFCURVE",
"350 1318 OFFCURVE",
"316 1250 CURVE SMOOTH",
"225 1066 OFFCURVE",
"153 855 OFFCURVE",
"153 587 CURVE SMOOTH",
"153 510 OFFCURVE",
"160 434 OFFCURVE",
"175 359 CURVE SMOOTH"
);
}
);
width = 628;
}
);
unicode = 0028;
},
{
glyphname = parenright;
layers = (
{
layerId = "9FF46155-5700-4CC7-A83F-22EBDC7BC473";
name = Regular;
paths = (
{
closed = 1;
nodes = (
"256 124 OFFCURVE",
"167 -82 OFFCURVE",
"56 -259 CURVE",
"205 -259 LINE",
"349 -32 OFFCURVE",
"479 234 OFFCURVE",
"479 598 CURVE SMOOTH",
"479 675 OFFCURVE",
"472 751 OFFCURVE",
"458 826 CURVE SMOOTH",
"412 1069 OFFCURVE",
"313 1272 OFFCURVE",
"199 1451 CURVE",
"52 1451 LINE",
"94 1385 OFFCURVE",
"131 1316 OFFCURVE",
"164 1245 CURVE SMOOTH",
"246 1065 OFFCURVE",
"315 854 OFFCURVE",
"315 604 CURVE SMOOTH",
"315 524 OFFCURVE",
"309 445 OFFCURVE",
"296 368 CURVE SMOOTH"
);
}
);
width = 628;
}
);
unicode = 0029;
},
{
glyphname = emdash;
layers = (
{
layerId = "9FF46155-5700-4CC7-A83F-22EBDC7BC473";
name = Regular;
paths = (
{
closed = 1;
nodes = (
"-3 489 LINE",
"2160 489 LINE",
"2160 626 LINE",
"-3 626 LINE"
);
}
);
width = 2171;
}
);
unicode = 2014;
},
{
glyphname = endash;
layers = (
{
layerId = "9FF46155-5700-4CC7-A83F-22EBDC7BC473";
name = Regular;
paths = (
{
closed = 1;
nodes = (
"-6 489 LINE",
"1084 489 LINE",
"1084 626 LINE",
"-6 626 LINE"
);
}
);
width = 1085;
}
);
unicode = 2013;
},
{
glyphname = hyphen;
layers = (
{
layerId = "9FF46155-5700-4CC7-A83F-22EBDC7BC473";
name = Regular;
paths = (
{
closed = 1;
nodes = (
"79 489 LINE",
"651 489 LINE",
"651 626 LINE",
"79 626 LINE"
);
}
);
width = 728;
}
);
unicode = 002D;
},
{
glyphname = guillemotleft;
layers = (
{
layerId = "9FF46155-5700-4CC7-A83F-22EBDC7BC473";
name = Regular;
paths = (
{
closed = 1;
nodes = (
"515 171 LINE",
"672 171 LINE",
"416 541 LINE",
"681 914 LINE",
"521 914 LINE",
"246 541 LINE"
);
},
{
closed = 1;
nodes = (
"885 171 LINE",
"1042 171 LINE",
"786 541 LINE",
"1049 914 LINE",
"890 914 LINE",
"616 541 LINE"
);
}
);
width = 1156;
}
);
unicode = 00AB;
},
{
glyphname = guillemotright;
layers = (
{
layerId = "9FF46155-5700-4CC7-A83F-22EBDC7BC473";
name = Regular;
paths = (
{
closed = 1;
nodes = (
"165 171 LINE",
"325 171 LINE",
"600 542 LINE",
"330 914 LINE",
"172 914 LINE",
"430 542 LINE"
);
},
{
closed = 1;
nodes = (
"563 171 LINE",
"720 171 LINE",
"996 542 LINE",
"726 914 LINE",
"570 914 LINE",
"824 542 LINE"
);
}
);
width = 1156;
}
);
unicode = 00BB;
},
{
glyphname = guilsinglleft;
layers = (
{
layerId = "9FF46155-5700-4CC7-A83F-22EBDC7BC473";
name = Regular;
paths = (
{
closed = 1;
nodes = (
"374 171 LINE",
"530 171 LINE",
"275 541 LINE",
"538 914 LINE",
"379 914 LINE",
"105 541 LINE"
);
}
);
width = 642;
}
);
unicode = 2039;
},
{
glyphname = guilsinglright;
layers = (
{
layerId = "9FF46155-5700-4CC7-A83F-22EBDC7BC473";
name = Regular;
paths = (
{
closed = 1;
nodes = (
"103 171 LINE",
"260 171 LINE",
"537 542 LINE",
"266 914 LINE",
"111 914 LINE",
"365 542 LINE"
);
}
);
width = 642;
}
);
unicode = 203A;
},
{
glyphname = quotedblbase;
layers = (
{
layerId = "9FF46155-5700-4CC7-A83F-22EBDC7BC473";
name = Regular;
paths = (
{
closed = 1;
nodes = (
"178 -238 LINE",
"312 -238 LINE",
"465 201 LINE",
"283 201 LINE"
);
},
{
closed = 1;
nodes = (
"537 -238 LINE",
"670 -238 LINE",
"824 201 LINE",
"641 201 LINE"
);
}
);
width = 1024;
}
);
unicode = 201E;
},
{
glyphname = quotedblleft;
layers = (
{
layerId = "9FF46155-5700-4CC7-A83F-22EBDC7BC473";
name = Regular;
paths = (
{
closed = 1;
nodes = (
"179 1023 LINE",
"361 1023 LINE",
"466 1463 LINE",
"333 1463 LINE"
);
},
{
closed = 1;
nodes = (
"528 1023 LINE",
"711 1023 LINE",
"815 1463 LINE",
"682 1463 LINE"
);
}
);
width = 1024;
}
);
unicode = 201C;
},
{
glyphname = quotedblright;
layers = (
{
layerId = "9FF46155-5700-4CC7-A83F-22EBDC7BC473";
name = Regular;
paths = (
{
closed = 1;
nodes = (
"208 1023 LINE",
"341 1023 LINE",
"494 1463 LINE",
"312 1463 LINE"
);
},
{
closed = 1;
nodes = (
"534 1023 LINE",
"667 1023 LINE",
"821 1463 LINE",
"639 1463 LINE"
);
}
);
width = 1024;
}
);
unicode = 201D;
},
{
glyphname = quoteleft;
layers = (
{
layerId = "9FF46155-5700-4CC7-A83F-22EBDC7BC473";
name = Regular;
paths = (
{
closed = 1;
nodes = (
"130 1023 LINE",
"312 1023 LINE",
"416 1463 LINE",
"284 1463 LINE"
);
}
);
width = 553;
}
);
unicode = 2018;
},
{
glyphname = quoteright;
layers = (
{
layerId = "9FF46155-5700-4CC7-A83F-22EBDC7BC473";
name = Regular;
paths = (
{
closed = 1;
nodes = (
"140 1023 LINE",
"272 1023 LINE",
"426 1463 LINE",
"245 1463 LINE"
);
}
);
width = 553;
}
);
unicode = 2019;
},
{
glyphname = quotesinglbase;
layers = (
{
layerId = "9FF46155-5700-4CC7-A83F-22EBDC7BC473";
name = Regular;
paths = (
{
closed = 1;
nodes = (
"125 -238 LINE",
"258 -238 LINE",
"412 201 LINE",
"231 201 LINE"
);
}
);
width = 553;
}
);
unicode = 201A;
},
{
glyphname = florin;
layers = (
{
layerId = "9FF46155-5700-4CC7-A83F-22EBDC7BC473";
name = Regular;
paths = (
{
closed = 1;
nodes = (
"111 -327 OFFCURVE",
"146 -332 OFFCURVE",
"177 -332 CURVE SMOOTH",
"238 -332 OFFCURVE",
"290 -320 OFFCURVE",
"330 -295 CURVE SMOOTH",
"457 -218 OFFCURVE",
"499 -52 OFFCURVE",
"532 120 CURVE",
"659 803 LINE",
"872 803 LINE",
"882 943 LINE",
"682 943 LINE",
"718 1139 LINE SMOOTH",
"736 1236 OFFCURVE",
"776 1294 OFFCURVE",
"891 1294 CURVE SMOOTH",
"931 1294 OFFCURVE",
"967 1285 OFFCURVE",
"1000 1272 CURVE",
"1008 1417 LINE",
"964 1428 OFFCURVE",
"915 1436 OFFCURVE",
"865 1436 CURVE SMOOTH",
"643 1436 OFFCURVE",
"560 1288 OFFCURVE",
"534 1094 CURVE",
"511 943 LINE",
"342 943 LINE",
"332 803 LINE",
"487 803 LINE",
"436 538 OFFCURVE",
"397 260 OFFCURVE",
"334 7 CURVE SMOOTH",
"312 -84 OFFCURVE",
"275 -194 OFFCURVE",
"163 -194 CURVE SMOOTH",
"138 -194 OFFCURVE",
"112 -189 OFFCURVE",
"85 -178 CURVE",
"73 -316 LINE"
);
}
);
width = 1190;
}
);
unicode = 0192;
},
{
glyphname = cent;
layers = (
{
layerId = "9FF46155-5700-4CC7-A83F-22EBDC7BC473";
name = Regular;
paths = (
{
closed = 1;
nodes = (
"94 193 OFFCURVE",
"315 -23 OFFCURVE",
"609 -23 CURVE SMOOTH",
"723 -23 OFFCURVE",
"849 11 OFFCURVE",
"976 87 CURVE",
"940 225 LINE",
"825 146 OFFCURVE",
"714 117 OFFCURVE",
"616 117 CURVE SMOOTH",
"412 117 OFFCURVE",
"267 258 OFFCURVE",
"267 508 CURVE SMOOTH",
"267 737 OFFCURVE",
"389 909 OFFCURVE",
"619 909 CURVE SMOOTH",
"738 909 OFFCURVE",
"826 872 OFFCURVE",
"883 801 CURVE",
"960 912 LINE",
"892 1002 OFFCURVE",
"769 1051 OFFCURVE",
"610 1051 CURVE SMOOTH",
"289 1051 OFFCURVE",
"94 824 OFFCURVE",
"94 503 CURVE SMOOTH"
);
},
{
closed = 1;
nodes = (
"553 -235 LINE",
"666 -235 LINE",
"666 1281 LINE",
"553 1281 LINE"
);
}
);
width = 1189;
}
);
unicode = 00A2;
},
{
glyphname = currency;
layers = (
{
layerId = "9FF46155-5700-4CC7-A83F-22EBDC7BC473";
name = Regular;
paths = (
{
closed = 1;
nodes = (
"157 195 LINE",
"344 389 LINE",
"311 429 LINE",
"121 232 LINE"
);
},
{
closed = 1;
nodes = (
"301 877 LINE",
"342 913 LINE",
"145 1104 LINE",
"106 1065 LINE"
);
},
{
closed = 1;
nodes = (
"861 482 OFFCURVE",
"733 351 OFFCURVE",
"564 351 CURVE SMOOTH",
"395 351 OFFCURVE",
"263 489 OFFCURVE",
"263 658 CURVE SMOOTH",
"263 827 OFFCURVE",
"403 969 OFFCURVE",
"572 965 CURVE SMOOTH",
"740 961 OFFCURVE",
"869 820 OFFCURVE",
"865 651 CURVE SMOOTH"
);
},
{
closed = 1;
nodes = (
"175 448 OFFCURVE",
"353 274 OFFCURVE",
"566 274 CURVE SMOOTH",
"779 274 OFFCURVE",
"952 439 OFFCURVE",
"957 651 CURVE SMOOTH",
"962 864 OFFCURVE",
"789 1043 OFFCURVE",
"576 1048 CURVE SMOOTH",
"363 1053 OFFCURVE",
"175 874 OFFCURVE",
"175 661 CURVE SMOOTH"
);
},
{
closed = 1;
nodes = (
"994 210 LINE",
"1031 246 LINE",
"836 434 LINE",
"800 397 LINE"
);
},
{
closed = 1;
nodes = (
"828 887 LINE",
"1016 1081 LINE",
"976 1120 LINE",
"788 924 LINE"
);
}
);
width = 1238;
}
);
unicode = 00A4;
},
{
glyphname = dollar;
layers = (
{
layerId = "9FF46155-5700-4CC7-A83F-22EBDC7BC473";
name = Regular;
paths = (
{
closed = 1;
nodes = (
"536 -172 LINE",
"659 -172 LINE",
"656 -11 LINE",
"713 -6 OFFCURVE",
"768 5 OFFCURVE",
"819 24 CURVE SMOOTH",
"957 74 OFFCURVE",
"1080 177 OFFCURVE",
"1080 361 CURVE SMOOTH",
"1080 477 OFFCURVE",
"1038 547 OFFCURVE",
"972 604 CURVE SMOOTH",
"888 677 OFFCURVE",
"779 722 OFFCURVE",
"656 770 CURVE",
"658 1299 LINE",
"781 1295 OFFCURVE",
"878 1261 OFFCURVE",
"948 1198 CURVE",
"997 1326 LINE",
"917 1394 OFFCURVE",
"798 1436 OFFCURVE",
"657 1439 CURVE",
"654 1575 LINE",
"530 1575 LINE",
"534 1437 LINE",
"421 1428 OFFCURVE",
"325 1377 OFFCURVE",
"259 1315 CURVE SMOOTH",
"195 1254 OFFCURVE",
"137 1164 OFFCURVE",
"137 1047 CURVE SMOOTH",
"137 991 OFFCURVE",
"148 944 OFFCURVE",
"169 904 CURVE SMOOTH",
"240 772 OFFCURVE",
"390 712 OFFCURVE",
"534 648 CURVE",
"531 127 LINE",
"421 132 OFFCURVE",
"325 173 OFFCURVE",
"251 223 CURVE",
"202 89 LINE",
"291 25 OFFCURVE",
"393 -13 OFFCURVE",
"532 -16 CURVE"
);
},
{
closed = 1;
nodes = (
"841 192 OFFCURVE",
"758 145 OFFCURVE",
"654 131 CURVE",
"658 605 LINE",
"765 559 OFFCURVE",
"901 507 OFFCURVE",
"901 358 CURVE SMOOTH",
"901 325 OFFCURVE",
"894 296 OFFCURVE",
"881 270 CURVE SMOOTH"
);
},
{
closed = 1;
nodes = (
"532 818 LINE",
"425 858 OFFCURVE",
"326 913 OFFCURVE",
"326 1059 CURVE SMOOTH",
"326 1193 OFFCURVE",
"414 1278 OFFCURVE",
"534 1293 CURVE"
);
}
);
width = 1190;
}
);
unicode = 0024;
},
{
glyphname = sterling;
layers = (
{
layerId = "9FF46155-5700-4CC7-A83F-22EBDC7BC473";
name = Regular;
paths = (
{
closed = 1;
nodes = (
"115 0 LINE",
"1081 0 LINE",
"1081 141 LINE",
"370 141 LINE",
"386 154 OFFCURVE",
"400 171 OFFCURVE",
"411 194 CURVE SMOOTH",
"466 305 OFFCURVE",
"468 476 OFFCURVE",
"468 641 CURVE SMOOTH",
"468 690 LINE",
"798 690 LINE",
"798 832 LINE",
"466 832 LINE",
"463 947 LINE",
"463 1156 OFFCURVE",
"528 1307 OFFCURVE",
"736 1307 CURVE SMOOTH",
"847 1307 OFFCURVE",
"940 1280 OFFCURVE",
"1010 1237 CURVE",
"1062 1357 LINE",
"985 1418 OFFCURVE",
"876 1448 OFFCURVE",
"733 1448 CURVE SMOOTH",
"380 1448 OFFCURVE",
"294 1211 OFFCURVE",
"294 861 CURVE SMOOTH",
"294 851 OFFCURVE",
"295 842 OFFCURVE",
"296 832 CURVE",
"114 832 LINE",
"114 690 LINE",
"297 690 LINE",
"297 440 LINE SMOOTH",
"297 272 OFFCURVE",
"218 199 OFFCURVE",
"114 138 CURVE"
);
}
);
width = 1189;
}
);
unicode = 00A3;
},
{
glyphname = yen;
layers = (
{
components = (
{
name = Y;
transform = "{1, 0, 0, 1, 0, 0}";
}
);
layerId = "9FF46155-5700-4CC7-A83F-22EBDC7BC473";
name = Regular;
paths = (
{
closed = 1;
nodes = (
"147 283 LINE",
"1102 283 LINE",
"1102 423 LINE",
"695 423 LINE",
"695 574 LINE",
"1099 574 LINE",
"1099 716 LINE",
"141 716 LINE",
"141 574 LINE",
"554 574 LINE",
"554 423 LINE",
"147 423 LINE"
);
}
);
width = 1266;
}
);
unicode = 00A5;
},
{
glyphname = approxequal;
layers = (
{
layerId = "9FF46155-5700-4CC7-A83F-22EBDC7BC473";
name = Regular;
paths = (
{
closed = 1;
nodes = (
"268 261 LINE",
"294 349 OFFCURVE",
"342 426 OFFCURVE",
"449 426 CURVE SMOOTH",
"477 426 OFFCURVE",
"506 420 OFFCURVE",
"536 407 CURVE SMOOTH",
"588 385 OFFCURVE",
"657 343 OFFCURVE",
"707 317 CURVE SMOOTH",
"762 289 OFFCURVE",
"819 262 OFFCURVE",
"898 262 CURVE SMOOTH",
"1072 262 OFFCURVE",
"1154 375 OFFCURVE",
"1187 518 CURVE",
"1077 546 LINE",
"1046 463 OFFCURVE",
"1004 380 OFFCURVE",
"904 380 CURVE SMOOTH",
"875 380 OFFCURVE",
"844 389 OFFCURVE",
"810 406 CURVE SMOOTH",
"776 423 OFFCURVE",
"740 442 OFFCURVE",
"702 463 CURVE SMOOTH",
"635 500 OFFCURVE",
"550 546 OFFCURVE",
"452 546 CURVE SMOOTH",
"283 546 OFFCURVE",
"189 433 OFFCURVE",
"154 289 CURVE"
);
},
{
closed = 1;
nodes = (
"267 634 LINE",
"293 721 OFFCURVE",
"340 799 OFFCURVE",
"446 799 CURVE SMOOTH",
"474 799 OFFCURVE",
"503 793 OFFCURVE",
"532 780 CURVE SMOOTH",
"584 757 OFFCURVE",
"653 715 OFFCURVE",
"704 689 CURVE SMOOTH",
"761 660 OFFCURVE",
"816 634 OFFCURVE",
"896 634 CURVE SMOOTH",
"1069 634 OFFCURVE",
"1155 745 OFFCURVE",
"1185 890 CURVE",
"1075 918 LINE",
"1045 832 OFFCURVE",
"1003 752 OFFCURVE",
"902 752 CURVE SMOOTH",
"875 752 OFFCURVE",
"846 759 OFFCURVE",
"814 772 CURVE SMOOTH",
"706 816 OFFCURVE",
"597 917 OFFCURVE",
"450 917 CURVE SMOOTH",
"279 917 OFFCURVE",
"185 808 OFFCURVE",
"152 661 CURVE"
);
}
);
width = 1351;
}
);
unicode = 2248;
},
{
glyphname = asciitilde;
layers = (
{
layerId = "9FF46155-5700-4CC7-A83F-22EBDC7BC473";
name = Regular;
paths = (
{
closed = 1;
nodes = (
"304 385 LINE",
"325 475 OFFCURVE",
"384 571 OFFCURVE",
"494 571 CURVE SMOOTH",
"515 571 OFFCURVE",
"538 567 OFFCURVE",
"564 559 CURVE SMOOTH",
"650 532 OFFCURVE",
"731 487 OFFCURVE",
"810 452 CURVE SMOOTH",
"852 433 OFFCURVE",
"904 410 OFFCURVE",
"956 410 CURVE SMOOTH",
"996 410 OFFCURVE",
"1032 416 OFFCURVE",
"1065 430 CURVE SMOOTH",
"1167 473 OFFCURVE",
"1228 566 OFFCURVE",
"1256 684 CURVE",
"1131 723 LINE",
"1112 641 OFFCURVE",
"1057 545 OFFCURVE",
"957 545 CURVE SMOOTH",
"941 545 OFFCURVE",
"922 549 OFFCURVE",
"900 557 CURVE SMOOTH",
"819 587 OFFCURVE",
"739 632 OFFCURVE",
"658 664 CURVE SMOOTH",
"609 683 OFFCURVE",
"552 705 OFFCURVE",
"491 705 CURVE SMOOTH",
"449 705 OFFCURVE",
"411 698 OFFCURVE",
"377 683 CURVE SMOOTH",
"280 641 OFFCURVE",
"213 553 OFFCURVE",
"189 440 CURVE"
);
}
);
width = 1458;
}
);
unicode = 007E;
},
{
glyphname = divide;
layers = (
{
layerId = "9FF46155-5700-4CC7-A83F-22EBDC7BC473";
name = Regular;
paths = (
{
closed = 1;
nodes = (
"619 21 LINE",
"836 21 LINE",
"836 231 LINE",
"619 231 LINE"
);
},
{
closed = 1;
nodes = (
"198 485 LINE",
"1246 485 LINE",
"1246 624 LINE",
"198 624 LINE"
);
},
{
closed = 1;
nodes = (
"619 873 LINE",
"836 873 LINE",
"836 1083 LINE",
"619 1083 LINE"
);
}
);
width = 1458;
}
);
unicode = 00F7;
},
{
glyphname = equal;
layers = (
{
layerId = "9FF46155-5700-4CC7-A83F-22EBDC7BC473";
name = Regular;
paths = (
{
closed = 1;
nodes = (
"198 283 LINE",
"1247 283 LINE",
"1247 420 LINE",
"198 420 LINE"
);
},
{
closed = 1;
nodes = (
"197 689 LINE",
"1246 689 LINE",
"1246 827 LINE",
"197 827 LINE"
);
}
);
width = 1458;
}
);
unicode = 003D;
},
{
glyphname = greater;
layers = (
{
layerId = "9FF46155-5700-4CC7-A83F-22EBDC7BC473";
name = Regular;
paths = (
{
closed = 1;
nodes = (
"215 58 LINE",
"1225 505 LINE",
"1225 594 LINE",
"220 1078 LINE",
"220 926 LINE",
"1004 555 LINE",
"215 212 LINE"
);
}
);
width = 1458;
}
);
unicode = 003E;
},
{
glyphname = greaterequal;
layers = (
{
layerId = "9FF46155-5700-4CC7-A83F-22EBDC7BC473";
name = Regular;
paths = (
{
closed = 1;
nodes = (
"192 218 LINE",
"1152 668 LINE",
"1152 748 LINE",
"196 1221 LINE",
"196 1081 LINE",
"974 707 LINE",
"192 359 LINE"
);
},
{
closed = 1;
nodes = (
"161 9 LINE",
"1171 9 LINE",
"1171 131 LINE",
"161 131 LINE"
);
}
);
width = 1350;
}
);
unicode = 2265;
},
{
glyphname = infinity;
layers = (
{
layerId = "9FF46155-5700-4CC7-A83F-22EBDC7BC473";
name = Regular;
paths = (
{
closed = 1;
nodes = (
"172 339 OFFCURVE",
"285 236 OFFCURVE",
"460 236 CURVE SMOOTH",
"500 236 OFFCURVE",
"538 242 OFFCURVE",
"574 254 CURVE SMOOTH",
"698 297 OFFCURVE",
"785 391 OFFCURVE",
"860 488 CURVE",
"926 404 OFFCURVE",
"991 341 OFFCURVE",
"1054 299 CURVE SMOOTH",
"1117 257 OFFCURVE",
"1186 236 OFFCURVE",
"1260 236 CURVE SMOOTH",
"1308 236 OFFCURVE",
"1354 245 OFFCURVE",
"1398 262 CURVE SMOOTH",
"1522 311 OFFCURVE",
"1621 425 OFFCURVE",
"1621 595 CURVE SMOOTH",
"1621 646 OFFCURVE",
"1613 692 OFFCURVE",
"1596 735 CURVE SMOOTH",
"1547 859 OFFCURVE",
"1434 944 OFFCURVE",
"1262 944 CURVE SMOOTH",
"1219 944 OFFCURVE",
"1180 938 OFFCURVE",
"1144 926 CURVE SMOOTH",
"1019 884 OFFCURVE",
"936 789 OFFCURVE",
"862 692 CURVE",
"833 730 OFFCURVE",
"803 765 OFFCURVE",
"772 796 CURVE SMOOTH",
"696 873 OFFCURVE",
"600 944 OFFCURVE",
"455 944 CURVE SMOOTH",
"350 944 OFFCURVE",
"262 900 OFFCURVE",
"204 847 CURVE SMOOTH",
"146 795 OFFCURVE",
"96 715 OFFCURVE",
"96 612 CURVE SMOOTH",
"96 561 OFFCURVE",
"104 512 OFFCURVE",
"122 467 CURVE SMOOTH"
);
},
{
closed = 1;
nodes = (
"594 388 OFFCURVE",
"538 355 OFFCURVE",
"463 355 CURVE SMOOTH",
"427 355 OFFCURVE",
"395 362 OFFCURVE",
"366 375 CURVE SMOOTH",
"290 410 OFFCURVE",
"226 485 OFFCURVE",
"226 592 CURVE SMOOTH",
"226 624 OFFCURVE",
"232 654 OFFCURVE",
"242 683 CURVE SMOOTH",
"272 766 OFFCURVE",
"341 829 OFFCURVE",
"453 829 CURVE SMOOTH",
"488 829 OFFCURVE",
"521 822 OFFCURVE",
"552 810 CURVE SMOOTH",
"658 768 OFFCURVE",
"729 679 OFFCURVE",
"791 589 CURVE",
"747 529 OFFCURVE",
"697 468 OFFCURVE",
"640 424 CURVE SMOOTH"
);
},
{
closed = 1;
nodes = (
"1482 466 OFFCURVE",
"1414 355 OFFCURVE",
"1263 355 CURVE SMOOTH",
"1190 355 OFFCURVE",
"1141 380 OFFCURVE",
"1095 415 CURVE SMOOTH",
"1031 463 OFFCURVE",
"982 523 OFFCURVE",
"929 592 CURVE",
"970 652 OFFCURVE",
"1019 712 OFFCURVE",
"1075 756 CURVE SMOOTH",
"1122 793 OFFCURVE",
"1182 829 OFFCURVE",
"1258 829 CURVE SMOOTH",
"1291 829 OFFCURVE",
"1320 823 OFFCURVE",
"1348 812 CURVE SMOOTH",
"1420 782 OFFCURVE",
"1482 717 OFFCURVE",
"1482 618 CURVE SMOOTH"
);
}
);
width = 1724;
}
);
unicode = 221E;
},
{
glyphname = integral;
layers = (
{
layerId = "9FF46155-5700-4CC7-A83F-22EBDC7BC473";
name = Regular;
paths = (
{
closed = 1;
nodes = (
"172 -391 OFFCURVE",
"201 -399 OFFCURVE",
"260 -399 CURVE SMOOTH",
"483 -399 OFFCURVE",
"557 -245 OFFCURVE",
"557 -23 CURVE SMOOTH",
"557 1279 LINE SMOOTH",
"557 1415 OFFCURVE",
"584 1496 OFFCURVE",
"720 1496 CURVE SMOOTH",
"757 1496 OFFCURVE",
"804 1491 OFFCURVE",
"830 1481 CURVE",
"828 1610 LINE",
"784 1620 OFFCURVE",
"747 1631 OFFCURVE",
"692 1631 CURVE SMOOTH",
"469 1631 OFFCURVE",
"393 1477 OFFCURVE",
"393 1255 CURVE SMOOTH",
"393 -47 LINE SMOOTH",
"393 -183 OFFCURVE",
"368 -264 OFFCURVE",
"232 -264 CURVE SMOOTH",
"195 -264 OFFCURVE",
"148 -259 OFFCURVE",
"122 -249 CURVE",
"124 -378 LINE"
);
}
);
width = 702;
}
);
unicode = 222B;
},
{
glyphname = less;
layers = (
{
layerId = "9FF46155-5700-4CC7-A83F-22EBDC7BC473";
name = Regular;
paths = (
{
closed = 1;
nodes = (
"1223 48 LINE",
"1223 200 LINE",
"438 552 LINE",
"1227 914 LINE",
"1227 1067 LINE",
"219 595 LINE",
"219 508 LINE"
);
}
);
width = 1458;
}
);
unicode = 003C;
},
{
glyphname = lessequal;
layers = (
{
layerId = "9FF46155-5700-4CC7-A83F-22EBDC7BC473";
name = Regular;
paths = (
{
closed = 1;
nodes = (
"1146 216 LINE",
"1146 357 LINE",
"372 710 LINE",
"1146 1079 LINE",
"1146 1219 LINE",
"197 747 LINE",
"197 666 LINE"
);
},
{
closed = 1;
nodes = (
"161 9 LINE",
"1175 9 LINE",
"1175 131 LINE",
"161 131 LINE"
);
}
);
width = 1351;
}
);
unicode = 2264;
},
{
glyphname = logicalnot;
layers = (
{
layerId = "9FF46155-5700-4CC7-A83F-22EBDC7BC473";
name = Regular;
paths = (
{
closed = 1;
nodes = (
"1098 238 LINE",
"1248 238 LINE",
"1248 798 LINE",
"200 798 LINE",
"200 659 LINE",
"1098 659 LINE"
);
}
);
width = 1458;
}
);
unicode = 00AC;
},
{
glyphname = minus;
layers = (
{
layerId = "9FF46155-5700-4CC7-A83F-22EBDC7BC473";
name = Regular;
paths = (
{
closed = 1;
nodes = (
"198 496 LINE",
"1247 496 LINE",
"1247 633 LINE",
"198 633 LINE"
);
}
);
width = 1458;
}
);
unicode = 2212;
},
{
glyphname = multiply;
layers = (
{
layerId = "9FF46155-5700-4CC7-A83F-22EBDC7BC473";
name = Regular;
paths = (
{
closed = 1;
nodes = (
"425 154 LINE",
"722 450 LINE",
"1018 154 LINE",
"1122 258 LINE",
"825 554 LINE",
"1122 850 LINE",
"1018 954 LINE",
"722 657 LINE",
"425 954 LINE",
"322 851 LINE",
"618 554 LINE",
"322 257 LINE"
);
}
);
width = 1458;
}
);
unicode = 00D7;
},
{
glyphname = notequal;
layers = (
{
layerId = "9FF46155-5700-4CC7-A83F-22EBDC7BC473";
name = Regular;
paths = (
{
closed = 1;
nodes = (
"457 46 LINE",
"597 325 LINE",
"1182 325 LINE",
"1173 445 LINE",
"656 445 LINE",
"804 728 LINE",
"1182 728 LINE",
"1172 849 LINE",
"862 849 LINE",
"989 1105 LINE",
"864 1123 LINE",
"728 849 LINE",
"160 849 LINE",
"170 728 LINE",
"671 728 LINE",
"524 445 LINE",
"161 445 LINE",
"170 325 LINE",
"463 325 LINE",
"335 64 LINE"
);
}
);
width = 1351;
}
);
unicode = 2260;
},
{
glyphname = partialdiff;
layers = (
{
layerId = "9FF46155-5700-4CC7-A83F-22EBDC7BC473";
name = Regular;
paths = (
{
closed = 1;
nodes = (
"160 87 OFFCURVE",
"284 -24 OFFCURVE",
"492 -24 CURVE SMOOTH",
"557 -24 OFFCURVE",
"618 -12 OFFCURVE",
"672 11 CURVE SMOOTH",
"786 60 OFFCURVE",
"870 146 OFFCURVE",
"931 252 CURVE SMOOTH",
"1020 407 OFFCURVE",
"1074 611 OFFCURVE",
"1074 852 CURVE SMOOTH",
"1074 969 OFFCURVE",
"1063 1070 OFFCURVE",
"1040 1156 CURVE SMOOTH",
"983 1373 OFFCURVE",
"853 1533 OFFCURVE",
"588 1533 CURVE SMOOTH",
"466 1533 OFFCURVE",
"355 1492 OFFCURVE",
"280 1442 CURVE",
"291 1304 LINE",
"361 1351 OFFCURVE",
"451 1399 OFFCURVE",
"565 1399 CURVE SMOOTH",
"618 1399 OFFCURVE",
"664 1388 OFFCURVE",
"706 1366 CURVE SMOOTH",
"842 1293 OFFCURVE",
"903 1123 OFFCURVE",
"903 911 CURVE SMOOTH",
"903 890 OFFCURVE",
"902 856 OFFCURVE",
"902 836 CURVE",
"832 927 OFFCURVE",
"736 1002 OFFCURVE",
"586 1002 CURVE SMOOTH",
"516 1002 OFFCURVE",
"451 987 OFFCURVE",
"390 957 CURVE SMOOTH",
"213 870 OFFCURVE",
"83 681 OFFCURVE",
"83 420 CURVE SMOOTH",
"83 357 OFFCURVE",
"92 299 OFFCURVE",
"109 245 CURVE SMOOTH"
);
},
{
closed = 1;
nodes = (
"700 190 OFFCURVE",
"618 111 OFFCURVE",
"495 111 CURVE SMOOTH",
"458 111 OFFCURVE",
"424 118 OFFCURVE",
"394 133 CURVE SMOOTH",
"302 178 OFFCURVE",
"252 280 OFFCURVE",
"252 417 CURVE SMOOTH",
"252 547 OFFCURVE",
"296 658 OFFCURVE",
"355 734 CURVE SMOOTH",
"409 804 OFFCURVE",
"494 869 OFFCURVE",
"609 869 CURVE SMOOTH",
"644 869 OFFCURVE",
"676 864 OFFCURVE",
"705 852 CURVE SMOOTH",
"792 817 OFFCURVE",
"853 744 OFFCURVE",
"885 655 CURVE",
"868 507 OFFCURVE",
"821 369 OFFCURVE",
"755 271 CURVE SMOOTH"
);
}
);
width = 1167;
}
);
unicode = 2202;
},
{
glyphname = percent;
layers = (
{
layerId = "9FF46155-5700-4CC7-A83F-22EBDC7BC473";
name = Regular;
paths = (
{
closed = 1;
nodes = (
"237 783 OFFCURVE",
"344 686 OFFCURVE",
"520 686 CURVE SMOOTH",
"575 686 OFFCURVE",
"624 696 OFFCURVE",
"668 716 CURVE SMOOTH",
"791 772 OFFCURVE",
"877 892 OFFCURVE",
"877 1068 CURVE SMOOTH",
"877 1294 OFFCURVE",
"753 1447 OFFCURVE",
"526 1447 CURVE SMOOTH",
"471 1447 OFFCURVE",
"421 1438 OFFCURVE",
"377 1418 CURVE SMOOTH",
"253 1363 OFFCURVE",
"168 1240 OFFCURVE",
"168 1064 CURVE SMOOTH",
"168 1011 OFFCURVE",
"176 961 OFFCURVE",
"192 915 CURVE SMOOTH"
);
},
{
closed = 1;
nodes = (
"1167 70 OFFCURVE",
"1273 -27 OFFCURVE",
"1449 -27 CURVE SMOOTH",
"1504 -27 OFFCURVE",
"1553 -17 OFFCURVE",
"1597 3 CURVE SMOOTH",
"1720 59 OFFCURVE",
"1806 180 OFFCURVE",
"1806 356 CURVE SMOOTH",
"1806 582 OFFCURVE",
"1682 735 OFFCURVE",
"1455 735 CURVE SMOOTH",
"1400 735 OFFCURVE",
"1350 725 OFFCURVE",
"1306 705 CURVE SMOOTH",
"1182 649 OFFCURVE",
"1097 528 OFFCURVE",
"1097 351 CURVE SMOOTH",
"1097 298 OFFCURVE",
"1105 248 OFFCURVE",
"1121 202 CURVE SMOOTH"
);
},
{
closed = 1;
nodes = (
"734 923 OFFCURVE",
"670 799 OFFCURVE",
"524 799 CURVE SMOOTH",
"376 799 OFFCURVE",
"312 917 OFFCURVE",
"312 1065 CURVE SMOOTH",
"312 1212 OFFCURVE",
"377 1335 OFFCURVE",
"525 1335 CURVE SMOOTH",
"560 1335 OFFCURVE",
"592 1328 OFFCURVE",
"618 1314 CURVE SMOOTH",
"695 1273 OFFCURVE",
"734 1186 OFFCURVE",
"734 1069 CURVE SMOOTH"
);
},
{
closed = 1;
nodes = (
"1662 211 OFFCURVE",
"1599 86 OFFCURVE",
"1452 86 CURVE SMOOTH",
"1416 86 OFFCURVE",
"1384 93 OFFCURVE",
"1358 107 CURVE SMOOTH",
"1281 148 OFFCURVE",
"1241 234 OFFCURVE",
"1241 350 CURVE SMOOTH",
"1241 497 OFFCURVE",
"1306 622 OFFCURVE",
"1454 622 CURVE SMOOTH",
"1600 622 OFFCURVE",
"1662 504 OFFCURVE",
"1662 357 CURVE SMOOTH"
);
},
{
closed = 1;
nodes = (
"440 -5 LINE",
"594 -5 LINE",
"1499 1436 LINE",
"1344 1436 LINE"
);
}
);
width = 1985;
}
);
unicode = 0025;
},
{
glyphname = perthousand;
layers = (
{
layerId = "9FF46155-5700-4CC7-A83F-22EBDC7BC473";
name = Regular;
paths = (
{
closed = 1;
nodes = (
"73 878 OFFCURVE",
"192 740 OFFCURVE",
"410 740 CURVE SMOOTH",
"463 740 OFFCURVE",
"511 748 OFFCURVE",
"553 766 CURVE SMOOTH",
"670 815 OFFCURVE",
"749 928 OFFCURVE",
"749 1092 CURVE SMOOTH",
"749 1312 OFFCURVE",
"632 1447 OFFCURVE",
"412 1447 CURVE SMOOTH",
"358 1447 OFFCURVE",
"310 1438 OFFCURVE",
"268 1420 CURVE SMOOTH",
"150 1371 OFFCURVE",
"73 1260 OFFCURVE",
"73 1095 CURVE SMOOTH"
);
},
{
closed = 1;
nodes = (
"835 111 OFFCURVE",
"954 -27 OFFCURVE",
"1172 -27 CURVE SMOOTH",
"1226 -27 OFFCURVE",
"1274 -18 OFFCURVE",
"1316 0 CURVE SMOOTH",
"1434 50 OFFCURVE",
"1511 160 OFFCURVE",
"1511 325 CURVE SMOOTH",
"1511 544 OFFCURVE",
"1395 681 OFFCURVE",
"1176 681 CURVE SMOOTH",
"1121 681 OFFCURVE",
"1072 672 OFFCURVE",
"1030 654 CURVE SMOOTH",
"911 604 OFFCURVE",
"835 494 OFFCURVE",
"835 328 CURVE SMOOTH"
);
},
{
closed = 1;
nodes = (
"1623 112 OFFCURVE",
"1742 -27 OFFCURVE",
"1959 -27 CURVE SMOOTH",
"2013 -27 OFFCURVE",
"2061 -18 OFFCURVE",
"2103 0 CURVE SMOOTH",
"2220 49 OFFCURVE",
"2299 161 OFFCURVE",
"2299 325 CURVE SMOOTH",
"2299 545 OFFCURVE",
"2184 681 OFFCURVE",
"1964 681 CURVE SMOOTH",
"1909 681 OFFCURVE",
"1860 672 OFFCURVE",
"1818 654 CURVE SMOOTH",
"1699 604 OFFCURVE",
"1623 494 OFFCURVE",
"1623 328 CURVE SMOOTH"
);
},
{
closed = 1;
nodes = (
"604 963 OFFCURVE",
"545 853 OFFCURVE",
"414 853 CURVE SMOOTH",
"278 853 OFFCURVE",
"219 960 OFFCURVE",
"219 1096 CURVE SMOOTH",
"219 1227 OFFCURVE",
"280 1335 OFFCURVE",
"411 1335 CURVE SMOOTH",
"545 1335 OFFCURVE",
"604 1228 OFFCURVE",
"604 1093 CURVE SMOOTH"
);
},
{
closed = 1;
nodes = (
"245 -21 LINE",
"398 -21 LINE",
"1332 1436 LINE",
"1183 1436 LINE"
);
},
{
closed = 1;
nodes = (
"1367 196 OFFCURVE",
"1306 86 OFFCURVE",
"1175 86 CURVE SMOOTH",
"1040 86 OFFCURVE",
"980 192 OFFCURVE",
"980 328 CURVE SMOOTH",
"980 461 OFFCURVE",
"1041 567 OFFCURVE",
"1174 567 CURVE SMOOTH",
"1309 567 OFFCURVE",
"1367 463 OFFCURVE",
"1367 327 CURVE SMOOTH"
);
},
{
closed = 1;
nodes = (
"2156 195 OFFCURVE",
"2095 86 OFFCURVE",
"1963 86 CURVE SMOOTH",
"1828 86 OFFCURVE",
"1768 192 OFFCURVE",
"1768 328 CURVE SMOOTH",
"1768 461 OFFCURVE",
"1829 567 OFFCURVE",
"1962 567 CURVE SMOOTH",
"2096 567 OFFCURVE",
"2156 461 OFFCURVE",
"2156 327 CURVE SMOOTH"
);
}
);
width = 2386;
}
);
unicode = 2030;
},
{
glyphname = plus;
layers = (
{
layerId = "9FF46155-5700-4CC7-A83F-22EBDC7BC473";
name = Regular;
paths = (
{
closed = 1;
nodes = (
"646 62 LINE",
"795 62 LINE",
"795 485 LINE",
"1246 485 LINE",
"1246 624 LINE",
"797 624 LINE",
"797 1047 LINE",
"649 1047 LINE",
"649 624 LINE",
"198 624 LINE",
"198 485 LINE",
"646 485 LINE"
);
}
);
width = 1458;
}
);
unicode = 002B;
},
{
glyphname = plusminus;
layers = (
{
layerId = "9FF46155-5700-4CC7-A83F-22EBDC7BC473";
name = Regular;
paths = (
{
closed = 1;
nodes = (
"647 223 LINE",
"798 223 LINE",
"798 595 LINE",
"1245 595 LINE",
"1245 733 LINE",
"794 733 LINE",
"794 1107 LINE",
"645 1107 LINE",
"645 733 LINE",
"188 733 LINE",
"200 595 LINE",
"647 595 LINE"
);
},
{
closed = 1;
nodes = (
"200 0 LINE",
"1249 0 LINE",
"1249 138 LINE",
"200 138 LINE"
);
}
);
width = 1458;
}
);
unicode = 00B1;
},
{
glyphname = product;
layers = (
{
layerId = "9FF46155-5700-4CC7-A83F-22EBDC7BC473";
name = Regular;
paths = (
{
closed = 1;
nodes = (
"251 -329 LINE",
"426 -329 LINE",
"426 1278 LINE",
"1149 1278 LINE",
"1149 -329 LINE",
"1327 -329 LINE",
"1327 1278 LINE",
"1440 1278 LINE",
"1456 1423 LINE",
"110 1423 LINE",
"126 1278 LINE",
"251 1278 LINE"
);
}
);
width = 1568;
}
);
unicode = 220F;
},
{
glyphname = radical;
layers = (
{
layerId = "9FF46155-5700-4CC7-A83F-22EBDC7BC473";
name = Regular;
paths = (
{
closed = 1;
nodes = (
"611 -153 LINE",
"746 -153 LINE",
"1212 1596 LINE",
"1082 1596 LINE",
"709 217 LINE",
"669 41 LINE",
"611 214 LINE",
"382 825 LINE",
"87 774 LINE",
"107 662 LINE",
"279 690 LINE"
);
}
);
width = 1314;
}
);
unicode = 221A;
},
{
glyphname = summation;
layers = (
{
layerId = "9FF46155-5700-4CC7-A83F-22EBDC7BC473";
name = Regular;
paths = (
{
closed = 1;
nodes = (
"57 -329 LINE",
"1220 -329 LINE",
"1220 -181 LINE",
"294 -181 LINE",
"898 561 LINE",
"325 1281 LINE",
"1175 1281 LINE",
"1175 1423 LINE",
"79 1423 LINE",
"79 1328 LINE",
"697 552 LINE",
"57 -239 LINE"
);
}
);
width = 1264;
}
);
unicode = 2211;
},
{
glyphname = ampersand;
layers = (
{
layerId = "9FF46155-5700-4CC7-A83F-22EBDC7BC473";
name = Regular;
paths = (
{
closed = 1;
nodes = (
"239 62 OFFCURVE",
"421 -27 OFFCURVE",
"661 -27 CURVE SMOOTH",
"894 -27 OFFCURVE",
"1047 70 OFFCURVE",
"1166 186 CURVE",
"1256 100 OFFCURVE",
"1338 10 OFFCURVE",
"1486 -12 CURVE",
"1618 86 LINE",
"1576 95 OFFCURVE",
"1539 104 OFFCURVE",
"1508 114 CURVE SMOOTH",
"1399 150 OFFCURVE",
"1334 208 OFFCURVE",
"1260 284 CURVE",
"1371 427 OFFCURVE",
"1454 625 OFFCURVE",
"1463 863 CURVE",
"1296 884 LINE",
"1296 842 OFFCURVE",
"1292 800 OFFCURVE",
"1285 756 CURVE SMOOTH",
"1262 618 OFFCURVE",
"1211 493 OFFCURVE",
"1144 398 CURVE",
"729 822 LINE",
"807 864 OFFCURVE",
"885 915 OFFCURVE",
"942 977 CURVE SMOOTH",
"990 1029 OFFCURVE",
"1036 1096 OFFCURVE",
"1036 1188 CURVE SMOOTH",
"1036 1237 OFFCURVE",
"1026 1278 OFFCURVE",
"1004 1314 CURVE SMOOTH",
"943 1414 OFFCURVE",
"820 1473 OFFCURVE",
"661 1473 CURVE SMOOTH",
"462 1473 OFFCURVE",
"299 1381 OFFCURVE",
"299 1182 CURVE SMOOTH",
"299 1147 OFFCURVE",
"304 1115 OFFCURVE",
"315 1086 CURVE SMOOTH",
"351 988 OFFCURVE",
"425 921 OFFCURVE",
"494 852 CURVE",
"400 802 OFFCURVE",
"304 744 OFFCURVE",
"233 672 CURVE SMOOTH",
"169 607 OFFCURVE",
"115 523 OFFCURVE",
"115 402 CURVE SMOOTH",
"115 334 OFFCURVE",
"128 273 OFFCURVE",
"156 220 CURVE SMOOTH"
);
},
{
closed = 1;
nodes = (
"961 197 OFFCURVE",
"848 116 OFFCURVE",
"658 116 CURVE SMOOTH",
"605 116 OFFCURVE",
"556 123 OFFCURVE",
"512 138 CURVE SMOOTH",
"398 176 OFFCURVE",
"295 259 OFFCURVE",
"295 406 CURVE SMOOTH",
"295 449 OFFCURVE",
"303 488 OFFCURVE",
"320 522 CURVE SMOOTH",
"374 632 OFFCURVE",
"485 694 OFFCURVE",
"594 750 CURVE",
"823 523 LINE SMOOTH",
"892 454 OFFCURVE",
"967 375 OFFCURVE",
"1034 311 CURVE SMOOTH",
"1048 298 OFFCURVE",
"1056 291 OFFCURVE",
"1058 291 CURVE"
);
},
{
closed = 1;
nodes = (
"799 1017 OFFCURVE",
"710 963 OFFCURVE",
"625 918 CURVE",
"602 939 OFFCURVE",
"582 959 OFFCURVE",
"563 979 CURVE SMOOTH",
"517 1028 OFFCURVE",
"472 1087 OFFCURVE",
"472 1178 CURVE SMOOTH",
"472 1288 OFFCURVE",
"559 1340 OFFCURVE",
"669 1340 CURVE SMOOTH",
"777 1340 OFFCURVE",
"865 1287 OFFCURVE",
"865 1178 CURVE SMOOTH",
"865 1150 OFFCURVE",
"858 1124 OFFCURVE",
"844 1099 CURVE SMOOTH"
);
}
);
width = 1647;
}
);
unicode = 0026;
},
{
glyphname = asciicircum;
layers = (
{
layerId = "9FF46155-5700-4CC7-A83F-22EBDC7BC473";
name = Regular;
paths = (
{
closed = 1;
nodes = (
"184 550 LINE",
"340 550 LINE",
"714 1260 LINE",
"1100 550 LINE",
"1255 550 LINE",
"766 1432 LINE",
"665 1432 LINE"
);
}
);
width = 1457;
}
);
unicode = 005E;
},
{
glyphname = at;
layers = (
{
layerId = "9FF46155-5700-4CC7-A83F-22EBDC7BC473";
name = Regular;
paths = (
{
closed = 1;
nodes = (
"504 -14 OFFCURVE",
"709 -109 OFFCURVE",
"967 -109 CURVE SMOOTH",
"1230 -109 OFFCURVE",
"1438 -17 OFFCURVE",
"1566 122 CURVE",
"1486 192 LINE",
"1362 86 OFFCURVE",
"1190 12 OFFCURVE",
"972 12 CURVE SMOOTH",
"753 12 OFFCURVE",
"585 90 OFFCURVE",
"471 202 CURVE SMOOTH",
"361 310 OFFCURVE",
"281 470 OFFCURVE",
"281 677 CURVE SMOOTH",
"281 884 OFFCURVE",
"367 1048 OFFCURVE",
"476 1158 CURVE SMOOTH",
"587 1270 OFFCURVE",
"753 1357 OFFCURVE",
"966 1357 CURVE SMOOTH",
"1162 1357 OFFCURVE",
"1321 1294 OFFCURVE",
"1428 1200 CURVE SMOOTH",
"1529 1111 OFFCURVE",
"1607 976 OFFCURVE",
"1607 796 CURVE SMOOTH",
"1607 673 OFFCURVE",
"1568 562 OFFCURVE",
"1517 486 CURVE SMOOTH",
"1474 421 OFFCURVE",
"1405 350 OFFCURVE",
"1309 350 CURVE SMOOTH",
"1249 350 OFFCURVE",
"1226 380 OFFCURVE",
"1226 436 CURVE SMOOTH",
"1226 467 OFFCURVE",
"1234 516 OFFCURVE",
"1250 584 CURVE SMOOTH",
"1266 652 OFFCURVE",
"1288 743 OFFCURVE",
"1314 857 CURVE SMOOTH",
"1371 1107 LINE",
"1225 1107 LINE",
"1207 1022 LINE",
"1168 1091 OFFCURVE",
"1084 1138 OFFCURVE",
"978 1138 CURVE SMOOTH",
"835 1138 OFFCURVE",
"721 1058 OFFCURVE",
"646 976 CURVE SMOOTH",
"568 890 OFFCURVE",
"498 763 OFFCURVE",
"498 610 CURVE SMOOTH",
"498 552 OFFCURVE",
"507 501 OFFCURVE",
"525 457 CURVE SMOOTH",
"570 347 OFFCURVE",
"664 257 OFFCURVE",
"814 257 CURVE SMOOTH",
"930 257 OFFCURVE",
"1013 313 OFFCURVE",
"1071 384 CURVE",
"1090 276 OFFCURVE",
"1165 225 OFFCURVE",
"1288 225 CURVE SMOOTH",
"1427 225 OFFCURVE",
"1540 307 OFFCURVE",
"1612 390 CURVE SMOOTH",
"1694 484 OFFCURVE",
"1760 622 OFFCURVE",
"1760 791 CURVE SMOOTH",
"1760 1018 OFFCURVE",
"1658 1176 OFFCURVE",
"1531 1283 CURVE SMOOTH",
"1398 1396 OFFCURVE",
"1213 1476 OFFCURVE",
"971 1476 CURVE SMOOTH",
"709 1476 OFFCURVE",
"513 1377 OFFCURVE",
"374 1246 CURVE SMOOTH",
"239 1119 OFFCURVE",
"130 935 OFFCURVE",
"130 679 CURVE SMOOTH",
"130 432 OFFCURVE",
"232 243 OFFCURVE",
"366 116 CURVE SMOOTH"
);
},
{
closed = 1;
nodes = (
"1006 454 OFFCURVE",
"934 385 OFFCURVE",
"831 385 CURVE SMOOTH",
"715 385 OFFCURVE",
"655 465 OFFCURVE",
"655 582 CURVE SMOOTH",
"655 693 OFFCURVE",
"697 795 OFFCURVE",
"746 866 CURVE SMOOTH",
"794 935 OFFCURVE",
"872 1007 OFFCURVE",
"980 1007 CURVE SMOOTH",
"1096 1007 OFFCURVE",
"1141 936 OFFCURVE",
"1141 821 CURVE SMOOTH",
"1141 702 OFFCURVE",
"1102 596 OFFCURVE",
"1052 522 CURVE SMOOTH"
);
}
);
width = 1895;
}
);
unicode = 0040;
},
{
glyphname = bar;
layers = (
{
layerId = "9FF46155-5700-4CC7-A83F-22EBDC7BC473";
name = Regular;
paths = (
{
closed = 1;
nodes = (
"168 -491 LINE",
"325 -491 LINE",
"325 1545 LINE",
"168 1545 LINE"
);
}
);
width = 500;
}
);
unicode = 007C;
},
{
glyphname = brokenbar;
layers = (
{
layerId = "9FF46155-5700-4CC7-A83F-22EBDC7BC473";
name = Regular;
paths = (
{
closed = 1;
nodes = (
"168 -491 LINE",
"325 -491 LINE",
"325 393 LINE",
"168 393 LINE"
);
},
{
closed = 1;
nodes = (
"168 677 LINE",
"325 677 LINE",
"325 1545 LINE",
"168 1545 LINE"
);
}
);
width = 500;
}
);
unicode = 00A6;
},
{
glyphname = copyright;
layers = (
{
layerId = "9FF46155-5700-4CC7-A83F-22EBDC7BC473";
name = Regular;
paths = (
{
closed = 1;
nodes = (
"563 378 OFFCURVE",
"713 249 OFFCURVE",
"940 249 CURVE SMOOTH",
"1060 249 OFFCURVE",
"1163 279 OFFCURVE",
"1249 339 CURVE",
"1210 460 LINE",
"1150 411 OFFCURVE",
"1073 380 OFFCURVE",
"972 380 CURVE SMOOTH",
"913 380 OFFCURVE",
"861 390 OFFCURVE",
"816 408 CURVE SMOOTH",
"695 458 OFFCURVE",
"613 566 OFFCURVE",
"613 733 CURVE SMOOTH",
"613 781 OFFCURVE",
"621 826 OFFCURVE",
"636 868 CURVE SMOOTH",
"680 989 OFFCURVE",
"782 1080 OFFCURVE",
"944 1080 CURVE SMOOTH",
"1051 1080 OFFCURVE",
"1141 1048 OFFCURVE",
"1214 985 CURVE",
"1245 1105 LINE",
"1164 1174 OFFCURVE",
"1066 1208 OFFCURVE",
"951 1208 CURVE SMOOTH",
"877 1208 OFFCURVE",
"810 1196 OFFCURVE",
"750 1172 CURVE SMOOTH",
"583 1106 OFFCURVE",
"460 959 OFFCURVE",
"460 729 CURVE SMOOTH",
"460 662 OFFCURVE",
"472 600 OFFCURVE",
"496 542 CURVE SMOOTH"
);
},
{
closed = 1;
nodes = (
"473 67 OFFCURVE",
"662 -32 OFFCURVE",
"914 -32 CURVE SMOOTH",
"1163 -32 OFFCURVE",
"1348 67 OFFCURVE",
"1480 192 CURVE SMOOTH",
"1608 313 OFFCURVE",
"1717 485 OFFCURVE",
"1717 725 CURVE SMOOTH",
"1717 794 OFFCURVE",
"1707 860 OFFCURVE",
"1688 924 CURVE SMOOTH",
"1647 1059 OFFCURVE",
"1573 1170 OFFCURVE",
"1480 1258 CURVE SMOOTH",
"1347 1383 OFFCURVE",
"1160 1483 OFFCURVE",
"908 1483 CURVE SMOOTH",
"659 1483 OFFCURVE",
"474 1385 OFFCURVE",
"341 1260 CURVE SMOOTH",
"213 1139 OFFCURVE",
"103 967 OFFCURVE",
"103 726 CURVE SMOOTH",
"103 657 OFFCURVE",
"113 590 OFFCURVE",
"132 526 CURVE SMOOTH",
"173 391 OFFCURVE",
"246 280 OFFCURVE",
"340 192 CURVE SMOOTH"
);
},
{
closed = 1;
nodes = (
"1284 165 OFFCURVE",
"1120 85 OFFCURVE",
"913 85 CURVE SMOOTH",
"705 85 OFFCURVE",
"538 164 OFFCURVE",
"426 270 CURVE SMOOTH",
"317 373 OFFCURVE",
"230 527 OFFCURVE",
"230 727 CURVE SMOOTH",
"230 926 OFFCURVE",
"317 1080 OFFCURVE",
"426 1182 CURVE SMOOTH",
"537 1286 OFFCURVE",
"703 1366 OFFCURVE",
"909 1366 CURVE SMOOTH",
"1116 1366 OFFCURVE",
"1283 1285 OFFCURVE",
"1394 1180 CURVE SMOOTH",
"1503 1077 OFFCURVE",
"1590 924 OFFCURVE",
"1590 724 CURVE SMOOTH",
"1590 525 OFFCURVE",
"1503 372 OFFCURVE",
"1395 270 CURVE SMOOTH"
);
}
);
width = 1829;
}
);
unicode = 00A9;
},
{
glyphname = dagger;
layers = (
{
layerId = "9FF46155-5700-4CC7-A83F-22EBDC7BC473";
name = Regular;
paths = (
{
closed = 1;
nodes = (
"433 113 LINE",
"561 113 LINE",
"561 934 LINE",
"919 934 LINE",
"919 1066 LINE",
"575 1066 LINE",
"575 1451 LINE",
"433 1451 LINE",
"433 1066 LINE",
"107 1066 LINE",
"107 934 LINE",
"433 934 LINE"
);
}
);
width = 1022;
}
);
unicode = 2020;
},
{
glyphname = daggerdbl;
layers = (
{
layerId = "9FF46155-5700-4CC7-A83F-22EBDC7BC473";
name = Regular;
paths = (
{
closed = 1;
nodes = (
"420 113 LINE",
"591 113 LINE",
"565 435 LINE",
"909 435 LINE",
"909 562 LINE",
"565 562 LINE",
"565 983 LINE",
"916 983 LINE",
"916 1115 LINE",
"572 1115 LINE",
"593 1451 LINE",
"422 1451 LINE",
"448 1115 LINE",
"104 1115 LINE",
"104 983 LINE",
"442 983 LINE",
"442 562 LINE",
"98 562 LINE",
"98 435 LINE",
"442 435 LINE"
);
}
);
width = 1022;
}
);
unicode = 2021;
},
{
glyphname = degree;
layers = (
{
layerId = "9FF46155-5700-4CC7-A83F-22EBDC7BC473";
name = Regular;
paths = (
{
closed = 1;
nodes = (
"565 1019 OFFCURVE",
"502 971 OFFCURVE",
"414 971 CURVE SMOOTH",
"387 971 OFFCURVE",
"361 976 OFFCURVE",
"338 985 CURVE SMOOTH",
"275 1010 OFFCURVE",
"220 1064 OFFCURVE",
"220 1151 CURVE SMOOTH",
"220 1176 OFFCURVE",
"226 1200 OFFCURVE",
"236 1222 CURVE SMOOTH",
"265 1282 OFFCURVE",
"327 1328 OFFCURVE",
"414 1328 CURVE SMOOTH",
"440 1328 OFFCURVE",
"464 1323 OFFCURVE",
"488 1314 CURVE SMOOTH",
"551 1290 OFFCURVE",
"608 1237 OFFCURVE",
"608 1151 CURVE SMOOTH",
"608 1126 OFFCURVE",
"603 1102 OFFCURVE",
"593 1080 CURVE SMOOTH"
);
},
{
closed = 1;
nodes = (
"167 937 OFFCURVE",
"271 855 OFFCURVE",
"414 855 CURVE SMOOTH",
"457 855 OFFCURVE",
"497 862 OFFCURVE",
"536 878 CURVE SMOOTH",
"638 919 OFFCURVE",
"733 1010 OFFCURVE",
"733 1150 CURVE SMOOTH",
"733 1191 OFFCURVE",
"725 1228 OFFCURVE",
"708 1264 CURVE SMOOTH",
"661 1363 OFFCURVE",
"558 1444 OFFCURVE",
"414 1444 CURVE SMOOTH",
"371 1444 OFFCURVE",
"330 1436 OFFCURVE",
"291 1421 CURVE SMOOTH",
"189 1380 OFFCURVE",
"95 1289 OFFCURVE",
"95 1150 CURVE SMOOTH",
"95 1109 OFFCURVE",
"103 1072 OFFCURVE",
"120 1036 CURVE SMOOTH"
);
}
);
width = 844;
}
);
unicode = 00B0;
},
{
glyphname = paragraph;
layers = (
{
layerId = "9FF46155-5700-4CC7-A83F-22EBDC7BC473";
name = Regular;
paths = (
{
closed = 1;
nodes = (
"442 -148 LINE",
"585 -148 LINE",
"585 1327 LINE",
"793 1327 LINE",
"793 -148 LINE",
"922 -148 LINE",
"922 1327 LINE",
"1009 1327 LINE",
"1009 1451 LINE",
"623 1451 LINE SMOOTH",
"359 1451 OFFCURVE",
"107 1394 OFFCURVE",
"107 1130 CURVE SMOOTH",
"107 1079 OFFCURVE",
"116 1032 OFFCURVE",
"134 990 CURVE SMOOTH",
"182 877 OFFCURVE",
"286 788 OFFCURVE",
"442 786 CURVE"
);
}
);
width = 1214;
}
);
unicode = 00B6;
},
{
glyphname = registered;
layers = (
{
layerId = "9FF46155-5700-4CC7-A83F-22EBDC7BC473";
name = Regular;
paths = (
{
closed = 1;
nodes = (
"597 273 LINE",
"745 273 LINE",
"745 664 LINE",
"882 664 LINE",
"943 625 OFFCURVE",
"987 557 OFFCURVE",
"1029 485 CURVE SMOOTH",
"1152 273 LINE",
"1320 273 LINE",
"1287 327 OFFCURVE",
"1258 375 OFFCURVE",
"1231 418 CURVE SMOOTH",
"1170 515 OFFCURVE",
"1113 609 OFFCURVE",
"1036 681 CURVE",
"1182 700 OFFCURVE",
"1301 775 OFFCURVE",
"1301 935 CURVE SMOOTH",
"1301 1018 OFFCURVE",
"1266 1082 OFFCURVE",
"1195 1126 CURVE SMOOTH",
"1124 1170 OFFCURVE",
"1016 1192 OFFCURVE",
"870 1192 CURVE SMOOTH",
"597 1192 LINE"
);
},
{
closed = 1;
nodes = (
"473 67 OFFCURVE",
"662 -32 OFFCURVE",
"914 -32 CURVE SMOOTH",
"1163 -32 OFFCURVE",
"1348 67 OFFCURVE",
"1480 192 CURVE SMOOTH",
"1608 313 OFFCURVE",
"1717 485 OFFCURVE",
"1717 725 CURVE SMOOTH",
"1717 794 OFFCURVE",
"1707 860 OFFCURVE",
"1688 924 CURVE SMOOTH",
"1647 1059 OFFCURVE",
"1573 1170 OFFCURVE",
"1480 1258 CURVE SMOOTH",
"1347 1383 OFFCURVE",
"1160 1483 OFFCURVE",
"908 1483 CURVE SMOOTH",
"659 1483 OFFCURVE",
"474 1385 OFFCURVE",
"341 1260 CURVE SMOOTH",
"213 1139 OFFCURVE",
"103 967 OFFCURVE",
"103 726 CURVE SMOOTH",
"103 657 OFFCURVE",
"113 590 OFFCURVE",
"132 526 CURVE SMOOTH",
"173 391 OFFCURVE",
"246 280 OFFCURVE",
"340 192 CURVE SMOOTH"
);
},
{
closed = 1;
nodes = (
"1284 165 OFFCURVE",
"1126 85 OFFCURVE",
"913 85 CURVE SMOOTH",
"705 85 OFFCURVE",
"538 164 OFFCURVE",
"426 270 CURVE SMOOTH",
"317 373 OFFCURVE",
"230 527 OFFCURVE",
"230 727 CURVE SMOOTH",
"230 926 OFFCURVE",
"317 1079 OFFCURVE",
"426 1182 CURVE SMOOTH",
"537 1287 OFFCURVE",
"703 1366 OFFCURVE",
"909 1366 CURVE SMOOTH",
"1116 1366 OFFCURVE",
"1283 1285 OFFCURVE",
"1394 1180 CURVE SMOOTH",
"1503 1077 OFFCURVE",
"1590 924 OFFCURVE",
"1590 724 CURVE SMOOTH",
"1590 519 OFFCURVE",
"1505 372 OFFCURVE",
"1396 270 CURVE SMOOTH"
);
},
{
closed = 1;
nodes = (
"743 783 LINE",
"742 1072 LINE",
"866 1072 LINE SMOOTH",
"1019 1072 OFFCURVE",
"1146 1071 OFFCURVE",
"1146 920 CURVE SMOOTH",
"1146 784 OFFCURVE",
"1006 783 OFFCURVE",
"868 783 CURVE SMOOTH"
);
}
);
width = 1829;
}
);
unicode = 00AE;
},
{
glyphname = section;
layers = (
{
layerId = "9FF46155-5700-4CC7-A83F-22EBDC7BC473";
name = Regular;
paths = (
{
closed = 1;
nodes = (
"288 -27 OFFCURVE",
"380 -48 OFFCURVE",
"482 -48 CURVE SMOOTH",
"595 -48 OFFCURVE",
"696 -18 OFFCURVE",
"765 30 CURVE SMOOTH",
"831 76 OFFCURVE",
"888 146 OFFCURVE",
"888 252 CURVE SMOOTH",
"888 378 OFFCURVE",
"810 437 OFFCURVE",
"725 480 CURVE",
"808 531 OFFCURVE",
"911 606 OFFCURVE",
"911 737 CURVE SMOOTH",
"911 772 OFFCURVE",
"902 804 OFFCURVE",
"886 832 CURVE SMOOTH",
"812 957 OFFCURVE",
"636 1001 OFFCURVE",
"506 1072 CURVE SMOOTH",
"448 1104 OFFCURVE",
"393 1140 OFFCURVE",
"393 1221 CURVE SMOOTH",
"393 1328 OFFCURVE",
"499 1356 OFFCURVE",
"608 1356 CURVE SMOOTH",
"692 1356 OFFCURVE",
"774 1332 OFFCURVE",
"834 1304 CURVE",
"832 1452 LINE",
"757 1475 OFFCURVE",
"696 1493 OFFCURVE",
"603 1493 CURVE SMOOTH",
"403 1493 OFFCURVE",
"221 1416 OFFCURVE",
"221 1217 CURVE SMOOTH",
"221 1090 OFFCURVE",
"289 1027 OFFCURVE",
"374 975 CURVE",
"286 931 OFFCURVE",
"185 859 OFFCURVE",
"185 729 CURVE SMOOTH",
"185 697 OFFCURVE",
"191 667 OFFCURVE",
"202 640 CURVE SMOOTH",
"240 547 OFFCURVE",
"327 494 OFFCURVE",
"421 454 CURVE SMOOTH",
"505 418 LINE SMOOTH",
"538 404 OFFCURVE",
"568 391 OFFCURVE",
"594 379 CURVE SMOOTH",
"652 352 OFFCURVE",
"715 322 OFFCURVE",
"715 243 CURVE SMOOTH",
"715 221 OFFCURVE",
"710 201 OFFCURVE",
"699 182 CURVE SMOOTH",
"663 119 OFFCURVE",
"578 89 OFFCURVE",
"477 89 CURVE SMOOTH",
"373 89 OFFCURVE",
"293 116 OFFCURVE",
"210 153 CURVE",
"212 4 LINE"
);
},
{
closed = 1;
nodes = (
"693 615 OFFCURVE",
"640 578 OFFCURVE",
"591 547 CURVE",
"557 561 OFFCURVE",
"526 574 OFFCURVE",
"498 587 CURVE SMOOTH",
"434 616 OFFCURVE",
"362 653 OFFCURVE",
"362 741 CURVE SMOOTH",
"362 831 OFFCURVE",
"435 880 OFFCURVE",
"495 912 CURVE",
"575 868 OFFCURVE",
"733 846 OFFCURVE",
"733 723 CURVE SMOOTH",
"733 703 OFFCURVE",
"729 685 OFFCURVE",
"720 668 CURVE SMOOTH"
);
}
);
width = 1097;
}
);
unicode = 00A7;
},
{
glyphname = Euro;
layers = (
{
layerId = "9FF46155-5700-4CC7-A83F-22EBDC7BC473";
name = Regular;
paths = (
{
closed = 1;
nodes = (
"251 209 OFFCURVE",
"407 -21 OFFCURVE",
"751 -21 CURVE SMOOTH",
"890 -21 OFFCURVE",
"994 14 OFFCURVE",
"1083 75 CURVE",
"1084 253 LINE",
"995 184 OFFCURVE",
"900 125 OFFCURVE",
"767 125 CURVE SMOOTH",
"520 125 OFFCURVE",
"422 297 OFFCURVE",
"392 516 CURVE",
"934 516 LINE",
"953 654 LINE",
"378 654 LINE",
"376 702 LINE SMOOTH",
"375 720 OFFCURVE",
"374 742 OFFCURVE",
"375 761 CURVE",
"375 773 LINE SMOOTH",
"375 777 OFFCURVE",
"376 781 OFFCURVE",
"377 784 CURVE",
"967 784 LINE",
"987 922 LINE",
"395 922 LINE",
"437 1116 OFFCURVE",
"541 1303 OFFCURVE",
"776 1303 CURVE SMOOTH",
"914 1303 OFFCURVE",
"1009 1232 OFFCURVE",
"1070 1141 CURVE",
"1106 1330 LINE",
"1028 1404 OFFCURVE",
"928 1448 OFFCURVE",
"783 1448 CURVE SMOOTH",
"704 1448 OFFCURVE",
"632 1435 OFFCURVE",
"569 1409 CURVE SMOOTH",
"376 1330 OFFCURVE",
"260 1153 OFFCURVE",
"218 922 CURVE",
"97 922 LINE",
"75 784 LINE",
"199 784 LINE",
"198 761 OFFCURVE",
"197 741 OFFCURVE",
"197 719 CURVE SMOOTH",
"197 694 OFFCURVE",
"198 672 OFFCURVE",
"200 654 CURVE",
"98 654 LINE",
"78 516 LINE",
"213 516 LINE"
);
}
);
width = 1190;
}
);
unicode = 20AC;
},
{
glyphname = trademark;
layers = (
{
layerId = "9FF46155-5700-4CC7-A83F-22EBDC7BC473";
name = Regular;
paths = (
{
closed = 1;
nodes = (
"819 686 LINE",
"940 686 LINE",
"940 1280 LINE",
"1199 686 LINE",
"1279 686 LINE",
"1553 1281 LINE",
"1553 686 LINE",
"1675 686 LINE",
"1675 1451 LINE",
"1495 1451 LINE",
"1245 900 LINE",
"1009 1451 LINE",
"819 1451 LINE"
);
},
{
closed = 1;
nodes = (
"323 686 LINE",
"447 686 LINE",
"447 1350 LINE",
"707 1350 LINE",
"707 1451 LINE",
"70 1451 LINE",
"70 1350 LINE",
"323 1350 LINE"
);
}
);
width = 1869;
}
);
unicode = 2122;
},
{
glyphname = lozenge;
layers = (
{
layerId = "9FF46155-5700-4CC7-A83F-22EBDC7BC473";
name = Regular;
paths = (
{
closed = 1;
nodes = (
"562 -45 LINE",
"668 -45 LINE",
"1130 712 LINE",
"677 1470 LINE",
"570 1470 LINE",
"112 711 LINE"
);
},
{
closed = 1;
nodes = (
"858 506 OFFCURVE",
"731 307 OFFCURVE",
"615 98 CURVE",
"500 306 OFFCURVE",
"379 508 OFFCURVE",
"261 713 CURVE",
"382 917 OFFCURVE",
"510 1114 OFFCURVE",
"625 1324 CURVE",
"739 1116 OFFCURVE",
"861 916 OFFCURVE",
"979 711 CURVE"
);
}
);
width = 1248;
}
);
unicode = 25CA;
},
{
glyphname = commaaccentcomb;
layers = (
{
anchors = (
{
name = _bottom;
position = "{225, 0}";
}
);
layerId = "9FF46155-5700-4CC7-A83F-22EBDC7BC473";
name = Regular;
paths = (
{
closed = 1;
nodes = (
"78 -625 LINE",
"209 -625 LINE",
"372 -162 LINE",
"185 -162 LINE"
);
}
);
width = 540;
}
);
unicode = 0326;
},
{
glyphname = dblgravecmb;
layers = (
{
anchors = (
{
name = _top;
position = "{626, 1026}";
}
);
layerId = "9FF46155-5700-4CC7-A83F-22EBDC7BC473";
name = Regular;
paths = (
{
closed = 1;
nodes = (
"438 1174 LINE",
"558 1174 LINE",
"338 1487 LINE",
"162 1487 LINE"
);
},
{
closed = 1;
nodes = (
"707 1174 LINE",
"825 1174 LINE",
"608 1487 LINE",
"432 1487 LINE"
);
}
);
width = 969;
}
);
unicode = 030F;
},
{
glyphname = uni0307;
layers = (
{
anchors = (
{
name = _top;
position = "{264, 1026}";
}
);
layerId = "9FF46155-5700-4CC7-A83F-22EBDC7BC473";
name = Regular;
paths = (
{
closed = 1;
nodes = (
"184 1246 LINE",
"344 1246 LINE",
"344 1409 LINE",
"184 1409 LINE"
);
}
);
width = 524;
}
);
unicode = 0307;
},
{
glyphname = uni0311;
layers = (
{
anchors = (
{
name = _top;
position = "{318, 1026}";
}
);
layerId = "9FF46155-5700-4CC7-A83F-22EBDC7BC473";
name = Regular;
paths = (
{
closed = 1;
nodes = (
"145 1454 OFFCURVE",
"45 1378 OFFCURVE",
"32 1218 CURVE",
"119 1218 LINE",
"134 1306 OFFCURVE",
"207 1347 OFFCURVE",
"309 1347 CURVE SMOOTH",
"411 1347 OFFCURVE",
"490 1302 OFFCURVE",
"510 1218 CURVE",
"596 1218 LINE",
"583 1372 OFFCURVE",
"482 1454 OFFCURVE",
"316 1454 CURVE SMOOTH"
);
}
);
width = 629;
}
);
unicode = 0311;
},
{
glyphname = acute;
layers = (
{
anchors = (
{
name = _top;
position = "{256, 1026}";
}
);
layerId = "9FF46155-5700-4CC7-A83F-22EBDC7BC473";
name = Regular;
paths = (
{
closed = 1;
nodes = (
"175 1172 LINE",
"305 1172 LINE",
"613 1492 LINE",
"401 1492 LINE"
);
}
);
width = 607;
}
);
unicode = 00B4;
},
{
glyphname = breve;
layers = (
{
anchors = (
{
name = _top;
position = "{314, 1026}";
}
);
layerId = "9FF46155-5700-4CC7-A83F-22EBDC7BC473";
name = Regular;
paths = (
{
closed = 1;
nodes = (
"45 1294 OFFCURVE",
"145 1218 OFFCURVE",
"316 1218 CURVE SMOOTH",
"482 1218 OFFCURVE",
"583 1300 OFFCURVE",
"596 1454 CURVE",
"510 1454 LINE",
"490 1370 OFFCURVE",
"411 1325 OFFCURVE",
"309 1325 CURVE SMOOTH",
"207 1325 OFFCURVE",
"134 1366 OFFCURVE",
"119 1454 CURVE",
"32 1454 LINE"
);
}
);
width = 629;
}
);
unicode = 02D8;
},
{
glyphname = caron;
layers = (
{
anchors = (
{
name = _top;
position = "{346, 1026}";
}
);
layerId = "9FF46155-5700-4CC7-A83F-22EBDC7BC473";
name = Regular;
paths = (
{
closed = 1;
nodes = (
"268 1170 LINE",
"424 1170 LINE",
"662 1493 LINE",
"508 1493 LINE",
"340 1278 LINE",
"176 1493 LINE",
"29 1493 LINE"
);
}
);
width = 699;
}
);
unicode = 02C7;
},
{
glyphname = cedilla;
layers = (
{
anchors = (
{
name = _bottom;
position = "{260, 0}";
}
);
layerId = "9FF46155-5700-4CC7-A83F-22EBDC7BC473";
name = Regular;
paths = (
{
closed = 1;
nodes = (
"106 -385 OFFCURVE",
"167 -396 OFFCURVE",
"227 -396 CURVE SMOOTH",
"348 -396 OFFCURVE",
"468 -359 OFFCURVE",
"468 -239 CURVE SMOOTH",
"468 -131 OFFCURVE",
"372 -95 OFFCURVE",
"268 -90 CURVE",
"259 -90 LINE",
"277 17 LINE",
"180 17 LINE",
"147 -173 LINE",
"179 -171 LINE SMOOTH",
"190 -170 OFFCURVE",
"207 -168 OFFCURVE",
"216 -168 CURVE SMOOTH",
"276 -168 OFFCURVE",
"325 -182 OFFCURVE",
"325 -241 CURVE SMOOTH",
"325 -297 OFFCURVE",
"277 -313 OFFCURVE",
"211 -313 CURVE SMOOTH",
"157 -313 OFFCURVE",
"110 -301 OFFCURVE",
"60 -289 CURVE",
"52 -374 LINE"
);
}
);
width = 529;
}
);
unicode = 00B8;
},
{
glyphname = circumflex;
layers = (
{
anchors = (
{
name = _top;
position = "{342, 1026}";
}
);
layerId = "9FF46155-5700-4CC7-A83F-22EBDC7BC473";
name = Regular;
paths = (
{
closed = 1;
nodes = (
"35 1170 LINE",
"161 1170 LINE",
"339 1386 LINE",
"517 1170 LINE",
"649 1170 LINE",
"420 1494 LINE",
"263 1494 LINE"
);
}
);
width = 699;
}
);
unicode = 02C6;
},
{
glyphname = dieresis;
layers = (
{
anchors = (
{
name = _top;
position = "{369, 1026}";
}
);
layerId = "9FF46155-5700-4CC7-A83F-22EBDC7BC473";
name = Regular;
paths = (
{
closed = 1;
nodes = (
"121 1183 LINE",
"285 1183 LINE",
"285 1346 LINE",
"121 1346 LINE"
);
},
{
closed = 1;
nodes = (
"453 1183 LINE",
"617 1183 LINE",
"617 1346 LINE",
"453 1346 LINE"
);
}
);
width = 743;
}
);
unicode = 00A8;
},
{
glyphname = dotaccent;
layers = (
{
anchors = (
{
name = _top;
position = "{264, 1026}";
}
);
layerId = "9FF46155-5700-4CC7-A83F-22EBDC7BC473";
name = Regular;
paths = (
{
closed = 1;
nodes = (
"184 1246 LINE",
"344 1246 LINE",
"344 1409 LINE",
"184 1409 LINE"
);
}
);
width = 524;
}
);
unicode = 02D9;
},
{
glyphname = grave;
layers = (
{
anchors = (
{
name = _top;
position = "{368, 1026}";
}
);
layerId = "9FF46155-5700-4CC7-A83F-22EBDC7BC473";
name = Regular;
paths = (
{
closed = 1;
nodes = (
"333 1172 LINE",
"462 1172 LINE",
"215 1492 LINE",
"1 1492 LINE"
);
}
);
width = 593;
}
);
unicode = 0060;
},
{
glyphname = hungarumlaut;
layers = (
{
anchors = (
{
name = _top;
position = "{342, 1026}";
}
);
layerId = "9FF46155-5700-4CC7-A83F-22EBDC7BC473";
name = Regular;
paths = (
{
closed = 1;
nodes = (
"162 1174 LINE",
"280 1174 LINE",
"555 1487 LINE",
"379 1487 LINE"
);
},
{
closed = 1;
nodes = (
"429 1174 LINE",
"549 1174 LINE",
"825 1487 LINE",
"649 1487 LINE"
);
}
);
width = 969;
}
);
unicode = 02DD;
},
{
glyphname = macron;
layers = (
{
anchors = (
{
name = _top;
position = "{365, 1026}";
}
);
layerId = "9FF46155-5700-4CC7-A83F-22EBDC7BC473";
name = Regular;
paths = (
{
closed = 1;
nodes = (
"79 1183 LINE",
"651 1183 LINE",
"651 1317 LINE",
"79 1317 LINE"
);
}
);
width = 728;
}
);
unicode = 00AF;
},
{
glyphname = ogonek;
layers = (
{
anchors = (
{
name = _ogonek;
position = "{331, 10}";
}
);
layerId = "9FF46155-5700-4CC7-A83F-22EBDC7BC473";
name = Regular;
paths = (
{
closed = 1;
nodes = (
"99 -357 OFFCURVE",
"172 -390 OFFCURVE",
"266 -390 CURVE SMOOTH",
"330 -390 OFFCURVE",
"397 -380 OFFCURVE",
"443 -361 CURVE",
"443 -250 LINE",
"397 -268 OFFCURVE",
"353 -281 OFFCURVE",
"289 -281 CURVE SMOOTH",
"238 -281 OFFCURVE",
"189 -250 OFFCURVE",
"189 -199 CURVE SMOOTH",
"189 -183 OFFCURVE",
"194 -167 OFFCURVE",
"204 -151 CURVE SMOOTH",
"246 -86 OFFCURVE",
"323 -42 OFFCURVE",
"392 0 CURVE",
"263 12 LINE",
"209 -14 OFFCURVE",
"155 -49 OFFCURVE",
"115 -89 CURVE SMOOTH",
"82 -122 OFFCURVE",
"48 -167 OFFCURVE",
"48 -225 CURVE SMOOTH",
"48 -252 OFFCURVE",
"54 -276 OFFCURVE",
"65 -296 CURVE SMOOTH"
);
}
);
width = 508;
}
);
unicode = 02DB;
},
{
glyphname = ring;
layers = (
{
anchors = (
{
name = _top;
position = "{300, 1026}";
}
);
layerId = "9FF46155-5700-4CC7-A83F-22EBDC7BC473";
name = Regular;
paths = (
{
closed = 1;
nodes = (
"137 1199 OFFCURVE",
"206 1149 OFFCURVE",
"301 1149 CURVE SMOOTH",
"329 1149 OFFCURVE",
"356 1154 OFFCURVE",
"381 1164 CURVE SMOOTH",
"448 1190 OFFCURVE",
"510 1249 OFFCURVE",
"510 1340 CURVE SMOOTH",
"510 1366 OFFCURVE",
"505 1391 OFFCURVE",
"494 1414 CURVE SMOOTH",
"464 1480 OFFCURVE",
"395 1530 OFFCURVE",
"300 1530 CURVE SMOOTH",
"271 1530 OFFCURVE",
"243 1526 OFFCURVE",
"218 1516 CURVE SMOOTH",
"150 1490 OFFCURVE",
"90 1431 OFFCURVE",
"90 1339 CURVE SMOOTH",
"90 1312 OFFCURVE",
"95 1287 OFFCURVE",
"106 1264 CURVE SMOOTH"
);
},
{
closed = 1;
nodes = (
"410 1280 OFFCURVE",
"359 1235 OFFCURVE",
"299 1235 CURVE SMOOTH",
"234 1235 OFFCURVE",
"189 1276 OFFCURVE",
"189 1340 CURVE SMOOTH",
"189 1400 OFFCURVE",
"239 1445 OFFCURVE",
"299 1445 CURVE SMOOTH",
"361 1445 OFFCURVE",
"410 1402 OFFCURVE",
"410 1340 CURVE SMOOTH"
);
}
);
width = 605;
}
);
unicode = 02DA;
},
{
glyphname = tilde;
layers = (
{
anchors = (
{
name = _top;
position = "{336, 1026}";
}
);
layerId = "9FF46155-5700-4CC7-A83F-22EBDC7BC473";
name = Regular;
paths = (
{
closed = 1;
nodes = (
"89 1413 OFFCURVE",
"24 1319 OFFCURVE",
"14 1203 CURVE",
"119 1203 LINE",
"126 1260 OFFCURVE",
"156 1288 OFFCURVE",
"210 1288 CURVE SMOOTH",
"305 1288 OFFCURVE",
"367 1220 OFFCURVE",
"463 1220 CURVE SMOOTH",
"587 1220 OFFCURVE",
"645 1322 OFFCURVE",
"658 1435 CURVE",
"550 1435 LINE",
"543 1384 OFFCURVE",
"516 1345 OFFCURVE",
"463 1345 CURVE SMOOTH",
"444 1345 OFFCURVE",
"424 1349 OFFCURVE",
"404 1356 CURVE SMOOTH",
"346 1377 OFFCURVE",
"289 1413 OFFCURVE",
"213 1413 CURVE SMOOTH"
);
}
);
width = 663;
}
);
unicode = 02DC;
},
{
glyphname = uniF6C3;
layers = (
{
layerId = "9FF46155-5700-4CC7-A83F-22EBDC7BC473";
name = Regular;
paths = (
{
closed = 1;
nodes = (
"110 -603 LINE",
"241 -603 LINE",
"404 -140 LINE",
"217 -140 LINE"
);
}
